<mxfile host="Electron" modified="2024-08-29T10:05:02.993Z" agent="Mozilla/5.0 (Macintosh; Intel Mac OS X 10_15_7) AppleWebKit/537.36 (KHTML, like Gecko) draw.io/24.5.3 Chrome/124.0.6367.207 Electron/30.0.6 Safari/537.36" etag="VFWU7tPbUochzFzT5ONH" version="24.5.3" type="device">
  <diagram name="Page-1" id="s9T8C-GyFNTnV4g63xKH">
    <mxGraphModel dx="2443" dy="1008" grid="0" gridSize="10" guides="1" tooltips="1" connect="1" arrows="1" fold="1" page="1" pageScale="1" pageWidth="850" pageHeight="1100" math="0" shadow="0">
      <root>
        <mxCell id="0" />
        <mxCell id="1" parent="0" />
        <mxCell id="zxlBYHo0lnK8-v2Jy7Ye-19" value="" style="group" vertex="1" connectable="0" parent="1">
          <mxGeometry x="-238" y="31" width="1305" height="863" as="geometry" />
        </mxCell>
        <mxCell id="zxlBYHo0lnK8-v2Jy7Ye-18" value="" style="rounded=0;whiteSpace=wrap;html=1;fillColor=default;strokeColor=#CCCCCC;glass=0;" vertex="1" parent="zxlBYHo0lnK8-v2Jy7Ye-19">
          <mxGeometry width="1305" height="863" as="geometry" />
        </mxCell>
        <mxCell id="Gp_YVxWlIurZ-KOiKA9H-81" style="edgeStyle=orthogonalEdgeStyle;rounded=0;orthogonalLoop=1;jettySize=auto;html=1;entryX=-0.004;entryY=0.397;entryDx=0;entryDy=0;entryPerimeter=0;strokeColor=#4D4D4D;" parent="zxlBYHo0lnK8-v2Jy7Ye-19" source="Gp_YVxWlIurZ-KOiKA9H-73" target="Gp_YVxWlIurZ-KOiKA9H-74" edge="1">
          <mxGeometry relative="1" as="geometry" />
        </mxCell>
        <mxCell id="Gp_YVxWlIurZ-KOiKA9H-85" style="edgeStyle=orthogonalEdgeStyle;rounded=0;orthogonalLoop=1;jettySize=auto;html=1;entryX=1;entryY=0.5;entryDx=0;entryDy=0;dashed=1;strokeColor=#003366;" parent="zxlBYHo0lnK8-v2Jy7Ye-19" source="Gp_YVxWlIurZ-KOiKA9H-73" target="Gp_YVxWlIurZ-KOiKA9H-83" edge="1">
          <mxGeometry relative="1" as="geometry" />
        </mxCell>
        <mxCell id="Gp_YVxWlIurZ-KOiKA9H-73" value="" style="rounded=0;whiteSpace=wrap;html=1;fillColor=default;strokeColor=#CCCCCC;glass=0;" parent="zxlBYHo0lnK8-v2Jy7Ye-19" vertex="1">
          <mxGeometry x="248" y="475.5" width="830" height="113.5" as="geometry" />
        </mxCell>
        <mxCell id="Gp_YVxWlIurZ-KOiKA9H-6" style="edgeStyle=orthogonalEdgeStyle;rounded=0;orthogonalLoop=1;jettySize=auto;html=1;entryX=0.75;entryY=0;entryDx=0;entryDy=0;" parent="zxlBYHo0lnK8-v2Jy7Ye-19" target="zxlBYHo0lnK8-v2Jy7Ye-4" edge="1">
          <mxGeometry relative="1" as="geometry">
            <mxPoint x="702.5000000000005" y="103" as="sourcePoint" />
            <mxPoint x="668.4000000000001" y="210.6500000000001" as="targetPoint" />
            <Array as="points">
              <mxPoint x="703" y="139" />
              <mxPoint x="677" y="139" />
            </Array>
          </mxGeometry>
        </mxCell>
        <mxCell id="Gp_YVxWlIurZ-KOiKA9H-3" value="" style="group" parent="zxlBYHo0lnK8-v2Jy7Ye-19" vertex="1" connectable="0">
          <mxGeometry x="594" y="49" width="138" height="60" as="geometry" />
        </mxCell>
        <mxCell id="Gp_YVxWlIurZ-KOiKA9H-1" value="Mobile" style="sketch=0;outlineConnect=0;fontColor=#232F3E;gradientColor=none;strokeColor=#232F3E;fillColor=none;dashed=0;verticalLabelPosition=bottom;verticalAlign=top;align=center;html=1;fontSize=12;fontStyle=0;aspect=fixed;shape=mxgraph.aws4.resourceIcon;resIcon=mxgraph.aws4.mobile_client;" parent="Gp_YVxWlIurZ-KOiKA9H-3" vertex="1">
          <mxGeometry width="60" height="60" as="geometry" />
        </mxCell>
        <mxCell id="Gp_YVxWlIurZ-KOiKA9H-2" value="Computer" style="sketch=0;pointerEvents=1;shadow=0;dashed=0;html=1;strokeColor=none;fillColor=#505050;labelPosition=center;verticalLabelPosition=bottom;verticalAlign=top;outlineConnect=0;align=center;shape=mxgraph.office.devices.mac_client;" parent="Gp_YVxWlIurZ-KOiKA9H-3" vertex="1">
          <mxGeometry x="80" y="6" width="58" height="48" as="geometry" />
        </mxCell>
        <mxCell id="Gp_YVxWlIurZ-KOiKA9H-18" style="edgeStyle=orthogonalEdgeStyle;rounded=0;orthogonalLoop=1;jettySize=auto;html=1;entryX=0.5;entryY=0;entryDx=0;entryDy=0;strokeColor=#4D4D4D;" parent="zxlBYHo0lnK8-v2Jy7Ye-19" source="zxlBYHo0lnK8-v2Jy7Ye-5" target="Gp_YVxWlIurZ-KOiKA9H-14" edge="1">
          <mxGeometry relative="1" as="geometry">
            <mxPoint x="663.5" y="429" as="targetPoint" />
            <Array as="points">
              <mxPoint x="664" y="429" />
              <mxPoint x="717" y="429" />
            </Array>
            <mxPoint x="663.5263157894742" y="389" as="sourcePoint" />
          </mxGeometry>
        </mxCell>
        <mxCell id="Gp_YVxWlIurZ-KOiKA9H-19" style="edgeStyle=orthogonalEdgeStyle;rounded=0;orthogonalLoop=1;jettySize=auto;html=1;strokeColor=#4D4D4D;" parent="zxlBYHo0lnK8-v2Jy7Ye-19" source="zxlBYHo0lnK8-v2Jy7Ye-5" target="Gp_YVxWlIurZ-KOiKA9H-17" edge="1">
          <mxGeometry relative="1" as="geometry">
            <Array as="points">
              <mxPoint x="664" y="429" />
              <mxPoint x="818" y="429" />
            </Array>
            <mxPoint x="663.5263157894742" y="389" as="sourcePoint" />
          </mxGeometry>
        </mxCell>
        <mxCell id="Gp_YVxWlIurZ-KOiKA9H-20" style="edgeStyle=orthogonalEdgeStyle;rounded=0;orthogonalLoop=1;jettySize=auto;html=1;entryX=0.5;entryY=0;entryDx=0;entryDy=0;strokeColor=#4D4D4D;exitX=0.494;exitY=0.942;exitDx=0;exitDy=0;exitPerimeter=0;" parent="zxlBYHo0lnK8-v2Jy7Ye-19" source="zxlBYHo0lnK8-v2Jy7Ye-5" target="Gp_YVxWlIurZ-KOiKA9H-15" edge="1">
          <mxGeometry relative="1" as="geometry">
            <Array as="points">
              <mxPoint x="663" y="429" />
              <mxPoint x="917" y="429" />
            </Array>
            <mxPoint x="663.5263157894742" y="389" as="sourcePoint" />
          </mxGeometry>
        </mxCell>
        <mxCell id="Gp_YVxWlIurZ-KOiKA9H-21" style="edgeStyle=orthogonalEdgeStyle;rounded=0;orthogonalLoop=1;jettySize=auto;html=1;entryX=0.5;entryY=0;entryDx=0;entryDy=0;strokeColor=#4D4D4D;" parent="zxlBYHo0lnK8-v2Jy7Ye-19" target="Gp_YVxWlIurZ-KOiKA9H-16" edge="1" source="zxlBYHo0lnK8-v2Jy7Ye-5">
          <mxGeometry relative="1" as="geometry">
            <mxPoint x="663" y="389" as="sourcePoint" />
            <mxPoint x="1017.5" y="479" as="targetPoint" />
            <Array as="points">
              <mxPoint x="664" y="429" />
              <mxPoint x="1017" y="429" />
            </Array>
          </mxGeometry>
        </mxCell>
        <mxCell id="Gp_YVxWlIurZ-KOiKA9H-22" style="edgeStyle=orthogonalEdgeStyle;rounded=0;orthogonalLoop=1;jettySize=auto;html=1;strokeColor=#4D4D4D;exitX=0.473;exitY=0.942;exitDx=0;exitDy=0;exitPerimeter=0;" parent="zxlBYHo0lnK8-v2Jy7Ye-19" source="zxlBYHo0lnK8-v2Jy7Ye-5" target="Gp_YVxWlIurZ-KOiKA9H-13" edge="1">
          <mxGeometry relative="1" as="geometry">
            <Array as="points">
              <mxPoint x="664" y="376" />
              <mxPoint x="664" y="429" />
              <mxPoint x="617" y="429" />
            </Array>
            <mxPoint x="663.5263157894742" y="389" as="sourcePoint" />
          </mxGeometry>
        </mxCell>
        <mxCell id="Gp_YVxWlIurZ-KOiKA9H-23" style="edgeStyle=orthogonalEdgeStyle;rounded=0;orthogonalLoop=1;jettySize=auto;html=1;entryX=0.5;entryY=0;entryDx=0;entryDy=0;strokeColor=#4D4D4D;" parent="zxlBYHo0lnK8-v2Jy7Ye-19" source="zxlBYHo0lnK8-v2Jy7Ye-5" target="Gp_YVxWlIurZ-KOiKA9H-12" edge="1">
          <mxGeometry relative="1" as="geometry">
            <Array as="points">
              <mxPoint x="664" y="429" />
              <mxPoint x="517" y="429" />
            </Array>
            <mxPoint x="663.5263157894742" y="389" as="sourcePoint" />
          </mxGeometry>
        </mxCell>
        <mxCell id="Gp_YVxWlIurZ-KOiKA9H-24" style="edgeStyle=orthogonalEdgeStyle;rounded=0;orthogonalLoop=1;jettySize=auto;html=1;entryX=0.5;entryY=0;entryDx=0;entryDy=0;strokeColor=#4D4D4D;exitX=0.494;exitY=1.005;exitDx=0;exitDy=0;exitPerimeter=0;" parent="zxlBYHo0lnK8-v2Jy7Ye-19" source="zxlBYHo0lnK8-v2Jy7Ye-5" target="Gp_YVxWlIurZ-KOiKA9H-11" edge="1">
          <mxGeometry relative="1" as="geometry">
            <Array as="points">
              <mxPoint x="663" y="429" />
              <mxPoint x="417" y="429" />
            </Array>
            <mxPoint x="663.5263157894742" y="389" as="sourcePoint" />
          </mxGeometry>
        </mxCell>
        <mxCell id="Gp_YVxWlIurZ-KOiKA9H-25" style="edgeStyle=orthogonalEdgeStyle;rounded=0;orthogonalLoop=1;jettySize=auto;html=1;strokeColor=#4D4D4D;" parent="zxlBYHo0lnK8-v2Jy7Ye-19" source="zxlBYHo0lnK8-v2Jy7Ye-5" target="Gp_YVxWlIurZ-KOiKA9H-10" edge="1">
          <mxGeometry relative="1" as="geometry">
            <Array as="points">
              <mxPoint x="664" y="429" />
              <mxPoint x="318" y="429" />
            </Array>
            <mxPoint x="663.5263157894742" y="389" as="sourcePoint" />
          </mxGeometry>
        </mxCell>
        <mxCell id="Gp_YVxWlIurZ-KOiKA9H-8" style="edgeStyle=orthogonalEdgeStyle;rounded=0;orthogonalLoop=1;jettySize=auto;html=1;exitX=0.5;exitY=1;exitDx=0;exitDy=0;" parent="zxlBYHo0lnK8-v2Jy7Ye-19" source="zxlBYHo0lnK8-v2Jy7Ye-4" target="zxlBYHo0lnK8-v2Jy7Ye-5" edge="1">
          <mxGeometry relative="1" as="geometry">
            <mxPoint x="663.5" y="259" as="sourcePoint" />
            <mxPoint x="663.5" y="329" as="targetPoint" />
          </mxGeometry>
        </mxCell>
        <mxCell id="Gp_YVxWlIurZ-KOiKA9H-7" style="edgeStyle=orthogonalEdgeStyle;rounded=0;orthogonalLoop=1;jettySize=auto;html=1;entryX=0.25;entryY=0;entryDx=0;entryDy=0;" parent="zxlBYHo0lnK8-v2Jy7Ye-19" target="zxlBYHo0lnK8-v2Jy7Ye-4" edge="1">
          <mxGeometry relative="1" as="geometry">
            <mxPoint x="623.5" y="108.99999999999989" as="sourcePoint" />
            <Array as="points">
              <mxPoint x="624" y="139" />
              <mxPoint x="650" y="139" />
            </Array>
            <mxPoint x="659.0500000000002" y="210.25" as="targetPoint" />
          </mxGeometry>
        </mxCell>
        <mxCell id="Gp_YVxWlIurZ-KOiKA9H-9" value="OAuth" style="rounded=0;whiteSpace=wrap;html=1;fillColor=#f8cecc;strokeColor=#b85450;sketch=1;curveFitting=1;jiggle=2;shadow=1;glass=0;gradientColor=#ea6b66;" parent="zxlBYHo0lnK8-v2Jy7Ye-19" vertex="1">
          <mxGeometry x="438" y="369" width="80" height="40" as="geometry" />
        </mxCell>
        <mxCell id="Gp_YVxWlIurZ-KOiKA9H-10" value="Account&lt;div&gt;Service&lt;/div&gt;" style="rounded=0;whiteSpace=wrap;html=1;shadow=1;strokeColor=#003366;fillColor=#FFE6CC;sketch=1;curveFitting=1;jiggle=2;glass=1;gradientColor=#FFB366;fontColor=#001933;" parent="zxlBYHo0lnK8-v2Jy7Ye-19" vertex="1">
          <mxGeometry x="272" y="500" width="90" height="50" as="geometry" />
        </mxCell>
        <mxCell id="Gp_YVxWlIurZ-KOiKA9H-30" style="edgeStyle=orthogonalEdgeStyle;rounded=0;orthogonalLoop=1;jettySize=auto;html=1;exitX=0.25;exitY=0;exitDx=0;exitDy=0;entryX=0.5;entryY=0;entryDx=0;entryDy=0;entryPerimeter=0;dashed=1;strokeColor=#003366;" parent="zxlBYHo0lnK8-v2Jy7Ye-19" source="Gp_YVxWlIurZ-KOiKA9H-11" target="Gp_YVxWlIurZ-KOiKA9H-38" edge="1">
          <mxGeometry relative="1" as="geometry">
            <mxPoint x="138" y="479" as="targetPoint" />
          </mxGeometry>
        </mxCell>
        <mxCell id="Gp_YVxWlIurZ-KOiKA9H-55" style="edgeStyle=orthogonalEdgeStyle;rounded=0;orthogonalLoop=1;jettySize=auto;html=1;exitX=0.75;exitY=1;exitDx=0;exitDy=0;entryX=0.85;entryY=0.05;entryDx=0;entryDy=0;curved=1;entryPerimeter=0;dashed=1;fontColor=#00994D;" parent="zxlBYHo0lnK8-v2Jy7Ye-19" source="Gp_YVxWlIurZ-KOiKA9H-11" target="Gp_YVxWlIurZ-KOiKA9H-45" edge="1">
          <mxGeometry relative="1" as="geometry">
            <Array as="points">
              <mxPoint x="440" y="609" />
              <mxPoint x="468" y="609" />
              <mxPoint x="468" y="719" />
              <mxPoint x="438" y="719" />
            </Array>
          </mxGeometry>
        </mxCell>
        <mxCell id="Gp_YVxWlIurZ-KOiKA9H-56" value="Read" style="edgeLabel;html=1;align=center;verticalAlign=middle;resizable=0;points=[];textShadow=0;" parent="Gp_YVxWlIurZ-KOiKA9H-55" vertex="1" connectable="0">
          <mxGeometry x="0.0517" relative="1" as="geometry">
            <mxPoint as="offset" />
          </mxGeometry>
        </mxCell>
        <mxCell id="Gp_YVxWlIurZ-KOiKA9H-11" value="Product&lt;div&gt;Service&lt;/div&gt;" style="rounded=0;whiteSpace=wrap;html=1;shadow=1;fillColor=#FFE6CC;strokeColor=#003366;sketch=1;curveFitting=1;jiggle=2;glass=1;gradientColor=#FFB366;fontColor=#001933;" parent="zxlBYHo0lnK8-v2Jy7Ye-19" vertex="1">
          <mxGeometry x="372" y="500" width="90" height="50" as="geometry" />
        </mxCell>
        <mxCell id="Gp_YVxWlIurZ-KOiKA9H-60" style="edgeStyle=orthogonalEdgeStyle;rounded=0;orthogonalLoop=1;jettySize=auto;html=1;strokeColor=#4D4D4D;" parent="zxlBYHo0lnK8-v2Jy7Ye-19" source="Gp_YVxWlIurZ-KOiKA9H-12" target="Gp_YVxWlIurZ-KOiKA9H-61" edge="1">
          <mxGeometry relative="1" as="geometry">
            <mxPoint x="517" y="629" as="targetPoint" />
          </mxGeometry>
        </mxCell>
        <mxCell id="Gp_YVxWlIurZ-KOiKA9H-12" value="Order&lt;div&gt;Service&lt;/div&gt;" style="rounded=0;whiteSpace=wrap;html=1;shadow=1;fillColor=#FFE6CC;strokeColor=#003366;sketch=1;curveFitting=1;jiggle=2;glass=1;gradientColor=#FFB366;fontColor=#001933;" parent="zxlBYHo0lnK8-v2Jy7Ye-19" vertex="1">
          <mxGeometry x="472" y="500" width="90" height="50" as="geometry" />
        </mxCell>
        <mxCell id="Gp_YVxWlIurZ-KOiKA9H-33" style="edgeStyle=orthogonalEdgeStyle;rounded=0;orthogonalLoop=1;jettySize=auto;html=1;exitX=0.25;exitY=0;exitDx=0;exitDy=0;entryX=0.5;entryY=0;entryDx=0;entryDy=0;entryPerimeter=0;dashed=1;strokeColor=#003366;" parent="zxlBYHo0lnK8-v2Jy7Ye-19" source="Gp_YVxWlIurZ-KOiKA9H-13" target="Gp_YVxWlIurZ-KOiKA9H-38" edge="1">
          <mxGeometry relative="1" as="geometry">
            <mxPoint x="138" y="479" as="targetPoint" />
          </mxGeometry>
        </mxCell>
        <mxCell id="Gp_YVxWlIurZ-KOiKA9H-63" style="edgeStyle=orthogonalEdgeStyle;rounded=0;orthogonalLoop=1;jettySize=auto;html=1;strokeColor=#4D4D4D;" parent="zxlBYHo0lnK8-v2Jy7Ye-19" source="Gp_YVxWlIurZ-KOiKA9H-13" target="Gp_YVxWlIurZ-KOiKA9H-62" edge="1">
          <mxGeometry relative="1" as="geometry" />
        </mxCell>
        <mxCell id="Gp_YVxWlIurZ-KOiKA9H-13" value="Payment&lt;div&gt;Service&lt;/div&gt;" style="rounded=0;whiteSpace=wrap;html=1;shadow=1;fillColor=#FFE6CC;strokeColor=#003366;sketch=1;curveFitting=1;jiggle=2;glass=1;gradientColor=#FFB366;fontColor=#001933;" parent="zxlBYHo0lnK8-v2Jy7Ye-19" vertex="1">
          <mxGeometry x="572" y="500" width="90" height="50" as="geometry" />
        </mxCell>
        <mxCell id="Gp_YVxWlIurZ-KOiKA9H-65" style="edgeStyle=orthogonalEdgeStyle;rounded=0;orthogonalLoop=1;jettySize=auto;html=1;strokeColor=#4D4D4D;" parent="zxlBYHo0lnK8-v2Jy7Ye-19" source="Gp_YVxWlIurZ-KOiKA9H-14" target="Gp_YVxWlIurZ-KOiKA9H-64" edge="1">
          <mxGeometry relative="1" as="geometry" />
        </mxCell>
        <mxCell id="Gp_YVxWlIurZ-KOiKA9H-14" value="Inventory&lt;div&gt;Service&lt;/div&gt;" style="rounded=0;whiteSpace=wrap;html=1;shadow=1;fillColor=#FFE6CC;strokeColor=#003366;sketch=1;curveFitting=1;jiggle=2;glass=1;gradientColor=#FFB366;fontColor=#001933;" parent="zxlBYHo0lnK8-v2Jy7Ye-19" vertex="1">
          <mxGeometry x="672" y="500" width="90" height="50" as="geometry" />
        </mxCell>
        <mxCell id="Gp_YVxWlIurZ-KOiKA9H-36" style="edgeStyle=orthogonalEdgeStyle;rounded=0;orthogonalLoop=1;jettySize=auto;html=1;exitX=0.25;exitY=0;exitDx=0;exitDy=0;entryX=0.5;entryY=0;entryDx=0;entryDy=0;entryPerimeter=0;dashed=1;strokeColor=#003366;" parent="zxlBYHo0lnK8-v2Jy7Ye-19" source="Gp_YVxWlIurZ-KOiKA9H-15" target="Gp_YVxWlIurZ-KOiKA9H-38" edge="1">
          <mxGeometry relative="1" as="geometry">
            <mxPoint x="138" y="479" as="targetPoint" />
          </mxGeometry>
        </mxCell>
        <mxCell id="Gp_YVxWlIurZ-KOiKA9H-15" value="Notification&lt;div&gt;Service&lt;/div&gt;" style="rounded=0;whiteSpace=wrap;html=1;shadow=1;fillColor=#FFE6CC;strokeColor=#003366;sketch=1;curveFitting=1;jiggle=2;glass=1;gradientColor=#FFB366;fontColor=#001933;" parent="zxlBYHo0lnK8-v2Jy7Ye-19" vertex="1">
          <mxGeometry x="872" y="500" width="90" height="50" as="geometry" />
        </mxCell>
        <mxCell id="Gp_YVxWlIurZ-KOiKA9H-37" style="edgeStyle=orthogonalEdgeStyle;rounded=0;orthogonalLoop=1;jettySize=auto;html=1;exitX=0.25;exitY=0;exitDx=0;exitDy=0;entryX=0.5;entryY=0;entryDx=0;entryDy=0;entryPerimeter=0;dashed=1;strokeColor=#003366;" parent="zxlBYHo0lnK8-v2Jy7Ye-19" source="Gp_YVxWlIurZ-KOiKA9H-16" target="Gp_YVxWlIurZ-KOiKA9H-38" edge="1">
          <mxGeometry relative="1" as="geometry">
            <mxPoint x="138" y="479" as="targetPoint" />
          </mxGeometry>
        </mxCell>
        <mxCell id="Gp_YVxWlIurZ-KOiKA9H-16" value="Batch" style="rounded=0;whiteSpace=wrap;html=1;shadow=1;fillColor=#FFE6CC;strokeColor=#003366;sketch=1;curveFitting=1;jiggle=2;glass=1;gradientColor=#FFB366;fontColor=#001933;" parent="zxlBYHo0lnK8-v2Jy7Ye-19" vertex="1">
          <mxGeometry x="972" y="500" width="90" height="50" as="geometry" />
        </mxCell>
        <mxCell id="Gp_YVxWlIurZ-KOiKA9H-17" value="Mail&lt;div&gt;Service&lt;/div&gt;" style="rounded=0;whiteSpace=wrap;html=1;shadow=1;fillColor=#FFE6CC;strokeColor=#003366;sketch=1;curveFitting=1;jiggle=2;glass=1;gradientColor=#FFB366;fontColor=#001933;" parent="zxlBYHo0lnK8-v2Jy7Ye-19" vertex="1">
          <mxGeometry x="772" y="500" width="90" height="50" as="geometry" />
        </mxCell>
        <mxCell id="Gp_YVxWlIurZ-KOiKA9H-29" style="edgeStyle=orthogonalEdgeStyle;rounded=0;orthogonalLoop=1;jettySize=auto;html=1;exitX=0.25;exitY=0;exitDx=0;exitDy=0;entryX=0.5;entryY=0;entryDx=0;entryDy=0;entryPerimeter=0;dashed=1;strokeColor=#003366;" parent="zxlBYHo0lnK8-v2Jy7Ye-19" source="Gp_YVxWlIurZ-KOiKA9H-10" target="Gp_YVxWlIurZ-KOiKA9H-38" edge="1">
          <mxGeometry relative="1" as="geometry">
            <mxPoint x="138" y="479" as="targetPoint" />
          </mxGeometry>
        </mxCell>
        <mxCell id="Gp_YVxWlIurZ-KOiKA9H-32" style="edgeStyle=orthogonalEdgeStyle;rounded=0;orthogonalLoop=1;jettySize=auto;html=1;exitX=0.25;exitY=0;exitDx=0;exitDy=0;entryX=0.5;entryY=0;entryDx=0;entryDy=0;entryPerimeter=0;dashed=1;strokeColor=#003366;" parent="zxlBYHo0lnK8-v2Jy7Ye-19" source="Gp_YVxWlIurZ-KOiKA9H-12" target="Gp_YVxWlIurZ-KOiKA9H-38" edge="1">
          <mxGeometry relative="1" as="geometry">
            <mxPoint x="138" y="479" as="targetPoint" />
          </mxGeometry>
        </mxCell>
        <mxCell id="Gp_YVxWlIurZ-KOiKA9H-34" style="edgeStyle=orthogonalEdgeStyle;rounded=0;orthogonalLoop=1;jettySize=auto;html=1;exitX=0.25;exitY=0;exitDx=0;exitDy=0;entryX=0.5;entryY=0;entryDx=0;entryDy=0;entryPerimeter=0;dashed=1;strokeColor=#003366;" parent="zxlBYHo0lnK8-v2Jy7Ye-19" source="Gp_YVxWlIurZ-KOiKA9H-14" target="Gp_YVxWlIurZ-KOiKA9H-38" edge="1">
          <mxGeometry relative="1" as="geometry">
            <mxPoint x="138" y="479" as="targetPoint" />
          </mxGeometry>
        </mxCell>
        <mxCell id="Gp_YVxWlIurZ-KOiKA9H-35" style="edgeStyle=orthogonalEdgeStyle;rounded=0;orthogonalLoop=1;jettySize=auto;html=1;exitX=0.25;exitY=0;exitDx=0;exitDy=0;entryX=0.5;entryY=0;entryDx=0;entryDy=0;entryPerimeter=0;dashed=1;strokeColor=#003366;" parent="zxlBYHo0lnK8-v2Jy7Ye-19" source="Gp_YVxWlIurZ-KOiKA9H-17" target="Gp_YVxWlIurZ-KOiKA9H-38" edge="1">
          <mxGeometry relative="1" as="geometry">
            <mxPoint x="138" y="479" as="targetPoint" />
          </mxGeometry>
        </mxCell>
        <mxCell id="Gp_YVxWlIurZ-KOiKA9H-38" value="Log Management" style="sketch=0;pointerEvents=1;shadow=1;dashed=0;html=1;strokeColor=none;labelPosition=center;verticalLabelPosition=bottom;verticalAlign=top;align=center;fillColor=#505050;shape=mxgraph.mscae.oms.log_management" parent="zxlBYHo0lnK8-v2Jy7Ye-19" vertex="1">
          <mxGeometry x="138" y="480" width="60" height="70" as="geometry" />
        </mxCell>
        <mxCell id="Gp_YVxWlIurZ-KOiKA9H-52" style="edgeStyle=orthogonalEdgeStyle;rounded=0;orthogonalLoop=1;jettySize=auto;html=1;" parent="zxlBYHo0lnK8-v2Jy7Ye-19" source="Gp_YVxWlIurZ-KOiKA9H-40" target="Gp_YVxWlIurZ-KOiKA9H-45" edge="1">
          <mxGeometry relative="1" as="geometry" />
        </mxCell>
        <mxCell id="Gp_YVxWlIurZ-KOiKA9H-53" value="Sync" style="edgeLabel;html=1;align=center;verticalAlign=middle;resizable=0;points=[];textShadow=1;" parent="Gp_YVxWlIurZ-KOiKA9H-52" vertex="1" connectable="0">
          <mxGeometry x="-0.1515" y="-1" relative="1" as="geometry">
            <mxPoint as="offset" />
          </mxGeometry>
        </mxCell>
        <mxCell id="Gp_YVxWlIurZ-KOiKA9H-40" value="" style="outlineConnect=0;dashed=0;verticalLabelPosition=bottom;verticalAlign=top;align=center;html=1;shape=mxgraph.aws3.postgre_sql_instance;fillColor=#2E73B8;gradientColor=none;textShadow=1;shadow=1;" parent="zxlBYHo0lnK8-v2Jy7Ye-19" vertex="1">
          <mxGeometry x="387" y="627" width="60" height="63" as="geometry" />
        </mxCell>
        <mxCell id="Gp_YVxWlIurZ-KOiKA9H-41" value="" style="outlineConnect=0;dashed=0;verticalLabelPosition=bottom;verticalAlign=top;align=center;html=1;shape=mxgraph.aws3.postgre_sql_instance;fillColor=#2E73B8;gradientColor=none;textShadow=1;shadow=1;" parent="zxlBYHo0lnK8-v2Jy7Ye-19" vertex="1">
          <mxGeometry x="287" y="626" width="60" height="63" as="geometry" />
        </mxCell>
        <mxCell id="Gp_YVxWlIurZ-KOiKA9H-42" style="edgeStyle=orthogonalEdgeStyle;rounded=0;orthogonalLoop=1;jettySize=auto;html=1;entryX=0.5;entryY=0;entryDx=0;entryDy=0;entryPerimeter=0;strokeColor=#4D4D4D;" parent="zxlBYHo0lnK8-v2Jy7Ye-19" source="Gp_YVxWlIurZ-KOiKA9H-10" target="Gp_YVxWlIurZ-KOiKA9H-41" edge="1">
          <mxGeometry relative="1" as="geometry" />
        </mxCell>
        <mxCell id="Gp_YVxWlIurZ-KOiKA9H-45" value="ElasticSearch" style="shape=cylinder;whiteSpace=wrap;html=1;boundedLbl=1;backgroundOutline=1;fontSize=8;textShadow=1;fillColor=#cdeb8b;strokeColor=#36393d;fontColor=#009900;" parent="zxlBYHo0lnK8-v2Jy7Ye-19" vertex="1">
          <mxGeometry x="387" y="769" width="60" height="40" as="geometry" />
        </mxCell>
        <mxCell id="Gp_YVxWlIurZ-KOiKA9H-51" style="edgeStyle=orthogonalEdgeStyle;rounded=0;orthogonalLoop=1;jettySize=auto;html=1;entryX=0.5;entryY=0;entryDx=0;entryDy=0;entryPerimeter=0;strokeColor=#4D4D4D;" parent="zxlBYHo0lnK8-v2Jy7Ye-19" source="Gp_YVxWlIurZ-KOiKA9H-11" target="Gp_YVxWlIurZ-KOiKA9H-40" edge="1">
          <mxGeometry relative="1" as="geometry" />
        </mxCell>
        <mxCell id="Gp_YVxWlIurZ-KOiKA9H-54" value="Write" style="edgeLabel;html=1;align=center;verticalAlign=middle;resizable=0;points=[];" parent="Gp_YVxWlIurZ-KOiKA9H-51" vertex="1" connectable="0">
          <mxGeometry x="-0.0867" y="1" relative="1" as="geometry">
            <mxPoint y="16" as="offset" />
          </mxGeometry>
        </mxCell>
        <mxCell id="Gp_YVxWlIurZ-KOiKA9H-61" value="MongoDb" style="dashed=0;outlineConnect=0;html=1;align=center;labelPosition=center;verticalLabelPosition=bottom;verticalAlign=top;shape=mxgraph.webicons.mongodb;fillColor=#d5e8d4;gradientColor=#97d077;strokeColor=#82b366;textShadow=1;" parent="zxlBYHo0lnK8-v2Jy7Ye-19" vertex="1">
          <mxGeometry x="487" y="629" width="60" height="60" as="geometry" />
        </mxCell>
        <mxCell id="Gp_YVxWlIurZ-KOiKA9H-62" value="" style="outlineConnect=0;dashed=0;verticalLabelPosition=bottom;verticalAlign=top;align=center;html=1;shape=mxgraph.aws3.postgre_sql_instance;fillColor=#2E73B8;gradientColor=none;textShadow=1;shadow=1;" parent="zxlBYHo0lnK8-v2Jy7Ye-19" vertex="1">
          <mxGeometry x="587" y="626" width="60" height="63" as="geometry" />
        </mxCell>
        <mxCell id="Gp_YVxWlIurZ-KOiKA9H-64" value="" style="outlineConnect=0;dashed=0;verticalLabelPosition=bottom;verticalAlign=top;align=center;html=1;shape=mxgraph.aws3.postgre_sql_instance;fillColor=#2E73B8;gradientColor=none;textShadow=1;shadow=1;" parent="zxlBYHo0lnK8-v2Jy7Ye-19" vertex="1">
          <mxGeometry x="687" y="626" width="60" height="63" as="geometry" />
        </mxCell>
        <mxCell id="Gp_YVxWlIurZ-KOiKA9H-66" value="" style="outlineConnect=0;dashed=0;verticalLabelPosition=bottom;verticalAlign=top;align=center;html=1;shape=mxgraph.aws3.postgre_sql_instance;fillColor=#2E73B8;gradientColor=none;textShadow=1;strokeColor=#2e73b8;shadow=1;" parent="zxlBYHo0lnK8-v2Jy7Ye-19" vertex="1">
          <mxGeometry x="987" y="626.5" width="60" height="63" as="geometry" />
        </mxCell>
        <mxCell id="Gp_YVxWlIurZ-KOiKA9H-67" style="edgeStyle=orthogonalEdgeStyle;rounded=0;orthogonalLoop=1;jettySize=auto;html=1;entryX=0.5;entryY=0;entryDx=0;entryDy=0;entryPerimeter=0;strokeColor=#4D4D4D;" parent="zxlBYHo0lnK8-v2Jy7Ye-19" source="Gp_YVxWlIurZ-KOiKA9H-16" target="Gp_YVxWlIurZ-KOiKA9H-66" edge="1">
          <mxGeometry relative="1" as="geometry" />
        </mxCell>
        <mxCell id="Gp_YVxWlIurZ-KOiKA9H-79" value="" style="group;fillColor=#f5f5f5;gradientColor=#b3b3b3;strokeColor=#666666;" parent="zxlBYHo0lnK8-v2Jy7Ye-19" vertex="1" connectable="0">
          <mxGeometry x="1118" y="429" width="100" height="260" as="geometry" />
        </mxCell>
        <mxCell id="Gp_YVxWlIurZ-KOiKA9H-74" value="" style="rounded=0;whiteSpace=wrap;html=1;fillColor=default;strokeColor=#CCCCCC;glass=0;" parent="Gp_YVxWlIurZ-KOiKA9H-79" vertex="1">
          <mxGeometry width="100" height="260" as="geometry" />
        </mxCell>
        <mxCell id="Gp_YVxWlIurZ-KOiKA9H-68" value="Mail Server" style="rounded=1;whiteSpace=wrap;html=1;fillColor=#d0cee2;strokeColor=#56517e;shadow=1;glass=0;sketch=1;curveFitting=1;jiggle=2;" parent="Gp_YVxWlIurZ-KOiKA9H-79" vertex="1">
          <mxGeometry x="10" y="30" width="80" height="30" as="geometry" />
        </mxCell>
        <mxCell id="Gp_YVxWlIurZ-KOiKA9H-69" value="Notification" style="rounded=1;whiteSpace=wrap;html=1;fillColor=#d0cee2;strokeColor=#56517e;shadow=1;glass=0;sketch=1;curveFitting=1;jiggle=2;" parent="Gp_YVxWlIurZ-KOiKA9H-79" vertex="1">
          <mxGeometry x="10" y="71" width="80" height="30" as="geometry" />
        </mxCell>
        <mxCell id="Gp_YVxWlIurZ-KOiKA9H-70" value="Redis" style="rounded=1;whiteSpace=wrap;html=1;fillColor=#d0cee2;strokeColor=#56517e;shadow=1;glass=0;sketch=1;curveFitting=1;jiggle=2;" parent="Gp_YVxWlIurZ-KOiKA9H-79" vertex="1">
          <mxGeometry x="10" y="110" width="80" height="30" as="geometry" />
        </mxCell>
        <mxCell id="Gp_YVxWlIurZ-KOiKA9H-71" value="Kafka" style="rounded=1;whiteSpace=wrap;html=1;fillColor=#d0cee2;strokeColor=#56517e;shadow=1;glass=0;sketch=1;curveFitting=1;jiggle=2;" parent="Gp_YVxWlIurZ-KOiKA9H-79" vertex="1">
          <mxGeometry x="10" y="149" width="80" height="30" as="geometry" />
        </mxCell>
        <mxCell id="Gp_YVxWlIurZ-KOiKA9H-72" value="Stripe" style="rounded=1;whiteSpace=wrap;html=1;fillColor=#d0cee2;strokeColor=#56517e;shadow=1;glass=0;sketch=1;curveFitting=1;jiggle=2;" parent="Gp_YVxWlIurZ-KOiKA9H-79" vertex="1">
          <mxGeometry x="10" y="190" width="80" height="30" as="geometry" />
        </mxCell>
        <mxCell id="Gp_YVxWlIurZ-KOiKA9H-75" value="" style="endArrow=none;dashed=1;html=1;dashPattern=1 3;strokeWidth=2;rounded=0;" parent="Gp_YVxWlIurZ-KOiKA9H-79" edge="1">
          <mxGeometry width="50" height="50" relative="1" as="geometry">
            <mxPoint x="35" y="240" as="sourcePoint" />
            <mxPoint x="65" y="240" as="targetPoint" />
          </mxGeometry>
        </mxCell>
        <mxCell id="Gp_YVxWlIurZ-KOiKA9H-77" value="Third party" style="text;html=1;align=center;verticalAlign=middle;whiteSpace=wrap;rounded=0;fontColor=#003366;fontSize=9;" parent="Gp_YVxWlIurZ-KOiKA9H-79" vertex="1">
          <mxGeometry width="50" height="20" as="geometry" />
        </mxCell>
        <mxCell id="Gp_YVxWlIurZ-KOiKA9H-83" value="" style="shape=mxgraph.gcp2.doubleRect;strokeColor=#9673a6;shadow=1;strokeWidth=1;rounded=1;absoluteArcSize=1;arcSize=2;fillColor=#e1d5e7;" parent="zxlBYHo0lnK8-v2Jy7Ye-19" vertex="1">
          <mxGeometry x="60" y="589" width="138" height="68" as="geometry" />
        </mxCell>
        <mxCell id="Gp_YVxWlIurZ-KOiKA9H-84" value="&lt;font style=&quot;font-size: 10px;&quot; color=&quot;#000000&quot;&gt;Microservice&lt;/font&gt;&lt;br&gt;&lt;font style=&quot;font-size: 9px;&quot;&gt;Monitoring&lt;/font&gt;" style="editableCssRules=.*;html=1;fontColor=#999999;shape=image;verticalLabelPosition=middle;verticalAlign=middle;labelPosition=right;align=left;spacingLeft=20;part=1;points=[];imageAspect=0;image=data:image/svg+xml,PHN2ZyB4bWxucz0iaHR0cDovL3d3dy53My5vcmcvMjAwMC9zdmciIHhtbG5zOnY9Imh0dHBzOi8vdmVjdGEuaW8vbmFubyIgd2lkdGg9IjIwIiBoZWlnaHQ9IjEzLjUyOTk5OTczMjk3MTE5MSIgdmlld0JveD0iLTIuOTMyMDk3ODk3ODEyMDE0ZS05IC01LjI1ODAxNTA0MTgzNzk1NmUtMTUgMjAgMTMuNTI5OTk5NzMyOTcxMTkxIj4mI3hhOwk8c3R5bGUgdHlwZT0idGV4dC9jc3MiPiYjeGE7CS5zdDB7ZmlsbDojNDI4NWY0O30mI3hhOwkuc3Qxe2ZpbGw6IzY2OWRmNjt9JiN4YTsJPC9zdHlsZT4mI3hhOwk8cGF0aCBjbGFzcz0ic3QxIiBkPSJNOC44MyAxMC41OGgyLjMzdjIuNjRIOC44M3oiLz4mI3hhOwk8cGF0aCBjbGFzcz0ic3QwIiBkPSJNMTYuNDggOC42MWEuNTYuNTYgMCAwIDEtLjQtLjE3TDEyIDQuMjEgOS4yNiA3LjFhLjU3LjU3IDAgMCAxLS43Ni4wNUw2LjQyIDUuNDdsLTIuMiAyLjkyYS41Ni41NiAwIDAgMS0uNDUuMjJIMHYxLjcxYS43NS43NSAwIDAgMCAuNzQuNzVoMTguNTJhLjc1Ljc1IDAgMCAwIC43NC0uNzVWOC42MXoiLz4mI3hhOwk8cGF0aCBjbGFzcz0ic3QxIiBkPSJNMy41IDcuNWwyLjM4LTMuMTZhLjU1LjU1IDAgMCAxIC4zNy0uMjIuNjMuNjMgMCAwIDEgLjQyLjEybDIuMTIgMS43MiAyLjgtMi45NGEuNTQuNTQgMCAwIDEgLjQtLjE3aDBhLjU0LjU0IDAgMCAxIC40LjE3bDQuMzMgNC40OEgyMFYuNzRhLjc0Ljc0IDAgMCAwLS43NC0uNzRILjc0QS43NC43NCAwIDAgMCAwIC43NHY2LjgxeiIvPiYjeGE7CTxyZWN0IGNsYXNzPSJzdDAiIHg9IjYuNjciIHk9IjEyLjkyIiB3aWR0aD0iNi42NyIgaGVpZ2h0PSIuNjEiIHJ4PSIuMyIvPiYjeGE7PC9zdmc+;" parent="Gp_YVxWlIurZ-KOiKA9H-83" vertex="1">
          <mxGeometry width="30" height="21" relative="1" as="geometry">
            <mxPoint x="15" y="19" as="offset" />
          </mxGeometry>
        </mxCell>
        <mxCell id="Gp_YVxWlIurZ-KOiKA9H-86" value="" style="image;sketch=0;aspect=fixed;html=1;points=[];align=center;fontSize=12;image=img/lib/mscae/Docker.svg;" parent="zxlBYHo0lnK8-v2Jy7Ye-19" vertex="1">
          <mxGeometry x="1048.6100000000001" y="564" width="25.61" height="21" as="geometry" />
        </mxCell>
        <mxCell id="Gp_YVxWlIurZ-KOiKA9H-87" value="" style="image;sketch=0;aspect=fixed;html=1;points=[];align=center;fontSize=12;image=img/lib/mscae/Kubernetes.svg;" parent="zxlBYHo0lnK8-v2Jy7Ye-19" vertex="1">
          <mxGeometry x="1019.5699999999999" y="562.5" width="23.43" height="22.5" as="geometry" />
        </mxCell>
        <mxCell id="zxlBYHo0lnK8-v2Jy7Ye-1" value="" style="shape=image;verticalLabelPosition=bottom;verticalAlign=top;imageAspect=0;aspect=fixed;image=data:image/png,iVBORw0KGgoAAAANSUhEUgAAASwAAAB6CAMAAAAyA54ZAAAC9FBMVEVHcExEv746vbk/wL5E09E5w8EutbRJy8g7vbs8xcNAv743vLs1xMI+vbwwwL5Pz85CwsExu7kvvLpJw8JDv74uwr8YtrNWxMNGwL46wcAzwb8qwL4mxsMbQWNX0tFNwsBJwL8sjpQtcHoodn8jbngkanQjS1okS1oiTFtTtbkwiI8jQ1MhQlMkRVUjR1cnUGAlTFwjSlosv75SxcRDyMYiRFQjSFgkS1omk5cyy8hAxsRf0tFSwsEljJEdvLpNxcNYxcQ3iI8kwL0ht7UXu7hm1NNbxcVWw8IctrQz0c9CxMIsTlcjS1gjS1ojS1ojSFkiS1ojS1kjSlkiSlgeSlROy8klubcVvLkfpqYogIcpeoI6pKZNxcNZyccjS1ojS1okSlokS1klTl4mT14mT18lTVwjS1okS1sjS1okS1ojSlkjS1kjTFllxMReyMdSy8gpubgWtLIUuLccy8kiQFAkTFsjSlkhS1gcPl0hSFcjS1ojSlkkS1okS1kmUGAnUWElTV0kS1slTl0kTFsjS1ojSllr1NNlx8dfxcUQurdiyskjS1skS1ojSlkiS1glTFkjS1kjS1ojS1ojSlojSlkjS1okTVwkS1pqyspXzMs+jZMJsK4PxMEcv7xu19YjS1omT1cjS1ojS1omSVYjS1okS1sjS1olR1Ztx8dczcw+lJozlZoFxcEtnKBEpahryskjSlkjS1okS1kkTFsjS1okS1l02NcnXmopgoojf4YdfoQbdX0jTV0jS1knUmI0w8MkSlokTFwjS1olQ1NNrrB85ONxy8kkS1oiSllrx8dpzs1PwsAkTFwjS1kjS1okS1oaio8VlJgVhIojS1oUjJEeoqQsqatgxMEkTFwnUWIkS1oOurcA2c4HysoRwL4jSlojS1oHrq4hSVojS1ojS1oYuLUcvLpaysojS1okTFxawsIYu7gkpKcvsLFNychUwcEkTVwoxcMkS1oxwL8kS1odvbokSlpKv70qw8A+vLokSlkjSlpwCBneAAAA/HRSTlMAiESb//JD//////////X///9M////VIn//////wH///////3//bSxIwX/////////XXL///////v/pP////6u//////v///////8EESYxPkE5LRsI////cv////+ujdXo9//////6797EnXE7ev////9y////NhUGDlSZ2P3//////+KrY/////6u6tK5KiDxyaV1SUTnUP///2H////lH+xrC2fNaQl5////ZP//r+OhNNvWWP////7//6Wt/whg/U3///+cbxiC5jzfiMCC///kZcf//y75/3/tLhLH9JE1DbyVPLvle/Zw77b/7zX0tqi3he0vbu9d4dBiR9WoAAARq0lEQVR4AezSwxrkQABF4bZt27Zt28bYxttPJ2NXdo0627D+7+L+FJ6AgwFGJJEpUAHQikqjQy2w8FQGjckC1IJWbBqTyeJArf9bcXkoFp/FEUCN/1kJRZ+x+GKxBHr8KylXKEOw5CyFQqlCtdRQ5S9WGq3uhMWg6w1Go9FkMFusVhuWFxDsN2WFYNEdTpfT6XS7PV6fH8sLAiTi7VgFUayQIxyJokUiMQEWqzidlLDfhlUymEKwQg7nVyt3WpWRYLBiyXmkrP0mrHIpBCuU/7orjztdKGZKEnArhZzH496AlrRcqZ6wtNT8t10hVsUaqFagHo/H6byGUJNtXqRAq93p9nq9/mA4+r9VDsEaI1Zfd6WcnLBqUyCtWXo+ny+WIZ5wpVlf2LaaA//Gst3to4fj8c7de/cfPHz0+Enrr7c/LT9DsZ7nXd+s9OIXKNZLEK1Xr9Nv3jjfvF1Shatg8nct9bvuXxvY3oNs8UP/by941x5+/MStPYA30vwBHJ+/8RpnK+2LoNyzbZvZ3bPvtu5OmkNt2+3Ztm3btvXonSQ7291ms023efl9cAo/mfllcg1Qmreff0AgC1m9QccEoSfOMLSRglp6ztx5/aSt5geHIKxOpaw4rBmhoZXLsqrZtmZjtYZRM8MGDHdr3SGstJZPOEXbihkzOiJypEtUGWLRY0haOh0RMz42Lj7BG5S3WokTkyioZwirGAOrHTc32UfCKiXEhJWaxltp6lX6hsdCWunyVhmZLZGWxpPRMMO+cms9Nau0lk82ydhMZ9BTkA2MGNmrFrBdToyRsRVaDCzU50bmRYNylF9QqIcGwmY0S40qKgaiFmSlBJuwFi7iz1f04iaVKtWo0bZtZmbmoEGDQjMylgDbLcnIyMxsW7PJUtqTUDPLUlt3nJq1XKzls8JIlBGjh8bCgmIZLJqQLYhmYczKVcDOfIpWsxRDyEfCNWtFVutSgk1YyEpDWNKs/3HDENRG1CZTmzdv3uJv3cqtqLlODTc3NNdgG8L2QFodpwavW77dfiwcQ2kjdijCwtFw55YewJ52FUJ9aW0GFVSai3JyFlshrKlpeF2hPH/C7eZSa6FEWhTUqtG/my9svgEPzz0Lpwan7N1XfiwUyaqclWOhGDhuPyizAytJSryszTMehX5D0SJCmOQHuA7yWGhg8ak9PDzUgnYTLGWKtE5PGdQaU2qCIVA/128+dWpw1qHDklhMqQirYFKiPFZZt2CAccVlLasjkBHOJnZsgNPRvOTeqF15I4+Fk1rhKNOTx3ktvA35pYW24eJ69eq1MHfC3MlTefNOnz7ttyvZql3JZ86aO7d0G9rHs+u7pXYMmX/oPJDGCmJEkRTFQpIWLn7ywlp5rCAhFW26AdYoMrt4rDuQ65KeFG793LnzxG/FB5InhmtJ4Wr1r4W1LAO+Y6pgI/7Y5HPLgG/ZEs330IzLV4Dtrl6bZRrwlRqarYZPa92xg9iKx2J0LqtEeSUm7Di+MjYGDXeCz3iht20s3fVdoluYnOi3/4ZqfCDL6gi+bZEy55DiLRdpnoE1Hpt3QOr4VVTICkS3xQFeK5g7OvBvhz9tqC44Ogy6fBMAea2WbWs0mm2y+m6AW6dmyEoai5aevv0SbqwWPDYyu59NLHqc1Krp37NINRbqSrSOAlvdur2NwFF6VaLNc71LBKRLtO7wWvhQmuahwVpD+EMpsroL5Lt6b9bARrM9PWfX7zp8ePNm95GVDayeNg896LHp+H3kZBsrJgdI1/fOBYofQ8ZeQDrfYxcJLh0s3AVkKn7wkOK14CW8Ex/hjzuLNCVaNTgsOSvc9nsbNCRF1P/a/bs6tbGVnVi44ks7jfwgSSw3FsprAiS42NhaNqz4i1AXjvsA+bwiIIbdpuIv/KjZVMsHaZGWGSvzsZwVrvhJjadPn1br+vV3Xz17DpRgoXa9wFrsbSVYoP/KEooEIFEtFb+u4OreoMy6O1lukDRyCwtrmbDEWm0HtrPPCrX9ZZfP0X/+fT3g2WGgFAskXMDveLqeCrBQryDmVgGJbmzjrY71A3ZUy8wPj4jpHy1sbcKq+5/FQq129lohrdddqlf7/3+QlXIsMEmLn8sbZVj5ayhual2XwNihZfBU3Nof2NdWqINO+LaEWgirqrtAa2PNt8jKfq1q7thKIRaI5Z4rFasMCySQnAdrfVrrwW9zOFd8tpDlZx8Aqx6lupmwvhdoqTdiK/u0/vkvbKUUyw8vjJgDyrDABIrzuGG1pSbw61aFrOztXQIA0loI6/9Ia7bls57WMNG3PFpN/w4qiJWfbXnxGeNkhVhFnAh122qP8/NsVHdQ4d5PG27C+uJ/ixsMRW1ocOfOnSigPAVYIA4/VxeFWFFjLftQv7rU6uk3zkCYM7zoCxzQ+wElP76v1OQD3oO/JVY8y7368Qqxuo03WkhGewNR/typIYgtAMBBWvwXQ5DV74CVTOG3Q4VY4JiFWxcTLV5xD2k8sICDev+frl+YsaqjL2j9HlgJFcZScVhjnIGwidzEol84A4dpuXc1YeGvZ/1lsKKv44V1FDiuj127/hdb/Q5YfmyFtyFFSFzwEiS4UdYdOFTrf//7F7L6fbAecFhapQO+/yduwGcLVXxW67kX4ThwaB/dqyGr3wlrKz46+CnE6ouPDgHCo0MiSfDrzaHV+vhLe2cMlLjTxuG371tasQtW9jWqCNbIhQ2i2kZF73Zj1EpEUdVSFTzaU8/udE4bKDwsrgEaHaXQzmGcK87mU8mbwCeaENj/zA08pYcb8pjsJvv+du9dV5OePX/p9pnSdXrdx0HWTaD8MCSfeW3KGkPbS1BBUbsLaQmajMPhgBr0jt3uKkygrwhMvBop/AEd794ryUhDso6pViQID9qUtY8jhB8MBsOipnAL/gvWnTlGJLmyqElYaOkcNMZO6TN5tbcRWW79VEfBnix8TqvWMqB9cTUQAf54skRw1ajSUbI0oL2TURywG5B1x/S5O3uyerAjV3Z7wGBNa1dYBe5ErhU6+07RnOYe3c2SNX3m0lx9n7Ily9GBtlmVlnmtI6M/gTcT0VO58nKSnjF+IOWzO82R9TOn4KkugB1ZmQ5BLzH3g4Fbu95coRhw5viBVsY3qHw1PLwSCgpUP7WLvibI2jkg2CB9ctuRNR02ChZLUEHnJ6ncZYXdwJekqOrFI0F6uu4aWPb5fN71tZNtQuXyV9vsg73GZHUWAnpJXVL6oX5ZG04S1K/23B+owCPqE/N8+annJGThfmbcDQY90065fNGRzUyXJVm1/9W74FwxklKz+QLUWWSd9Fzuq1Q2WliDShao/jjBlX69HxGDJS8gyHhH+WZkt2uquaxZea0qLbHh2Toe83eEQ5RKFcX3EnxUvv9d2cT4+tZCYTS+q7KgbAw6WG1HCti/7wFPMnP43CJsTkMtkiuk/Bf/YiJLM14BEcXgm1iHfDrvfl9WdRMkKIqECCwoVbWQL7kBaj2/k3PgiVMfiuOdUJu+z8Krpm4TWdYQadFhL5+FiMT/3ly1Mg4cOabo6vYG3sP3hJ9qWJbENn8CNCJLYhdv74D58heUv/wBfkT+auOLEE/A+/iOSDNkySJ7KPqgEVkqe7jOwBtK/GUZbwni9g58xMS91JisWVkhTD167AWwLUtWBDrnxxb+c1kRLOKJ52ZWqUVZtROOsto9d/voSQFiLSaJSIpIGJPmVo97AD6U5QVu/Gb6FIAJ7idiTZZLqgBHQdKxEcPTNJeFTeh0XwW+Z4t7AxFA3u2z+oAXWAmXhn1gxpYlWbJ03FfBnlh+O1cvEgAWZUlX633/R2zZbD3LgTYaih7gBdZ2rTz3Op6IJVm9UMkS1TItB9ZlDU9C3fiZPlfNi3T5EHKo19pYUP+7YSzn0vosD5hhZdbBtMw9Brw4ETBhYYHekKt+Wcaf/MnNUxY+LrIicALnrVkarBAN2pAVmcMK1RpPWTirTLLAic5PrnKd5RCsMMpsyIIufBFZWeYoK6ONpAq3KfgNdbZ8gBuwQtrefFaWYhaPoyx4CmpzvAPAhy5SHm7jYIlzYkvWIfbxwXWOskaZfrfzIa3N6znBEuOKLVkwg3385xQ/WQsCzjbzlGW9hvvni2xL1uSiqj1s3XGRhY+MmGH+p2XBVwxO3ce4yXJg8VZIAhfGNFknYAmvXVnufYqRPG6y9MQRGQEufKXYPKc+C+lXZG3FzjQ3WX1n2jHOJoAH0+XhVv02aO3jxK4sWNX+7MFwgpcsIx6/Cjw4lOR6qrh31LYs34qCEUZusnA8lHMx4MDkrlJPPqAk2Jalz8hKOS8vWTfb+GLl5DmdZa2HT31T7MuaGsLB6paXLD2gMxtcBw74mb6MxpwN0eIUjcnypC5esnoCKj79JqD5bGgTmewOzDkQGpGl1yfFuR5OsoylO2wGmk8qLGq1nQiYgDFz27J6sT6Uv+YlawqXIsqkC+ojBub8YphJt/imal8WXGoNyKEJTrJgQ5RxpdME1MPWw6MbzOjNSdqLiFlVxHMmNygrEcZ67ggvWVDERb9krrOuvAdlWS+YsarP+ibgIybxTO3Lgmkyq9la4CUrMSSgrSPrttzZ59+iw0kwAXsSk6m5qSXW3bAsvdSjBiY5yYI+Y3l/+A9YpLyiX6GrPviYy7yFEWTqBF01JMubc+GxeMmCY4KRa7K4BZaYYdoVf+o0K1pEKe6Y8SMBtdnJoqvGZMF1XjvW2TgvWXCnZzFFteAAU1I/8Bek3ASY4DUWrMdrn+jWHCt7aFhWzzdcBrHv4CULfum2ZJY9BBNiI0z/9J6VC1fCC/fhLvK2tQNRLE9BOs8aj3brq+PTfGShLQ2a8/vgAxx7w1RPXhatTZiiLYkdjVU17hg/CGmHPk0fk4ZlwYj23ZRhHzdZcEkVI/m2+NgJ77EV1z8pmwUMkLGgio2LbLiU7Mu4ARw9sa3rJwmXqJyewG/auKwBRcZZJ36yIJkj3YjCrua3euAtvuQIIUZKdRQs0vVAK7d8kxc/R6ND26GKDT5Pb1NWc/DWXgRkcYOfLOg/yssVZ0S2V78eToJBZiDt3BUqjJJfYJnDaN5VmbATg0FRqVyPsppq0kKnzK52FdPoFD9ZkPlBxG4DhVI5EHcWH5/5Ndqxvyuxyqg5fViAOri5xr6pBsJZAaApsjC5g+VQDrKQrjkmVWcsCaXsBUqqg+JKPj4B9THhlJhUe2vRkX5oniyMEOKOArxkQeb6nlna+HT4bhDqZnz1gRHpzaa18S4HNFEWeLAjZCecZCGxmXummqm6n+kFW3Smb4eDjBJRVVUxSBiVvxf7QcNE1i5VnwmSQzCjdKq+Ip5OQyXLIaI+Q0LL0Cxi/jlcB1MDmbDFohfs4zsvHIwMhcPho6cO/2+vG8CirPhF+IWLGJixM3QRLn92aarq0NGL159GfdA8Iscnu4SJUo1Nu1ko+zUDjZNIJKYAQZJlWVc1ZUEqkXomkXCAKVOJ1CuJHketJlLQXDLHM08rovB6xyiKoopEYNS17UzHgBeY21QWM/DvsbyeLp6MDH0LBAJ/oyMlf9fEDXAE56DVvzfwr+JOJRKJQQcAf1ZfrywSdUAbiyVZsgRtTIksKlbD023GlVlrOfA2mO2Q1Q1oY8oIsZqLaNMXkjEm2ML4psEKJYYZkhbmJi6sgykY/cctwlqTwQ4m7h6CGe44wW3cWxfH/OlL7dZjefHjOrQqWOYPPpjkmdJE278nCy1LaobJWnWj2APvc6kFCKSzQ2hZMrtG7frzNLzDzjzWMk4foYXpm6PGBi+301Pwlkh6E42yWze0Mp3RfDdCSLRwWK1jsN//TVDQVXQSWpvJDmaUV0XWHR39uu71ZTIZn/c8vfpZMsoj7HsntDqOS4lU/8926perF76ojIqyselVNgPQxrPPlKrCh+ySJMkly90GhMwMwjNtBu82UVdtlPzRMWi08f0KMCLXNiUHWaAQgTYGk8nbnEBV1/+JkghTntbejIJtepOl8CciCAJ5hQkvSa3s5bgbatHGsTP+s1A8eaF0XUhuxBLQUvwPiYRJZB3Xyl4AAAAASUVORK5CYII=;" vertex="1" parent="zxlBYHo0lnK8-v2Jy7Ye-19">
          <mxGeometry x="967" y="567.86" width="45" height="18.27" as="geometry" />
        </mxCell>
        <mxCell id="zxlBYHo0lnK8-v2Jy7Ye-2" value="" style="shape=image;verticalLabelPosition=bottom;labelBackgroundColor=default;verticalAlign=top;aspect=fixed;imageAspect=0;image=data:image/png,iVBORw0KGgoAAAANSUhEUgAACAAAAAOnCAYAAAC0uaacAAAABGdBTUEAALGPC/xhBQAAACBjSFJNAAB6JgAAgIQAAPoAAACA6AAAdTAAAOpgAAA6mAAAF3CculE8AAAAB3RJTUUH5QEfBjAGje+hnAAAAAZiS0dEAAAAAAAA+UO7fwABPRFJREFUeNrs3Wn8Z2ddHv7ZspAQOGTmfM913WEJm4ggu1JREARUlr+KLQqiUBFta1EK1oIrYpFSRBTErQVpQdBqC0gRREUKQjEgO8giiwKyh0ASyDaZ+T/IOCVkQiaT+c38lvf79boeAAmQ+V6f+8nnPuds2waHYZqmHcuynNxlOX0kS9sbjvZmo/2aLMt3NnlYk38/kmeO5JltX9HkDV+SD4x272j3HyLnfdlf+4Ymf3nwvyv58SYPzbLcZ7RfM9qvanujkaySXHdZlpOmadruVwIAAAAAAACALzPP87WT3Ggkt23yrU0e3PaxI3n2aP+47ZtH+/GvsNRfy5w92reO9n+2/dUmP9H2wU3uPZKv67LcOMlpfkUAAAAAAAAAtpzdp59+ykhu2/YBo31M26e3feFoXz/aTx6nRf/VzSdG+5aR/PFof320P9b2O5Lcfp7n3X5lAAAAAAAAADadJCckuUWTBzX5z+OyZf9Zo/370X5xAyz7DyfnjfaDo33DaF86LntbwA90WW6WZKcWAAAAAAAAALBhjWW5fdvHNXn1aD8w2k+N9oJNsvD/Stk32gtH++nRfqDJn4/kP3S1us00TSdqBgAAAAAAAADrUpKdXZbrjvamTR7Y5Fmj/fCBRfh+OXgpYN9oPzGSZze532hv2GU5LckOLQIAAAAAAADguJimads8z9du+zVtHziSpx94yt+y//AvBLxtJE8Z7QOb3CbJaZoFAAAAAAAAwDEzluWGbb+37a+N9lWj/ayF/jXKuaN97Wif0eSBSW6oZQAAAAAAAACsiSQnNLldk58a7ctH+1GL+zV5K8BHRvuK0T4hy/L18zzv0j4AAAAAAAAAjoqxLPdq+7zRfmi05x1YVFvYr+1FgC+M9h9G+8Ik95im6WRNBAAAAAAAAOCwTdO0bVmtThrt9Zt8T5OzRrvX0v+45pLRvqnJD3ZZbtLEZQAAAAAAAAAArlySk0fydU0ePdqzDiyeLeDXV94+2seM5GuTnKa1AAAAAAAAAByU5KSRfN1of360b7Zk3xCfCHht2yc1uWuSU7QYAAAAAAAAYAtLsqPJrUb75NH+zWgvsFzfULlgtG9v8vQkd9JoAAAAAAAAgC1omqZTRvLI0b5jtF+wTN/wFwE+2OSJSa6n3QAAAAAAAACb3FitdnZZViP54dG+d7R7Lc833acBPtTkkV2WG4xkp9YDAAAAAAAAbDJJrtvkASN5yWi/aFm+qXPRaF/V5F+M1WrWfgAAAAAAAIBNYJqmE9reebS/NtqPW45vqZwzkt9qco8kJ5kGAAAAAAAAgA1qrFZLl+Xfjfas0V5qIb4lc8lo3zbanxnJMBUAAAAAAAAAG8g0TduXZbn9aF8y2nMOfBveMnzrZt9oPz/aVza5lwkBAAAAAAAAWOeS7GyyNPm50Z5r8S+HuAhwcdsnr1arG8/zvNPUAAAAAAAAAKwzY7U6dST3bvKK0e617Jav9FmAJq9qcr+RnGZ6AAAAAAAAANaBaZq2Z7U6YyQ/Mdq/He2lFtxymPnAaB+/LMtNTBIAAAAAAADAcbZarb6myf8Y7WcstOUIct5oX5rkjqYJAAAAAAAA4DgZyXeN9l2jvcQiW65B9o72rU0ePE3TiSYLAAAAAAAA4BiY53nHslotbZ8w2rMtr+Uo5rNNnppluXGSHaYNAAAAAAAAYI0k2Znkjm1/d7TnWljLGuSitn/c9htNHAAAAAAAAMAaaXv/0b56tBdbVMsa52+a3H+aphNMHgAAAAAAAMBRMk3TiU0ePtp3W0zLMcx7syyPnOf5uqYQAAAAAAAA4Bo6sPz/8dF+ZLT7LKXlGGbfaD85kieO1Wo2jQAAAAAAAABHYKxW27MsN2jyjNFeYBktxzF72z6nyY1NJgAAAAAAAMDV1OSrR/L80V5kAS3rJP97JF9tOgEAAAAAAAAOU5Kbtn2RhbOsw7y87TdM07TLpAIAAAAAAAB8BW3/2WhfONq9ls2yDnPxaF/b5D7TNO00sQAAAAAAAACHMJK7jPbVB5asls2yXrN3tG9JcvdpmnaYXAAAAAAAAIADRrJzJN882jeNdp8Fs2yA7BvtB5PcyyUAAAAAAAAAgANGcrfRvsVSWTZgPpzkbj4HAAAAAAAAAGx5B177/zcWybKB89Ym3z5N0y4TDQAAAAAAAGxJB177/5rRXmqJLBs4e0f7xib38SYAAAAAAAAAYMtpe8vRvnS0l1ggyya5BPDXTe5ougEAAAAAAIAtIcmOJF/T9sWe/JdNln2jfc1Ibm3SAQAAAAAAgE1vWZYbtP2flsWyifN/217ftAMAAAAAAACb1jzPpzd5+mgvsiSWTZ7/muQGph4AAAAAAADYdKZpOrHJY0f7Bcth2QI5r+2T5nm+rukHAAAAAAAANpXR/pvR/qPFsGyR7Bvtp5o8dp7n05wAAAAAAAAAwIaXZNdIvnu077cUli2YjzX5/tVqdaLTAAAAAAAAANiw5nnekeROo32NRbBs4by37Tc5EQAAAAAAAIANa1mtlrZ/aAEs0r9MEqcCAAAAAAAAsCE1efJoL7H8Fen+0T4zyWlOBgAAAAAAAGBDaft9o/2spa/IwXx2tI9xOgAAAAAAAAAbwjRN28ey3HW077PwFblC/q7tdyXZ6bQAAAAAAAAA1rVlWW4w2heP9lLLXpFD5hVNbjlN03YnBgAAAAAAALAutb1u258b7TmWvCJXmkva/kqS6zo1AAAAAAAAgHVnnuddSf6/0b7fglfkKvPpJt+bxOEBAAAAAAAArC+jXUb7Wq/+FznsvCfJyukBAAAAAAAArBtJdo7k1y3/Ra5W9jV5bpKTnSIAAAAAAADAutDkrqO9yEJX5GrnM01+YJqmHU4SAAAAAAAA4Lhqe2bbV4x2n2WuyNV/C8BoX5Pk1k4TAAAAAAAA4LhJcq3RPn6051rkihxxvtD2l5Kc5lQBAAAAAAAAjou29xztOz39L3KN88Esy7f7FAAAAAAAAABwzCXJaJ8z2kstb0WOyqcAXjySM5I4YAAAAAAAAIBjo+2uJg8Z7XkWtyJHL23/VVuHDAAAAAAAAHBsZFmuP9rXWNiKHPW8L4kbAAAAAAAAAMCx0fbfjfYSy1qRNckvOGUAAAAAAACANZdkz2g/YkkrsmZ5b5I7OG0AAAAAAACANZNk10ieONq9lrTrNvtGe/FoL/ySfPHL/vXFB/46f17rMxc1+a0kJzh1AAAAAAAAgDXR5JtH+/cWtOsiF472k6P90GjfOtrXj/YVI/nfTX6jyS8fyH9q+wtNnvwl/95vjPZFo33FaF832rcf+F0/NdoL/Nmui7ynybdN07TdyQMAAAAAAAAcVUlOO7A4vtBy9rjkktF+dLSvbvuc0T5hJD84kvuP1eq2Sc44kt91Nc8dy3LHkXxnk0eM5PGjfdZoX3XgUsBF/uyPS/aO9tldlpXTBwAAAAAAADiqmnzLaN9lMXvMl/7/t+3vNPnxtvdv+7XzPF9nLX/rA5c9bjWS+7T90bbPHO1rXf445vlwk/tM07TDCQQAAAAAAAAcFUmu2/aXD3w73mJ27fOp0f5ekvu1vXmSPfM8n3CcfvtdSU4fyc2yLA/oZW8H+Kjf6Jjk0pH8zkhOdwoBAAAAAAAA19g8z9ub3HW077eQXcNFb3t2kz9r8q+WZblR22vt2bNn3Xz/fZqmbfM872h7cpPrt/2+0b5stJ898KYCv+Pa5PNZlm/avXu3wwgAAAAAAAC4ZrIspzZ5okXsmuTi0f5Dkxcnuc+G60ayI8k9m/zeaD/oDRFrkya/nWS70wgAAAAAAAC4RprcYrTvs4g96k/8/+1of6PtA5JcZyN3JMl1mtx/tL822rf5fY96Ppfk5k4jAAAAAAAA4Bpp+x8sYI9qLmz735rcPcl1N1NXklxrJHdt8lujPdtvfVTfAvCLTiMAAAAAAADgiE3TdMpo32MBe9TypiYPTZLN2pl5nrdnWXaP9oEjef1o9/rdj0renuTGTiUAAAAAAADgiLR9qO+6X+PsG+1HR/vUJjddlmXnNE1boTs7V/O8eyQ/MdoPH/jsgT4cec5r+7gkO5xMAAAAAAAAwNWS5NQmf3lggW0Be2S5aLSvaXu3Ld6l2zR52WjP1YlrlFc1uYHTCQAAAAAAALhamtzzwJPbFq9HlnOa/O5qtbrJVu/SNE3blmW5ftv/NNqP6MYR5yNNvsfpBAAAAAAAABy2aZpOGMnTRnuhpesR5UMjedyyWmWapu0adZm212vy/U3e7JMAR5RLRvLrY7WatAkAAAAAAAA4LG2/ZrR/ZeF6tbNvJG9rcv+RnKZJVzTP84nLanWH0Z6lL0eU14/k9poEAAAAAAAAXKV5nrc3+Te+135Ey/93LKvVrZPs1KQrN03T9tU833AkfzTai3TnamVvkx/es2fPLk0CAAAAAAAAvqJlWVZtn2PRerVy4Uhet6xWt9agwzeSjPZ3XTa52nlJ22gQAAAAAAAA8BU1+frR/q0l62Hn/NH+QZblq6Zp2q5BV7Nv7Y3a/vJoP61Lh52zR3unxB0AAAAAAAAA4EqM1eqkkfzb0V5oyXpY+fxInplludk0TTs06Mgkmdv+3GjP06nDS9tHtXXhBAAAAAAAADi0kewZyYstWA/7tf/PGMlKc665JFOTn9Wrw87rRuvSCQAAAAAAAHBoI7nFaD9vuXqV2Tval8979uzWmqMnySlNnjDai3XsqjuY5CZaAwAAAAAAABzSWJbHWaxeZS4e7Uvnefbk/1p0MMlInjfaC3TtKj8D8JMaAwAAAAAAABzSSF5lsXoVS9fk1ctqdatpmnx/fY0kudVoXzrai3TuK+avklxLYwAAAAAAAIDLmed5Ge1nLVW/Yj7U5IHzPJ+gMWtnmqYdSe4+kreMdp/eXWk+kuS2GgMAAAAAAABcTtvvGO0llqpXmvOaPHEkp2nL2pvn+cQm/3K05+jeleZzbX9UWwAAAAAAAICDpmna3uS/jvZSS9VDZu9IXjTv2TNpy7GT5IS2v6mXX6GX7XOT7NQWAAAAAAAAYNu2bdu2rfbsmUf7TgvVK807k9xUU4693bt3T03O0sErzV8nuZWmAAAAAAAAANu2bdu2rcm9RvsRy9RD5uImP6Alx8dYrXaM5AGj/ZQuHjIfHe2DNAUAAAAAAADYtm3btm2j/fej/bxl6iGSvHQ1z9fTkuMnydTkaaO9RCevkItG+3PTNPkMAAAAAAAAAGx10zSdONr/5jvrh8xHmtwryQ5NOa4d3d7kzqN9o04eMs9aluV0TQEAAAAAAIAtbqxWNx/t/7FEvUL2Nvml1Wp1mpYcf213NnnsaM/TzSvk1SP5Wi0BAAAAAACALW4k9xrtuy1Rr5CzRnInDVlHXV2tzhztK7yt4gr5RJNv1xAAAAAAAADY4pr869Gea4l6uXxhtP8xyckasu76+oOjPUdHL58mPzLP8y4NAQAAAAAAgC0qyamj/RUL1Cvk7SO5vYasy87uHu1ZOvplFwDaX0syaQgAAAAAAABsUW1vNNoXWqBeLheO5ClJTtCQddrb5FF6eoW8YiRnaAcAAAAAAABsUW2/drSvszy9XP6xyQ21Yx33NrlOk3/Q1S9J8u4mN9UOAAAAAAAA2KKa3H20H7NAvdyr1J+uGeu8t+3Otj+lr1/W3eSfzfOsIAAAAAAAALDVJNkx2gdZnF4uF49l+Wfasb5N07Qty3IHl1e+7ALAsvzLrFbbNQQAAAAAAAC2mCQntX2MxenlXqP+1pGcph3r31iW1Uier7eX6++TxrLs0A4AAAAAAADYYkYyjfZZFqeXe4X6Y7MsJ2jHBujvarVrJD882ot192B//7LJTu0AAAAAAACALWYky0heaXF68OnpTzW5s2+ob6gO32W079Dfg3nvaF0AAAAAAAAAgK2myQ2avNfS9OAFgN9vMjRj4xir1Wok/320+3T4sqzm+STNAAAAAAAAgC2myU1Ge66lafePdm+Tn5wtTzeckTxaj7/kAsBqdROtAAAAAAAAgC0my/KNFqYH88mRfLdWbDxt7zva9+vwZemy3EMrAAAAAAAAYItJ8j0Wpgfz123vpBUbz7IsNxnt63T44KcsHqEVAAAAAAAAsMW0fbyF6YGnptsXrFarPVqx8czzvGMkLxjtXl3u/rY/rxUAAAAAAACwxYzkVy1Mu3+0F4zkFzRi42r7mNGeq8vd3+T3NAIAAAAAAAC2mJE838K0+0f7j20frBEbusvfNtpP6XL3N3mRRgAAAAAAAMAW08R30y/Le5rcTSM2riRnjvbDutz9o32TRgAAAAAAAMAW4wLAwbw5yS01YuNKcuJo36/L3T/a92oEAAAAAAAAbDGj/aRlafeP9v/s3r37VI3Y8H1+uS53/2j/7vTTT7+2RgAAAAAAAMAWMtqLLEu7dyR/oA0bX5P/qs/dP9oPJ7m1RgAAAAAAAMAW4gJA94/2wiZP1oZN0Ofk0frsAgAAAAAAAABsSS4AdP9oz2/7Y9qwCfq8LA/RZxcAAAAAAAAAYMtJ8lWjvdiytOeO5KEasfE1ubs+uwAAAAAAAAAAW06SO432EstSFwA2Uae/SZ+7f7SfbHtfjQAAAAAAAIAtwgWAy10AeIhGbIpOuwBwWT4zkgdpBAAAAAAAAGwRLgAczDlt76URm6LTd9BnFwAAAAAAAABgy3EB4P8tS5PcViM2vian67MLAAAAAAAAALDluADgAsBms1qtbqbPLgAAAAAAAADAluMCwMF8fiQP1ohN0elv1GcXAAAAAAAAAGDLcQHgYM4dyUM1YlN0+pv0uftH+6mRfJdGAAAAAAAAwBaxLMttXQBwAWAzcQHgYD7aZbmDRgAAAAAAAMAWMc/z9UZ7sWWpCwCbRZL76XP3j/bDSW6tEQAAAAAAALCFjPYiy9Je0OTx2rAJ+pz8qD67AAAAAAAAAABbkgsA3T/ai5r8qjZsfG0fr88uAAAAAAAAAMCWNNrzLUu7f7R/MU3TDo3Y2Jr8T13u/tH+fZKbaAQAAAAAAABsIU3eZVna/aN97Wq12q0RG77Pb9Tl7h/te7UBAAAAAAAAtpgmr7Ms7f7RvqPtHTVi45rn+fTRfkiXXQAAAAAAAACALantn1uWdv9o3z+Sb9WIjWtZlluO9qO63P2jfaVGAAAAAAAAwBYzkmdalnb/aM9u8qMasaG7/MDRnq3L3d/kBRoBAAAAAAAAW8xInmJhejC/meQErdiYmjxttBfqcfc3eZZGAAAAAAAAwBbT5N9amB7My5vcVCs2niSnjfZPdfjABYD2sVoBAAAAAAAAW0yT+1mYHsy7m9xDKzZkj+802rfo8ME3AHy3VgAAAAAAAMAWM9pbW5gezAWjfZhWbDxNHjLaj+nwZUlyF60AAAAAAACALWa0Nxrthy1ND+YpSa6jGRvH6aeffmKTXx7tpfp78A0Ap2oGAAAAAAAAbDFNRpM3WZoezFtHckvN2DiS3HK0f6G7B3P+aHdpBgAAAAAAAGwxbfeM9oWWpgdz0Ui+a6xWO7Rj/ZumaXvb7xjtJ3T3wNP/7eub7NQOAAAAAAAA2GKanDbaX7U4/ZIk/73JtbRj/VuW5dpNflFvL5f/0dYFFgAAAAAAANhq5nne1eQRlqaXy9mr1arasf41ObPJa3X2S94AkDymyXbtAAAAAAAAgC1mmqZtI7n/aC+wPP1/SfL92rG+Jdne9r6jvVhnL/cJgPvFBQAAAAAAAADYmprcebTvtjy9XF6f5BTtWL9Wq9VJbf9EVy+XC0Z7a+0AAAAAAACALarJzUb7MsvTy+XzTb5bO9avLMudvbniCk//v6HJmdoBAAAAAAAAW9SyLKu2v2uBernsHe2LkuzWkPWpybP19AoXAF7QdqUdAAAAAAAAsEXN87xrJD872kssUS+Xjzb5Xg1Zf5LcdrQf0NEvuwCQ/OJqtTpVQwAAAAAAAGALa/u9o/1HS9TL5dLRviBJNGT9GMmOJs8Y7YU6erlcOJIHzfO8XUsAAAAAAABgCxvJnUf7JkvUK+STTb5/rFa7tOT4m6Zp+0geMNoP6eYV8s62d9ESAAAAAAAA2OKS7B7tSyxRD5HkZVmtbjZNk6IcZ12Wjva5o92rm1fIy0ZyMy0BAAAAAAAAto32aaO9yCL1Cvlik8d0WU7QkuMnyUmjffhoP6WTh8wzkpyiKQAAAAAAAMC2tj8y2s9YpB4yH15Wq1tpyfEz2jNH+zpdPGQ+3+THtAQAAAAAAADYtm3btm1Jbjva91umHjpNntd2h6Yce12WE0byK6O9RBcPmXe2vZumAAAAAAAAAAeN5E9Hu89C9ZA5v+2PzvPsUwDH0DRNO7Is99W/K82+ti+b53mPtgAAAAAAAAAHtX3saPdaql5p3ptl+ZZpmrwJ4BjJstx2tH+je1eaC5r8Z00BAAAAAAAALifJHUZ7saXqleaSti9NckttOSZ9PGO0zx3tRbp3pfl0k+/RFgAAAAAAAOBykpw82g9aqn7lTwGM9hkjmTVm7czzfO0mjxvt2Tr3FfPB1Wp1fY0BAAAAAAAArqCXPXFtsXoVlwCa/HSSkzTm6JqmaVuSk0b78NF+arT79O0r5k98kgIAAAAAAAA4pCzLPUd7icXqVeYLSR48z7NLAEfR7t27dzV54Gg/pmNXnbb/QmsAAAAAAACAQ2pyRtu/tVw9rHwqyffN83yK5hyl/i3L3S3/DztnJ9mjNQAAAAAAAMAhJTmt7a9arh5W9o32vU2+c5qmndpzzYzkLqN9jV4d5tP/yXObeP0/AAAAAAAAcGjzPO9o8t2jPd+S9bByyWjPanJPlwCOXNuvG+2f+/zE4SfJd65Wq+3aAwAAAAAAAFyptrcd7RssWQ87e5u8Z1mWB8zzvEuDDt9Ito/k60b7f0Z7sS4ddt7e5KbTNCkRAAAAAAAAcOWSnDzaJ3ga+2rnC0kePM/zSVp01fbs3r1rtPcc7Zt15+p9eqLJU5NcV4sAAAAAAACAq9TkfqN9v2Xr1c6nmzw8yR4tunJJTm7ynaP9mM5c7Xyqy/Jd0zTt0CQAAAAAAADgKiVZjeRFo73UwvUILgG0T2p7I026orFarUb746P9gK4cUV7aZbmpJgEAAAAAAACHre2jRnuOhesR5XOjfWHbOybxpPb/69TNR/s7o/30aPfpydX/zMRof2qe5xO0CQAAAAAAADhsSW402r+1dD3iXDLa941luX/bHdM0beUu7Wh719G+frQX6MYR521NvsHpxCY8I7adfvrp/iAAAAAAAADW0mh/y2cArnEuaPvkLMstxmp14lbqzzzPJzQ5o8l/OPD0uj4ceS4eybOnaTrJycQ6nvltq9XqWk2uPZLdI1na3qjJTZrcZLS3HO1tvjxt755l+aZD/WejveXBvz+54UgykjnJqUlO9pYVAAAAAACAw5TkjgdeZ28Be82yd7RnjeQHmzTJ9s3cm2matidZNXlQkz8b7cU6cI3zyZF8h1OJ9WKe5+uOZbnRSO402nuP9p+P9vua/PRof2kkzx7tH7V9fZN3NXnXaD9zBN3/7MG/P3n9aF842ue1fULbx472YaN9UJO7j+SOTc5Mch0XAwAAAAAAAA6hyQstX49azh7tC0Zyz2maNuXbAJLsaPIto332aD/mNz9q+eMkpzqROB7meV7GstxmJPcd7Q+N9meb/PaBZfzfjPajo73wOM7HvtF+YLRvHO2LD7y95olNHjaS+ze53TzP0zRN2/2aAAAAAADAlpbkPsd5sbMZ867R/nqX5c7TNJ2wibpymya/euCfb6/f+eilyXc7jThW5nk+aVmtbt/kh0b7m6P9s9G+YbTvH+2nR3vJBpmdTxz4//zG0b68yX8ZySOS3D7JKX5pAAAAAABgy+myrEbyEkvYo54LR/vB0f7GslrdYp7nnUk2VDd27969bSTbk9y4yVNH+z6XRdZk+f92y0rWQpJtSba33ZHkzJE8tMlzRvve0X54tJ/dZJ/wuOTAP9NHRvuOts/vsvzIPM83He2OkWxf5nnbNE3KAQAAAAAAbE5Jdo32IaP9omXsmuULbZ/b9m5NzliW5Vrr+VXVY1lObjuyLN84kt8f7Tl+wzVcWC7Lw8dq5dXlHLUzve3u0d647be2fcpo373F5+zS0f7dSJ7WZblfk5smuW6SXRoDAAAAAABsOiO56Wj/xDL2GFwESP68yeNGco+xLGeslw7M87x9Wa06knuM5NGj/dPRXuQ3W/On/9/c5EynENf4HF+WMZK7jvYRbX93tO/0qY4rzdvbPm20DxvJ1y+r1TLP804tAgAAAAAANoUkJ4z234z2bIuhY5b3j/YPRvvoJvfPavVV8zyfeIx/9xOT3GQk397k3zV5/mg/tIG+/73Rc0GTRyc52SnEkc5w29s1+ZHRPv/Aq/0vNluHP4OjfUuT5zV5bJfl9klO1SwAAAAAAGDD62VvAXilhdCxfyvAgcsArx3tH7R9bJflnkm6Fr/zPM9Lkm8eyU82ed5oXzPa9432PL/FMX76v31dk9s6fbi6dp9++nWafN9onzXaNx64vLXPXF2jfPHAn+V/a/LAsSzX0zQAAAAAAGDDSrLjwKvffe/9+H6n+tzRfuzApYA3N/mjtj87kocl+foDue5ot19Zkqz+6a/tsjyk7S82+aPRvuHAf+8/Hvjf8Xrw45dzR/uTSU5w+vCVTNO0bTXP25psT3Kbtr842neM9tOe9l+TXDLaTzX567b/McnSZPuyLNumaVJIAAAAAABg40hyvZG8zJOkImt+0eNlSc5w6nAVZ/Kuts2y3KfJ/xrt+ebn2L8ZoMmLkjyoy3Lm6hh/qgUAAAAAAOAaafLtB15Lb/Ejsjb5bJNHOG24MkmuNZKvHu0PjPYlB75Vb3aOby4e7V81+dcjuXmSkzQVAAAAAABY96ZpOnEkf2LZI7Jm+bMks9OGL5dkZ5O7jvbxo/3zA5+KMDPrKxeO9uWj/ZmR3M5nPAAAAAAAgHWv7d1G+zmLHpGjnOSCtvdyyvDlkpw52ieN9h2j/aJ5Wfc5f7RvGMl/XFarW2swAAAAAACwbiW5dtunWvCIHPULAM/3xDAHztl/yqrJY0b7Fp9f2bAXAf6+yVPneT6jy7JtmiYFBwAAAAAA1pe2txntX1vuiBydNHn/slrdxnKQJLtGcsMmPzXaD5mPTZOPNnlMl+XM1TyfaNYBAAAAAIB1I8mJo33UaM+x1BG5xvlCk59OcqrTZeuapmlHkhuO9iGj/QtzsSlz8Wj/KsvyQ0nO0HoAAAAAAGDdGMkNR/Ki0e611BG5RvnTJl/lVNnC5+lqdcpI7j/a/zHaz5uJTZ9z2z63yX2TeBUAAAAAAACwPjS572g/YpkjcsT5yEgekmSXE2VrSnJG2yeP9n2jvdRMbJnsHe372/6Xtl/nDAAAAAAAAI67JCe1faK3AIgcUS4a7W8Pr/7fsros9x7t60b7BfOwZXPhaN/b5FFdlu2mAgAAAAAAOK6maTq1yVmWOCJXO2+a59l3wLfWebltWZaTk9y27e+O9nxzIP+UJv+7yR26LNcyLQAAAAAAwHEzluW+o/2kBY7I1foG+Pc4PbaWJGnyyNG+wwzIIXLpaN/T5FFNrp9kh6kBAAAAAACOuS7LtZs8abQXWOCIHNaTvr95vWk6yemxNUzTdMJI7joue+r/PDMgV5FzRvv8Jvf2WQAAAAAAAOCYm6Zpe5blFqN9mcWNyFXm9VmWW83z7PDYAuZ5Pi3L8iOjfdNo9+q/HGYuGe3fNvnxJNcxSQAAAAAAwDGVZOdI7jfa91jciFxp/rHJPx/JLqfG5tdlWUby9NGePdp9+i9HkM+O9jljtbqJiQIAAAAAAI6pkWwb7WMOLCwsbkQun3NH8tNJruW02NzmeT5xWZZvaPtGi385Ctk32rNG8q3LanXSNE2GDAAAAAAAODaSXGck/8WrrkUul4tH8gdjtTrDKbG5dVnmJg9r8mG9l6OcjzT58XmefRIAAAAAAAA4dsZqdeZoz7KsETmYt4zkzk6HzWuaph1Jbjnapx145b/ey1rkwiZP7rLc3NQBAAAAAADHTNt7jdYTsCLJBU3u5VTYvOZ53rksy92a/Oloz9d7WeNcMNoXJ7n7NE27TCAAAAAAALDmltXqxCzLD4/285Y1spXT5KenadrhVNjU590dR/senz6RY/pZkfatTe7tfAEAAAAAANbcNE3b5nk+rckTRvtFyxrZiq/qHu2vtb2eE2Fz6rKc0uShoz1X3+U45fwkPzrP80kmEgAAAAAAWHNJbjja5x5YhlrWyFZ6OveFI7mZU2BzGslqJI8e7cf1XY5zvtjkh5LMJhMAAAAAAFhzbW8z2j8Z7aUWNbIFcsloX93kG0z/5jNN0/ZlWa4/2ieP9tP6Luskn2n7S0liSgEAAAAAgDWXZbnTaD9gSSObPskHknzbNE07Tf7ms5rnebTPG+05+i7rLGe3fWbbG5tUAAAAAABgTU3TtCPJt472o5Y0somzL8vybfM8n2jqN595nm/Y5KU+aSLrOF8Yye8PbwIAAAAAAADW2jzPJ2ZZvn8kHxvtPosa2WQ5p8kj53nebto33dm1c1mW24329T5lIhvhItJI/mwki+kFAAAAAADW1DzPp3RZHjGSv3cJQDZRPtH20UlONeWb7szalWW582hfOdq9ui4b6HMkfziSm5hiAAAAAABgTc3zfOpYlkeN9jOWNLIJ8rnR/lLb3aZ7051VO7IsXz/aV1j+ywbMhaN9/ki+2jQDAAAAAABraqxWpzf5+dFebEkjGzjnj+TXR3J9U735rOZ5Ge0fW/7Lhj6j2t8byc1NNAAAAAAAsKaSXKftky1oZAN/Z/u3R7LHNG8+0zSdMtrfP/AUtb7LRs4XR/L7I4nJBgAAAAAA1lSSa7f9hdGea0kjG2qh1v7FSHaa4s1lmqbty2p1xmj/cLSX6LpsogtLr2h7PVMOAAAAAACsqSS72z5htJ+xpJENkM+N5JkjOd30bj5Nzhzt80Z7ga7LZkvbpyaZTToAAAAAALCmkiwj+bnRftySRtb58v8ZIznD1G4+I9kz2qeN9gu6Lps057X9hSSTiQcAAAAAANbUWK1O77I8fCSfs6SRdZjzR/LrI7m+ad182l6r7c+P9tO6Lps8H2/yb+d5PtXkAwAAAAAAa2qe55OyLI8YyRctaWQ9fT+77eNGsseUbk5JHjTac3RdtsJ5NtqPNnnANE07TD8AAAAAALCmVvN8YpblwU3+brR7LWvkOC/KPt3kkW0tyjaheZ539bLl/7n6Llss/5Blufdqnrc7CQAAAAAAgDU1TdPOJvcZ7WtHe5FFjRyH7B3Ju7IsD5jn+QRTuSnPmR1Zlm8a7dsOXPbQe9lqOavtjZ0GAAAAAADAmpumaVeTO4/2+aO9xKJGjmEubvKqLMt953k+2TRuTkluMdoXumQkWzzPmed5ciIAAAAAAADHRNszR/sro73QokaOxWv/2/5ek9tN07TTBG7ac2X3aJ8y2vN0XrZ4zmvyU9M0edMJAAAAAABwbGRZ9jT5mdF+yrJG1jJtn952MXWb+DxJTmj78NGeo/Mi3T/aj4z2wU4HAAAAAADgmJjnedvu3btPSvJdo32zTwLIUc4lo/1Il+URq9XqFBO3uWVZ7jLaz+u9yOXylrbfPFarHU4JAAAAAADgmBnJnUf7v3wSQI5SLhjtnyS5xzRNu0zYpj8/bjjad+m9yCGSvLDLcoNpmhwWAAAAAADAsZPkjCa/PNqPWtrINcjnmzy17S1M1eY3z/N1Rvsb3iAicqW5uMlPJdnpxAAAAAAAAI6peZ6v3fbBI/krCz05gnwgySPneb6Oadr8pmnalWV5xGg/qfsiXzEfb/stTg0AAAAAAOCYS3JCk1s1+Z3Rnm9xI4eRS0byxyO562q1OtkUbQ1t7zTa1412nxkQucq8MsnpTg4AAAAAAOCYS7KtyQltHzDaD3kbgFxJLh3t+9r+2Lx797XHarXd9Gx+0zRty7Kk7bMOdMAsiFx1Lhztb47kWk4RAAAAAADguFlWq1uP9gWj/YRln3xJzhnJS8dqdRtTssXOhGU5McmPjPZccyBytfLRkXx/kp1OEgAAAAAA4LgZye5x2cLvlaO9wBJnS+fi0b6h7U+uVqvZdGw9Tb52tO80CyJHlFc0uYWTBAAAAAAAOK5y2ScBbt32sU0+bomzJfO5kTwjy/INSU4yFVtTk+eZBZEjzvlNfibJtZ0mAAAAAADAcZfklCZ3HslLDnzT2EJnC6TJ29req8ty+jRNO0zC1jSS7xzt58yEyDXKh7Msd5qmyaECAAAAAAAcfyPZ3uS0tg8e7VmjPW+0+yx1Nl0uGO1b2/5wk+sm2a79W1eSG472NWZd5Chcqmr/l7cAAAAAAAAA606SM5r8xGj/xhsBNk0uHu3bmzw5yZlaTpKT2/7CaM81HyJH7RLADzpdAAAAAACAdWksy+2aPGW0bx3tRZY7GzKXjPadI/m1kdxlmqYTNZtt27Zta/JNB2bbnIgcvbwpyY2cMAAAAAAAwLqU5JQm39Dk8U3e61XhGyaXjuT9I3nySO6+mmevpeagkaxG8tsH3gxhXkSOXs5v8jNOGQAAAAAAYF1Lcu0mt2zypCZnW/Ks41dQJ58YyX/Ostyhy3KdaZq2azD/ZJqm7U3uNdpPmheRo559o/3rtrd12gAAAAAAAOtekl1JbtTk50f75tF+brSXWvoc56f923NH8u4mP9tkHskJ0zQpLFcwktNH+4fmRmTNctFof3nes+dUJw4AAAAAALBhzPO8ZyQPG8mLRvtBrxM/5tk72o+N9k+bPHKsVmdoJVdlJA80O+s654727NF+erR/P9r3fUneP9qPH/jPzz6waPZntj7zjpHczRtYAAAAAACADWfPnv+fvfsOt6uq0zh+W5KbhJCVe7P2et8fJSCCGIp0LCBNARUVdVBhFAQVG+JYwMEZxoZdxAYWEEHFYcQGjiIKiiAISJEiiiCIgxBAegkkJJk/cowJSW5uOffcU76f53n/EfXRe357n7X3es/es2fYfrGlz4R9cdiPsvkzrpkf9pWWvhzSa3LOmSnEcEiaXjtGOY4mPveF/cfa53Fa2F8M+1OW3m3pLZbeGNLLQtpzubwgpANr//wtIX0g7GPD/mrY/xv2JbXSAGWsic9C25+QNJMzDwAAAAAAAAAAaEmSptneJuy3hH1m2A+wCVTHSI+E/d2w32T7mVVVzeTXpRiJkF5ZK5BwPDU+j4V9ddinh/2+sP8lpF1D2lpSJal/NJ9pSqm7qqoZtp9ie1tLe4V0iKVPhH1mSH+pPS2Ez6Dxuc32cyRxngYAAAAAAAAAAK1L0qSQ1rX0nNo76a/gUdVjys0hfTqk59gOSX1MGUZxXM4M+9ywF3NMNSwLLF1VO373tP20kCxp6nh+1jnnnlLK2l56Ht5cpbw67P+uvT6Az6Wxxa2vhTSJMxAAAAAAAAAAAGh5OeduSX2WplZVNdf2MZauqr3bej4bkStlce31CfeE9PuQjolSdgh7WpQyKaqKX5FiVCT1hHRo7djjWBvHx76HfV9IN9r+ZFVVm1maamlCj9+cc09IU2zPtv3CsE+tvSqA17U04lUA0jM4CwEAAAAAAAAAgLaUc54qaZfa46l/GvY1Yd8V9qIOfxf49ZbOtvTBKGWvqKopTAvqxdL6Yf+EzdhxLe/cFPZ/W3p1VFVqgXPxnJA+EPbFYd/JawLG9SkA30gp9XImAgAAAAAAAAAAbU3SDEnbh/T6kD4X9o/Cvq4DfpX6eNh/rG3IHm/psJB2zjnPYipQbymlnpD+Nex5bMaOyy/+rwv7hJBeIGl6q82GSplj6RDbp9WKAHyu9c8tLoWnAAAAAAAAAAAAgM6Rc+6XtKHtnUN6be0JARfWXhXQLptAvwn702G/1tJulp4qiV/6Y1y5FIV9coc/ZWM8cmtIHwtp1zx79vRWnxNJtrSv7e+G/RCfb10zP+xPcjYCAAAAAAAAAAAdKefcXUpZ29LBYd/RRptAr5U0k08YjWTpmWH/lU3YuuUJ26fb3smlrJ1S6m6XWZHUJSlCelVIl9aecMBnXqcCmKRNOSMBAAAAAAAAAICOZemlYf+tjTaAXsCnikaSNN3SZ2vvqGcTduy/4r7M0ott90vqbte5CamnynlWSAeEfUPYT/D5jzmPWHqfpF7OTAAAAAAAAAAAoCNRAADGfAxtEvbNbL6O7Rf/Yf8lpE+FFJ02Q5KebunMsO9mFsacsy1tzJkJAAAAAAAAAAB0JAoAwJiPoSPYdB3z5v/PLe2Xc16rE2copdRVVVVl+x1hX8VrAcaU+ywdwFMAAAAAAAAAAABAR6IAAIxeSqk/7GvZdB11HrD9WdtbpJT6On2eJE1VKc8N6bSwH2U+Rp2TbWfOUAAAAAAAAAAAoONQAABGT9LOYT/Chuuocrelt6iUQSbpn1JKPSHZ9geZkdHF9l8szWWaAAAAAAAAAABAx6EAAIyOpJ6wT609wp6N15E98v/ykPZWKX0pJYZpVedme7Klg0K6PexFzM2Isjik90ZV8RoAAAAAAAAAAADQWSgAAKM8duxNwr6OzdYRb/7/NKRnMkFrlnOeLGmfsC8JeyHzM6JcUqpqOlMEAAAAAAAAAAA6CgUAYNTHzuFh38tG67CzwNK3JT2d6Rm+lFKvpT3C/g1PmxhZSinbM0EAAAAAAAAAAKCjUAAARk7SLNvfZEN2BJG+XapqfaZn5GolgF3DvpJZGlE+z/QAAAAAAAAAAICOQgEAGLmQnhv2NWywDjs/s7SlpB6mZ3RSSj0qZbuwb2Wehp0bJM1iegAAAAAAAAAAQMegAACMTFRVT9iHh/0YG6xrzMKwfyJpCzb/x27WrFndKmXHsK8NexHztcbcY/sVTA4AAAAAAAAAAOgYFACAkYlS1gnpdDZX15hFYf9M0lympn5SSj2Wdqm9DmAxc7bGAsrJkiYxOQAAAAAAAAAAoCNQAABGfMxsE/bv2VxdY64PaUcmpv4kTbb06rBvYc7WmIslbcDUAAAAAAAAAACAjkABABi+nHOvpf15/P8ac5ek/ZmYcZ3FaZbeFfb9zNuQucX2S5gYAAAAAAAAAADQESgAACM4Xuzpto9lU3XIPGbp/VXOazEx40vSzJC+xswNmQVhf4BpAQAAAAAAAAAAHYECADCC48V22DeyqTrEO9elL0dVKefMwDRASNMs/SrsxczfaiL9MKpqDtMCAAAAAAAAAADaHgUAYPhUyk5sqK42i8I+3/ZWTEoDZ1LqsrRjSLcwg6vNjSHtzrQAAAAAAAAAAIC2RwEAGNHxcgybqavNPEmvSyn1MSkNnsulr6Z4b9gPMoerzHxLh+acmU0AAAAAAAAAANDeKAAAIzpeLmAzdbWP/j9Z0kymZGKolKda+jGzuOrYPl7SAJMCAAAAAAAAAADaGgUAYHgkDYZ9D5upq3zH+h2qqk2YkomTc+4Lab+weRXAqnNuSHOYFAAAAAAAAAAA0NYoAADDE6XsFvajbKSulEWW3ppS6mZKJnhGpUlhf5w5XWVJ5S5LW0tiUAAAAAAAAAAAQPuiAAAM81ixjw57AZupT3q0unSpebR605C0QdiXMJurLAG82qX0MCUAAAAAAAAAAKBtUQAA1iyl1Bf2j8JezEbqCrnf0qsk9TElzSOk/ZnNVRYAPmlpEhMCAAAAAAAAAADaFgUAYBjHSc4bhn0tm6gr5YfmvepNR9JaYf+O+VwpF4Xdz4QAAAAAAAAAAIC2RQEAWLOQ9g77VjZQV8jfLR3Cr/+b8rzeFdJBzOhKeTTsaUwIAAAAAAAAAABoWxQAgGEdJ0eG/QAbqMuyOOyzJK3HdDQfLS0ArBf2L5nVFWNpNyYEAAAAAAAAAAC0LQoAwNBSSj1hfynsJ9hAXZb7Lb2L6Whekvpt/1vY85nX5SL9J9MBAAAAAAAAAADaFgUAYGhVVaWwz2DzdIVN1MtLKRszHU1/ft827N8ysyvM7klMBgAAAAAAAAAAaFsUAIA1HCP208M+n83TZVkY0vEppT6mo7lJmhHScTy9YoVcwGQAAAAAAAAAAIC2RQEAWMMxYu8c9tVsnC7Lgyrl2UxGawjpgLBvZ26X5eaU0lQmAwAAAAAAAAAAtCUKAMAaj5FXhn0HG6dLY+mqnHMvk9EaqqqKsH/G7C7LHZK2ZDIAAAAAAAAAAEBbogAArF5KqTvsd4S9gI3TWgHA/k8mo+XO8x8P+1Hm10vCvtf2fkwFAAAAAAAAAABoSxQAgNWrqmqa7Y+yabosj5RS+PV0653nXxL2PObXS8J+2PYRTAUAAAAAAAAAAGhLFACAIY4PO8I+jU3TZb/+v9jSLCajtURVVSFdywx7SdgLwz6JqQAAAACAiZVSmiLpKZI2lrS5pd1DemEtLwnpDZb+7Ul5d9gfD/v41eTzIT2Hvy4AAAA6GgUAYPVC2ijss9k0rUX6RJQylclowXO9fQozvCxnMREAAAAAMH4GBgZmSHqGS9k5pANCeqelYy0db+nMsH8Z9gVhXxn2VWFfE/aNYd9Sy61h3xX2fU/KA2t4TeOCkN7IJwAAAICORgEAGOL4sOeGfSEbpl4S9qKw94yq6mYyWnKWD2KGl+VsSb1MBQAAAAAMn6SeKGVySNNtzwx7sJSyjaV9QvqQ7ZPCPre2gX93bcP+/rAfDvvRsB+vbd4vGsfrPQoAAAAAAAUAYMjjY4ewb2LD1EtqTfxtmIqWvVGzKTO8LJdI2oipAAAAAIAhryP7JYXtTcN+ZtgvC+l9Yf932JfXNvib7XqPAgAAAABAAQAY8vjYKew72DD1krB/aGkOU9G6wr6TOfaSsH8raS4TAQAAAAD/lHOeVKpqfUs7h/2asI+2fXrYlzbpZj8FAAAAAGBVKAAAqxf2nmEvZMPUS8L+lEtZm6lo4fO9/SPm2EvCvt7Sc5kIAAAAAJ1O0nSXsr3tN4b9+Vh63XhN2A+EvbgFr/coAAAAAAAUAIBVSyl1W3oZm6XL8k5JPUxGC5/v7eOYYy8J+08h7clEAAAAAOhEkvokPdfSh8M+J+zfh31X2E+0wfUeBQAAAACAAgCw2gviKbbfzWapl4R9h6VXMBUtf75/HbNcm2f7QCYCbXRs72zpRx0b+71MAQAAwKrlnLtUyuSwZ4b0rJA+FvYfwr4/7Mda9Ff+bVMA0NK1/GmdupaX9J6cc+JIBQAAqDMKAMBqL8L6bR/JZqmXhP37kHZjKlp8pkvZjln2krDvsfRmJgLtIuxXdvIxbel/mAIAAICV7mlMcimVpWdaem/YV4W9oAPWhy1VAAjpVWH/vYPX86dJKhyxAAAAdUYBAFjNsWFPs30Mm6VeEvbFlrZmKlpb2E8L+0HmmQIA2u7YpgAAAACArq6u2tMMpblhvz6kk0Oa12HrQwoAFAAAAABAAQBY7UXY2mF/nc1SLwn7bEkbMhUtf77fMOwbmGffF/bbmQi0zfcVBQAKAAAAAF1dXZJ2tPRfYf8y7Hs7dH1IAYACAAAAACgAAKu9CJsZ0rfYLPWSsM+UtA5T0fLn+w0s/Z559sKwj2Ei0DbfVxQAKAAAAICOJunplj4T9nVhP9Th13sUACgAAAAAgAIAsNqLMAoA/8zXBwYG+pmKlp/pKqTvM89eEvanmAi0zbFNAYACAAAA6Lw1YFVNtrSxpePCvjXsx7nOowBAAQAAAABdXV0UAIAhLsIoAPwzX2Ii2mKmc0jfYZ4pAKDNjm0KABQAAABAx8g5T7G0cUhHW7qHazsKABQAAAAAsBIKAMBqL8IoAFAAaLeZpgBAAQDteGxTAKAAAAAA2l5KqcelzLH0Zku/DvsJrusoAFAAAAAAwCpRAABWc2zYKewzuHimANAuKABQAECbHtsUACgAAACA9l7vVVVflLJX2N8L+16u5ygAUAAAAADAkCgAAKs9NrKlS7l4pgDQNjeNKABQAEB7HtsUACgAAACAtpVSmmr7/WHfFPYiruUoAFAAAAAAwBpRAABWexGWQjqdi2cKAG000xQAKACgHY9tCgAUAAAAQFtJKXW5lElRyg5h/yzsR7mGowBAAQAAAADDRgEAWO1F2MyQvsXFMwWANpppCgAUANCOxzYFAAoAAACgbUjqVinZ0r+FfSvXbhQAKAAAAABgxCgAAKu9CKMAQAGg3WaaAgAFALTjsU0BgAIAAABon7VdKZuE/dmw7+O6jQIABQAAAACMCgUAYLUXYRQA/pmvS+pnKlr8fG9H2OcyzxQA0GbfVxQAKAAAAIB2uQ+xY0hnhb2AazYKABQAAAAAMGoUAIDVXoRRAPhnvi9JTEXLn+/n2L6GefYTIX2EiUDbfF9RAKAAAAAA2uEexPPD/nXYi7hmowBAAQAAAABjQgEAWDVJ021/hotnLwn7LEnrMRUtfkPJ3ijsvzDPvtfS25gItNGxTQEAAACgBaWUuvLs2f2S9gv7Ojb/KQBQAAAAAEBdUAAAVk1Sv+0juXj2krAvtr01U9Hy5/stmGUvCfseS29mItAuKABQAAAAAK0p5zzV0qFh38V1GgUACgAAAACoGwoAwKpRAFgh14e0G1PR8jO9N7NMAQDthwIABQAAANB6UkqTLL2ezX8KABQAKAAAAADUHQUAYNUoAKyQO8N+JVPR4ud75vkfmRfSQUwE2gUFAAoAAACgtdQ2/w8O+zauzygAUACgAAAAAFB3FACAVZM0yfYbuXiuXUDbb2IqWltIn2OWvSTsP4f0QiYCbXNsUwCgAAAAAFpt/fbasG8OezHXZxQAKABQAAAAAKg7CgDAqknqCvuFXDwv22D5eFVVazEZLX2+/w2z7CVh3xDS85gItAsKABQAAABAi1yT2T0hPS/sq9n8pwDQ1UUBgAIAAADAeF18UAAAhroQ2y2kB7iA9pKwf2R7A6aiNeWcp4b9CHPsJWFfImkjpgJt811FAYACAAAAaP41W1X1hLRd2OdzTUYBYLn7ThQAKAAAAADUHwUAYMjjY/uwb+AC2kvC/kNIWzEVramUsjMzvCy/lrQuU4F2QQGAAgAAAGiBa7KqWj+k73I9RgFghbU8BQAKAAAAAOOBAgAwxPFhzw37Ii6gvSTs+Zaen1LqZjJaT0jvYYaX5RxJ/UwF2ub4pgBAAQAAADS1lNIUS58OewHXYxQAnnStTgGAAgAAAEB9SZpu+x1h39k2N4Httw4ODs7k00U92N4w7B9xAb1sk+UoSVOYjBacZekMZnhZfsxEoJ1QAKAAAAAAmv7ewivCvotrMQoAK63lKQBQAAAAABgpST0uZZLtabZnW9oupENsn2DpN7Vf/t8f9qI2WjjeH/Ztls63/bmQDvHSd6zNsjQtpMlVVfWklBgQDOcYmh32V7iAXlaw+ZVtDp4WU1XVBmH/iRn2krAfs3QsU4F2QgGAAgAAAGhOKaWuqKqtw74i7MVcj1EAWGktTwGAAgAAAMAwLix6o5QB20+xtJXt/Sx91Pavwn60wy8AHrR0YUifsPRKS9vb3jBKmZlS6mF6sCqS1g77M1xAL8ujIW3CZLQW24eFfR/z6yVhP2z7CKYC7YQCAAUAAADQnEopVdjfDvsJrsUoAKxyLU8BgAIAAADAqkiabGmjsPewdGhIXwz7grDnsegfMneF/YuQPmXpkLD3CGmT2YODU5kqrHAxZr+b42W5SGyetpCc81RL3+SG07LcE6W8hMlAm31PUQAAAABotjVaVfWH/bYO39ylALCmOaEAQAEAAADgHyRNcynb2j649uvkH4d9Y9gLWOiPKvNrj8c+J+wTbB/gUraQ1M+0IezXh/0gx8myXMBUtNT3xdywL2Zul+UOVdXmTAba7HuKAgAAAEATSSl1q5StQ7qUazAKAEOu5SkAUAAAAACdLefcW5a+N+w9Yf8g7KvDvpNfddY9i8P+W9hXWvqB7X+PUnZmAjtXSPuEfTPHxnK/oGYDtWVYel3tiSfM7tLcmnOexmSgrb6nKABQAAAAAM12H2FaSJ/ghzoUAIYxKxQAKAAAAIBOkXPuKqX0WZoqaXPb77F0UW0T5+GwF7Ggb0gWhf1I2HeH/ZuQjgpps5CmWupjUjuD7e3CprX/zzxu+4OSupmO5iYph/21WrGJ2V2anzMZaLsbzBQAKAAAAIDmuo8g7Vi7f8c1GAWAodfyFAAoAAAAgPYnqc+lzLa0raV32r6gtgHNAr558ljYv7H0LktbSFLOeRLT29bHZQn7h8z+CrnK0hymo6nntjuk3WqvN2Fm/7FRaB/PdKDdUACgAAAAAJrqWmy6JV7DRgFgeGt5CgAUAAAAQHtKKXXnnNe2vWPYh4Z0oqV5LNib/1UBtv9q+zRLh1raevbs2TxWuk2F/fmwFzL3y3J3SG9OKfUyHc3J0lphf5hZXWmj8G1MB9rwO4oCAAAAQPNci70q7Ee5/qIAMKy1PAUACgAAAKD9SJph+2W2Twj7Ci4QWjYPh32x7eNC2ifnPIvpbi9h/1vY9zHrK7we47ullGA6mnZmNwj7WmZ1xZRSns90oA2PdwoAAAAAzXGfL4d9Nq/upAAw7LU8BQAKAAAAoK0uCNa39PawfxT2X8J+ggV6m1xk2DdbOtvSESXnDVJKPUx867P94rD/jxlfIf9naV+moym/Y7osvZ7vlidFml9KqZgQtBsKABQAAABAk9w7kA4Mm6d6UgAY/lqeAgAFAAAA0Lpq72KebGmLkI4L++awH6IR3L6vB6g9FeD2kL5qaUPbkyV1czS07DH89LCvZ7ZXfAqA7VMkKaXEkDSRwcHBWZZuYEaftEloX2S7nwlBu6EAQAEAAAA0xX2DdcL+Pvf6KACMaC1PAYACAAAAaMnFf58l2941pK/VfiHOYrzz8pDtUy3tJWkdSbw3vQWFfV6t3MFM/zMPqJQDSs59TEhzSCn1hPQBZnOVTwD4bEiTmBK04fcTBQAAAICJvf/XY3v/sG/n2osCwIjW8hQAKAAAAICWW/w/zdLrbZ/Bu8NJLXfZ/r6lAyWtn1Ji07SFWPp42AuZ45VyvnisejN992wW9h+Zy1U+AWA/SbyWBW2HAgAFAAAAMOH3CwbDPoHrLgoAI17LUwCgAAAAAFqDpDmW3hr2ObXHwLP4Jiv9ajrs74f0TpeySUqJJwK0wgW9/ZqwH2N+V764tn04E9IU3z9Twz4u7PnM5coFrLC3ZErQjigAUAAAAAATvh7bLuw/cd1FAWDEs0MBgAIAAABobpIGLR3mpY8Jv4dHhZM1ZHHtyRAXhnRESGtzFDW3qqrmUOpZbf4saSOmZGLZ3iPsPzCPq/z1/wW2N2RK0KY3nCkAAAAATNz9wCm2jwz7Ca69KACMeC1PAYACAAAAaMpFfo+lKZIOtnRV2A+GvYjFNhlhEeBhS5dKelFtnnhEdRNKKfWEfQUzu8o8YenUwYGB6UzKhHwXddl+atg/4KbTaiIdH6UMMC1oRxQAKAAAAICJYylbuozrLgoAo1rLUwCgAAAAAJqHpB7bs22/xNJP2HAhdXuUunSBpVdYqigCNOWF2fuY09XmjpAOkTSZSWn4DafpYR8d9uPM4Sqz0NIbeN0K2va7iQIABQAAADBx12P287jmogAwhvtMFAAoAAAAgGZQ5bxWSC8K+8QOX6CRcXxXte1TLe2bc57JUdc8Sinb8371IXOZpGellCivNO5mU5ftvcO+jflbbW4Kew+mBe2KAgAFAAAAMKFrsRO45hqXp2U+EPatYV8T9m/CPifsn4R9RtinDJGTQtqlZeaHAgAFAAAA0BSLsh3CPjbsW1iMkwbkb5Y+J2mHlFIfR+DEs1SF9Dtmc7V53NI3JK3DtDSGpBT2r5i9IXOmStmAaUEb33SmAAAAADAx12MzuEdYn6e21Tb7zwv762EfZekNlvYN6bmWtpI0p5Sybs557Ta710wBgAIAAACYwAX9bEvvCvtyHrFMGr2hGvYVtt8rqeJonOALs1LWCunzzOWQedD2OyRNYWLGV0qpP+yP1G6WMHurzhMhfSrnPImJQdt+N1EAoAAAAAAmhO3nh/0I112jzh9sf8H2v1p6TkhPk1Q66ZWYFAAoAAAAgIlYyEv9tvesNVAfqj2CigU6mYhHnz1k6RellOfZnpRS4gCdALMHB3stvZpzwRpzfyllN0ndTM243WjqtX1Y2Hcxb0M/SSWkf2Vi0NY3DSkAUAAAAAANJ6k77K+E/QTXXSMoaNv3hv0dSftIWk/SDEm9HbuWpwBAAQAAADROznly2BuFdHLYj7JAJ81UBrD9BZXyDEnTOFobz9LWYV/LLK4x8yxtn1LqYWrqfqNpiu0Dw/4rc7bGXC5pM6YGbX3TkAIABQAAADAR12XrhM0rAoeXx8K+xfZxkjZlepZby1MAoAAAAAAatvDKlg4K+7f8ypc0aRaFfb3tt0tySolfWTdISqlb0qZhn8McDmtOf2VpOyanfnLOvZJ2qX1HMWdrfo/kN1NKPP4f7b12pQBAAQAAADScpRfU3lvPtdfQv/i/JaQvW3qupD4mZ6X70BQAKAAAAIDxJKnP9jPDPj7seSzSSQvk72F/I0p5Fkdww84Tzw77pLBvZ/6GlQVhfz+kjZmescs5d5VStgr7p7XNbWZsDa+isH0gk4O2v2lIAYACAAAAaDhLR4b9ANddq9/8t/0Ll/KKqCreY7m6tTwFAAoAAABg/KSUptbepXxN2PNZpJMWa1NfY/tNKaUpHM3jQ9K6Yf9H2Ffzfr8R5+GQvhHS+kzS2OSc1w/7AmZw2Lmtqqp1mRy0/U1DCgAUAAAAQKPvEUwL++Tak++49lrVGs0+wfbclFIvEzPEWp4CAAUAAABQfy6lp6qqDcI+Mez7WKCTFs69YX8rStlUUk9KlKvHKs+e3W1phu1Xh31p2A8zZ2N43590ekiDTNYoZjHn7qqqNgz7PG4wjeiG0zdTSj1MENr+piEFAAoAAACgoWqvBvwF112r/hGApSMlDTApw1jLUwCgAAAAAOq6UO+2lCz9S9jXsjgnbZRbJL1RpczmSB/TOWKmStk97LPCfoy5qlOkMy2tz6bsiGaxT6VsE/b5bP6PKIuiqnZhgtARNw0pAFAAAAAAjV1/SfuEfQvXXStkcUjzXMrhOedpTMmwZ4kCAAUAAABQt8VVKZuE/cmw72SBTtowD9g+IaRNONpHRtJ0S9vZ/pglzg/j8Q5A6RxLz5I0iYlb4zxOtvT8sH/JY/9HXDa5KaR+pggdsa6lAEABAAAANExKqcfS23iF6ErXYHe4lHfnnGcwJSNYy1MAoAAAAADqtrDaI6Szwl7AAp20eX5kac+UUh9H/hov4LtVVeuHfVTYl4X9OPMzblkQ9kWWXpxznsL0rfa7qjukQ8O+kpkZ1YbgMS6Fcx8643xBAYACAAAAaJhSynTbH+e6a4U8bunDOee1mZARX/tTAKAAAAAAxkLStLBfH/bVYS9mcU464dfWYV9v+zBJMzkLDHnBdWDYPw/7PuamQY9nt/9k6e0uhV9pP0lKqd/Se8K+g1kZVe6y9KycczfThI74DqMAQAEAAAA08v7B+mF/j+uuFX79f46kiukY1TxRAKAAAAAARrmQ6oqqUkifCPsuNv9Jx72DzX4gpOMs5ZQSJ4Wuri5JXZZ6o6q2snR62PfwfvWJeV1FSMcNDg4mSd18X6m7qqqw9EXKKGPYDLS/yc0ndNS5gwIABQAAANDI67bNwr6Ea69la7F5paq2YzJGPU8UACgAAACAkaq9l2ubsH/CopywKeZLS1VtlXOe3MnnhZzzZNtzLX20wy+ymuZpAJYusbSXS5mRUuruwJnsKqXMDPulYV/BTIytVOJS/jWl1MsqCB1z05ACAAUAAADQyLXXTmHfybWXl4T9qO1DJU1iMkY5TxQAKAAAAICRyTlPt7RX2NezICdk2U3yP1p6raRZnXhecCkbWHpL2JczD02XWyy936VsGVXVUZu3IW1q6diw72YOxpzzLW3OKggddhOaAgAAAEADSOoN+1Vcdy3Lj21vyGSM6X4ABQAKAAAAYNiLp6oatPT2sP/AI/8JWSm3h/0f0UGPyJY0M+yXhX1G2I8yA02b+SH90vbBkmZ0wFzOCnu/sM/ms69LHrH0oZxzPyshdNS6lwIABQAAANAQLqU/pP/g2stLagX2gyX1MRljWMtTAKAAAAAAhr0YL7H00d7z2PwnZIgLNelzIQ228/lAUq/tbW2fFPZfwn6Cz75lSionuZRnp5QmteFc9lt6ke3Twv5r2Iv4zOuSGyTtwUoIHXfTkAIABQAAANCYdZc0I6Qvc+1V+/W/NIepGPNMUQCgAAAAAIaSUuoKqQrpv8N+mIU4IWt+V1vY5w0ODqacc1u9d11S9+DAwMxaM/9vYT/O591yeby2OX6iqmqLUlWTUkotO5M5525LvZbmhHRi2HeFvZDPuW5ZaOmbkqawIkLH3TSkAEABAAAANITtZPv7XH/57pDeIqmHqRjjWp4CAAUAAACweimlnlLK3Noj/9kIIWRkuVCl7CxpcqufCyT1WSqWXmPpdzwFpI3KKtLXVMqOIRVJk1poJnssZZWyS0jHU1Abv6dGSHoWKyJ05E1DCgAUAAAAQENYqixdz/WXr4yqehoTUYe1PAUACgAAAGDVcs79KmWXsC9is4+QUWVR2L+z/S+S1mrVc0GV81ohvdT2d8K+n8+1LfNg2N+x9CaXsu3swcGpzTqPkvpdylMt7W/71Nr7EfkMxyvSmSklfv2PzrxpSAGAAgAAAGgIS8H9Bi+0dALTUKe1PAUACgAAAGBlOed+Sy+3fSXv9iZk7O/PtnSgpKmtdi4IafuwPx32LXyOHZH5IV1q+7O2/8WlzJXUP9FzmFLqqaqq2N4r7A+H9JOwH+LzGv/XRbiUPVgVoWNvGlIAoAAAAAAawvZcrr/8sKS9mYa63c+iAEABAAAArLBAqqopIb0m7Otqv2BmE4SQsefmkA4LqbtFzgNh6Yiwf1t7ZzyfYWdlcdh/DfvSsL9h+x2Stmr0HOaci0vZO+wTwj4v7D+FPZ/Pp2G//v9JlfM0Vkbo2DUxBQAKAAAAoCEsvYDrL92ec57ONNRpLU8BgAIAAAD4p9o7lQ+tLZB47D8h9c39IR0RUk8zHv8ppS5LUyztFdKFtV9Ycx4gC8N+IOzbwr7S0mctvbyqqvVLKZMt9dnujaXfH90aRslFUpdq/16X0mOpt/bfM1nSbrXyyY9qG/53UkKZkJtPj7qUF1Y5d7M6QsfeNKQAQAEAAAA0hKWXd/o1mO2zmIQ6ruUpAFAAAAAAS0mabunNtc0eNj8IGZ88FNIHQ5rZVBfbpcxQKdvY/i6fERlBHvTSssjXQ/qQpUNt7xP2M5bLFmFvvvy/Znt3SwdZemtInwnpLEt/5vuniZ4AIZ0aUsXqCB1905ACAAUAAADQmHsS0jspAPgwJqGOa3kKABQAAABAV5ekZPvtYd/Nxgch4567Qzo6pMEmOPanWNra0odrv/Dm8yH1zmNhP8LfoaVyu0vZN6XUwwoJHX3TkAIABQAAANCYdZf0sU6/DiulbMsk1HWmKABQAAAAoLNJmmn78LD/j00PQhqWeWF/uKqqklKaqGM/bP9b2L/hEeuEkFoWWDrFpQQrJHT8TUMKABQAAABAo9Zdn+nw67A7wuYJbPWcKQoAFAAAAOjwxdDMkD7JL38JmZDcG/aps2bNmt7I4z6lNCWkvcM+N+x7+BwIIcvlRkkv4tf/AAUACgAAAKBRLP2wwx///1PbiUmo6z1vCgAUAAAA6NiFUE9IX+DRzIRMaB4P+6sDAwPTx/NJAJK6LPVIenrYp4Z9e9iL+fsTQpZ/XYOlz0rqZ5UEUACgAAAAABrF0rkdfi32zZBmMAl1ve9NAYACAAAAHbiwtmfVNv8XseFBSFOUAL5RqmqdlFJ3vY93SZNC2sTSh3jVByFkiFwvaWNWSUDtpiEFAAoAAACgMfcpO7wAYPtdkiYzCXVcy1MAoAAAAECnkZRsfzDsB9jsIKRp8ojt4yW5zhc864b9mrB/w9+YEDJEFob0BlZJwHLfoRQAKAAAAICGoADgQyT1MQl1vR9GAYACAAAAnUPSTNuH8ytgQpoyfw/7AyHNHPOFTlXNcCn7hH1a2PfwtyWEDBnpojx79lqslIDlvkspAFAAAAAADWHpsg6/JtuDKajzWp4CAAUAAAA6haSplg4L+zY2Owhp2twd0gdDGvWrAEpVbWnpS2H/OeyF/E0JIWs879gvHst5B2jLm4YUACgAAACARq275nX0ayGl3ZiCOs8UBQAKAAAAdIKcc1eUckDY97LRQUjT56GQDtIINuNcSvfAwMB024eG/ZewH+PvSAgZRhZb+lQpZW1WS8BKN6IpAAAAADRm3dW5rymVbrG0PVNQ55miAEABAACAdiepT6XsEfZ9bHQQ0jq/yLX0akmT13B891iabemVYV8e9iL+doSQYWZR2OfZ3pzVErDKG9EUAAAAABqz7nqgg9ddN1ralimo80xRAKAAAABAO0sp9VraOew/sNFBSMvl95b2zjmvsgQgaart59v+RtgP8/cihIwwf5N0UEqpjxUTsMob0RQAAAAAGrPuogCA+s4UBQAKAAAAtDNJW4Z9dtgL2OggpOXyhKULSinbp5SWvQ4gpdTnUrYI+0Nh38TfiRAyiswP+4uSZrFaAlZ7I5oCAAAAQGPWXRQAUN+ZogBAAQAAgHZle/2wTwn7UTY6CGnZLAj7f0spG6WUuiTNtv3OsC+qbeDxNyKEjGZj79pSyqasloAhb0RTAAAAAGjMuosCAOo7UxQAKAAAANCOJK3lpb8OZvOfkHYoAUhfk7S3pbNrF8aL+bsQQkaZxaWUvVJKPayYgCFvRFMAAAAAaMy6iwIA6jtTFAAoAAAA0G5SSj2S3swGByGEEEKelMdC+khIvayYgDXeiKYAAAAA0Jh1FwUA1HemKABQAAAAoJ2klHot7R72g2xyEEIIIWS5LLJ0lqV1WDEBw7oRTQEAAACgMesuCgCo70xRAKAAAABAO3Epzwr7ch4PTgghhJAVIl0T0vPEr/+B4d6IpgAAAADQmHUXBQDUd6YoAFAAAACgXdh+athnhP04Gx2EEEIIWS7zwj4sqmoaKyZg2DeiKQAAAAA0Zt1FAQD1nSkKABQAAABodSmlrpzzDEvHhD2fTQ5CCCGELJfHLH3B9lqsmoAR3YimAAAATSLn3FVK6XIpXSF1WeoKuyvsrpzzHEk7RCkvDumtIb3P0lctnWLplLDPDvv3I8xF//jPWzolpE+H9PaQXitpe0mbSJoSdpdr/3ssdakWACNed1EAQH1nigIABQAATbeet7RsLW+pa2BgoCfnbEnbu5SdQzo4pMNsf3i5tfx3wr52FOv5Kyz9j6Wv2/547TrhrZZ2l7R1SmnasrW83RVSVymlK+fMh4XmUXKerFJe3+GLZUIIIYSsehPvjJTSVFZMwIhvRFMAAIAJIKlH0tSQBkNax9JGlnaSdICl/wrpK5YuC/vWJjhfLrR0maX/tfQRS4eG/YywN7QdIc0qVTU159zNJwsMue6iAID6zhQFAAoAACZMVVVTJQ1YWtfSRmHPVSkvt3R42F+19DNLNzfBq8zvDfsq298N6XOWXiNpd0tPtR0uZUBSP58oJoylHWsNGDY6CCGEELJ8rquqagNWS8CobkRTAACABkgp9ZZSBkLazPauYb/G9nvDPiWk88P+S4udQ58I+09hnxfSlyy9L+yX297R0lMkUcwEVl53UQBAfWeKAgAFAAANIanb0kxLT7X07LD3tfRe21+zfaGlW8Ne0GLn0NttnxvSybaPCPslIe1kaWNJPGEVDTu4ZoR9JhschBBCCHlSbrX0Ukn84gwY3Y1oCgAAMH73MgYtPTPsA8L+j7C/GvY/NvsXtuF59ZGwrw77rLCPtfTmkHYV7wsA/rHuogCA+s4UBQAKAADGTc55ukvZ2tL+YR8V9glh/zjs68N+rE3X8jfUXi12nKU31V4lsJ6kPiYC47VAPqpNDyhCCCGEjGHzP6Q3hTSN1RIw6nU2BQAAqJOUUq+qar2Q9rP0qdoNwqvCvj3sxzvwPHtf7d2kPwv7i5Ze41I2ktTDtKBD110UAFDfmaIAQAEAQF3lnO1SXmz7g2GfEfZlYf+tBX/dP9Ysrq3lrw/7PEtfs31wlLIpU4K6sf2SsG9hk4MQQgghy+WhkI4pOa/NagkY041oCgAAMPYbhXNi6bs+fxr2jWHfFfZ81msrZEHYd4f957DPcCkvlpSYHnTYuosCAOo7UxQAKAAAGJOUUk9VVRvWfu1+Wq28Oq/2a/jFrOGXZWHt++bGsM8I6cAoZRYThNEeeN2Wtgz7Yg4uQggZ1ZfyQv4OpE3zoO0PpZSmpMR9Y2CMN6IpAADASM6bpUwLaZ2QnhPSJy1d1aG/7q9H7g37p5LeZHtjSTNSSjwdAO287qIAgPrOFAUACgAAhk1St6R+25VK2cLS22z/io3+UefhkH4Q0oEqZa5LSTln1vIY1sFY2f4KG1iEEDKiPBH2H8P+etjn8PoU0o7lFksn55wrVktAXW5EUwBAI6/x+iVlMqJMZnKaYnYnW9oo7OeHdHTYF/IL/7rnz5Y+aulFLmWDnHPLvWc0pdQnabBTz1dVVTVtgSPnPKmUMjDRf6OwH+zgY/xmS3u0wCzPltRPAYACAFa7lp/N+rw9zyftLKXU61LWD3tv20fa/m7tyVSsweu3H3GzpS9a2s+lbJJSarm1fM65t6qqgQ5ey89q1JfJJNv71x6bxwFECCHDyz1hn2x7T0lTQ9oq7LNqX8L8fUh7RPpulbO4fAEoAFAAaC22Z9g+OOyTyfBi+whJZnom9Eb3jJD2sPSfYf9v7XGgi1iTjVsWhX1HSD+wdJRLeXZKqWVKMFVVrWv7Mx17zpLeUFVVU76eS6U81dInmuDvtKCDj+8Hwj6zBWb5xJB2oQBAAQArbaBOsvS6sE9knT7sfCznPMj0TOhafqqlHUJ6V0jfq63lWXOP/ytbf2rpqJB2ktQyr25VKbb00U49Z0n6r4b8oUtVPcXSrzlYCCFkmI/7l84Ne/8nX/iE9PSwz+VvRNokP7e0pcT+P0ABgAJAi914mVTb/P8r32XDzp8s7S9pGhM0ITO7nu3Xhf3tsK/n1/4TkvlhXxX2CSHtLWlqC8zNFmH/rYM/s1MlNeVTuiw9O+w/c1yRYWRBSG+kAEABACts/vd56az9iUelDzt3WjqkFX8F3SZr+Vku5eWWTgn7irAfYiYnZC1/taWvStq3FZ5sZ2lTS3/s4PtjlzXmD21/ikf/E0LIsHK7pfeolA0k9a3mgnDTsC/ib0VaPOdb2lFSL5cyAAUACgAtdwPmFTzdbcTru1fyyNAJuemzUUjHhH1tbUOFJ2lNfB4P+/aw/6fZ14IUACgAEAoAFAAoALTh5n+vpX1rrxvlKUjDy12W3pBznsoENficWMoc2+8J+7Lar/3ZY2yOtfw8Sz+WtBMFgA4vAJRSduLAJISQNb5X5w5LX6m9o6U7pTTUBWFXSE+tPbb0cf5+pOWecGH/VNJm/PIfoABAAaC15Jz7atd3/PJ/+LkvpFfzndewDds+28X2XiF9rfZ4bn7Z1rxZHNIPbT/HUiVpEgUACgAUAAgFAAoArGjGbb56Qnpu7Yk8nB+G+XpWl/LWWbNmTRrqXi3qVlDpCWmWStnJ0pfDvo+1fHM/FcDSeS7lVS5l3ZB6KAB0UAEgpHXC/gUHaUdv8twb9t213FR73OLymbfcP7877AeZF9JRN7yWtkh/aOl5I/31S0hbxtJ37j3G35K0UH4qaQsuawAKABQAWu9mjKTdwr6a9frwfy0U0vuYnoZt1m5k6aCwf8JjQVsuj1g6K6T9akWAbgoAFAAoABAKABQAUPf52ibsKzkvDDt/dylH55xnMj3jvubqDWl9Sy8K6Sus5VvyqQDnWXqpmqj5TgFgHAsAkvrD/s/ahi4HQTsvpO1ba+9eOTvs02x/NuwP1z7/N1k6xNIhtl8U0m7Lx9KBy/750hwe9gfC/kjYXw77+2H/snZhdw9/b9JmF6E/D+nQkGIMi/etwj6Lx5mSFvm++IWkzbm0ASgAUABoyc3/rcM+l0eFDjt3hHRUSGsxQeM6m32llA0sHeylT8d6mNlr6dwW9ldD2iOlNOHvFaUAQAGAUACgAEABoJ2KkrV795wXhltOLOV9OWd+9j/OSlXNCengsL9b+7Eo15utXJqxT7T0fElrUwBo4wKApd3DvoZfh7RZpIfC/nXYJ9o+MqT9Le0R0nZRysYuRTnnaSml7jEuSnokzbQ9J6S5lnYN+0Vhv872v4d9SkjXhD2fz4W0YG6xdGRIc1NKvXW4QJxbuyHP35Y07U0XS6dI2qpZftEFUACgAIBhb7B2q5S5Yf+Ypw4N/8ZH2EeHNIsJGscbOqVUlt4d9s9qT5Nj9trnSYLXWTpG0iYUACgAUAAgFAAoAGDM32cbh/3t2g8zOC8M77ryQznnGUzPuM7ljJBeHfbPaxv/zF77/ADsj7a/YHtLTeBrASgAjFMBIKoqx9J3dCxk4Fv/8R2WfmfpC7b3C2lz2+tZGpDU3+iNnFoxYGpIsy1taGk7S2+x/e2QbqNwQpo8D4d0sqXtqqqaWueLxI1sn8zfmDTjTVxLp5WqekrOuYdLHIACAAWAFttktafbPoMbhsPOY2GfWFVVZnrG9brwAEsXhX0/14BtfO1kX2H7LZJmTtCcUQCgAEAoAFAAoADQ0nLOydLxFHlHcE1pf1OliOkZt/VVf0j7hH1O2Hcxc22b+WHfHNLhFADaqABQ5TzJ0uv5ZXZL5omw7639OvlM24fknDe01GOpW0vTbIuYrlJKt+2ekHolraelj3/8Ye3VBPdxQ4g0Qe4N6ccu5XkDAwNToqrGY/HUJamy/ZmwH2DuSZPkwZBOyjlXObMPAlAAoADQgpv/s0L6FuuKEd3k+OLArFnTUuJpoXVe6/ZaGrT0SkuX8/qrjsrisM8ppTxbUj8FAAoAFAAIBQAKABjefcJSSrH0OTb/h51HbX9ZUjTbHkirSyn1hJRUyi6x9JXPjzJvnbPnaOlC27tJmj7WJ4dTAJjgAoBLWS/sXzHYLZX7w74i7G/ZPriU8pR6PJZ8gr9U+kopT7f95rC/V3sdxX181qTRC8ewLw/pzZIachc457y2S3lv2Hfy9ycTnLvC/uBE/WILoABAAQBjvmk4YPtYbhgOO4+EfVJKaSrTU19VztNDeoGlb3NN19Hn99ttHyZp/ZRST4POgxQAKAAQCgAUACgAtOb6qarWCvv9YT/OeWB4a3nbX5G0PtNT5/NaVa2lUp5be2L4w8xax+ZW2x9wKZtFVfU2aL1IAWAc/qiH88XSElkU9m1h/4+ld0jaJqU0uR2/ZAYGBqZKerbtt4d9eth/rf3/Zw7IeB5fN4T9MUvbNPpdNznnmSG9I+z/47MgE5SbbL9jYGCgn0sdgAIABYCW3PwftP3vPJJx+K+7CenbparM9NR9I2QbSx9lo4/84+lStr8taU9JUxtwLqQAQAGAUACgAEABoOWklCZ76X3BezgHDPs+7pmS5jA9dV1H9VjaNKT3h3QdT/AisfS1gj+3vU8j9iIpANS5ACBpVth/YZCb/oO/ztJHQ9rT9jqSejtk8dPjUtax9Dzbnwv7DuaBjMuv/qUvuZQ9JM2YwEVWv6X9OSeTCcgVtvezzS8gAQoAFABaUM6539Ibwp7Hd9qwN/9/qFKekXPuYYLqtpadbemwsC/mBwZkpWPO/r3tf7c9nQIABQBCKABQAMBK58hDuO89ovw6pM2ZnLqfzw4K+8KwH2LGyJPyR0vvyTkPUgBooQKApY8E74ds5txg+yhLT5vIjckmuaGUwt7W0gfCvpHZIHU5qS7d+HxhSAONeizlkDfwZ8+eHNKutcUWnxEZ/8a0dJGl50iazKUOQAGAAkBLbv73qpR9w76V77Vhf/edU6pq85xzLxM0dimlHpWydSx9jdt93F8gQ+T+sL8jKVMAoABACAUACgBYNkP7hP0H1lDDziUhPYPJqev66SmWTuZpcmSILA77/pBOdymbUgBogQKApB3CvoXhbcqL4ktCeq2ktSV1S+KbaOnMdlnqqb3f9OCQLuY9NGQUmR/2Hyy9XdJMSd1NtvDvjqqaU3vP0r1cAJBxygNhnyQpN9sxAFAAoACAEW28viTsB/leG+ZNC+nsnPO6OWcGaOzXZr2WFNL7ar8SYs1Khnvz8Ooo5QW2p1EAoABACAUACgAdvJbqC2lffug2oicKnRvSZsFeydjPXVXVo6qSpXfF0tdOs5Ynw13L/0HSflXO08dhvUgBoE5fMDMtHV/bCGNwm2fj/9chHSYp8TW0ZoODgzNCOjrs34b9KDNEhvO4mpCOsz23BS4EZoT9Hm6SkLr/8nHp02WOsM3GP0ABgAJA627+92rpZsp1fLcNO1dFVfGo0PqsU9e2/QJL53GzkIwyf7X9rlJKTil113E2KQBQACAUACgAUABolSLlTmGfzzE/rDwR9mWWdmF66nIt2Wd795C+E7y6i4wu91k6MqpqNgWAJiwAWHoxC++maq9dZfso2xvxS8xRLZieYfujYV9Z+3syV+TJ+bul79jeK6U0uYUWZJND2i/sXzPbpA55LKRfupSXRFVN4RsEoABAAaCF18ClPDvsi2rFLr7j1pzLLO3O5Ix5bdpdSplj+7/Cvon5I2PMPZaOLVW1AQUACgCEUACgANBJLD097As43of9i+PfWdonpdTH9Ix5rTTb0tvC/hOzRcaYh0I6NqSNKQA0UQHAdgn7JDaTmiDSvbaPtbSjpKl8BY3py2stSzvY/mwsffck80WWhP14SL8K6XWllHVzzt0tONu9knawdBpPbSFjyMO2v6RSts05T+ZbA6AAQAGghWdG2izss/i1xrBziaU9JU1ieuqygffj2tPrmC1SnxuH9vdyzqYAQAGAEAoAFAA6Qc65hP09jvVh5xZLz2Pzf2xqT5DbJuwTY+krZ5ktUo88EvbpLmW7lFIvBYBmKABIu9Xe68GATuSHaV+pUna1zeP+67tZmiztGvYvmLOOL9jcGdJRltaPqprc4hcHPaWq1rX03rDn8fmSES4e7rJ0gO3BlFIP3xQABQAKAC29+b9BSN+nFDjs/N72i9j8r8PmnX1g2Dfzq38yTk9F/LmkrSkAUAAghAIABYAO2Pz/ZtiPcawP61rxHpWyN/eyxjx3kyW9LOzLmD0yLk+ctS9VKc8a66u9KACMsQAgacD2yQzlhF7Y3mTpXZJmzZ49m8f9j8/iu7uqqgFJR4f9V25Sddwx9v/snWeYZVW1tbtCRxrY3VVrrzEmOeegoqKggGC6BkQUxYAYUbl69Zr1M6EooGJAFFSSigH1CiKKiCKiIIIIiIgEyVlyavL3o4/YLXTVOaf2qRP2+z7P+Ed4nlNj7jX3XGOvdUNIh6bx8TKkgWkQi6KYIWlY0iaWftn4Woa/OZroiLTbQjoql+V6OWfWGwACAAQA+n0DVirDPiK4c71ZXRLSrrZZA9ufH4xaWifsQxpfd+Ar1Mne9SxLzwlp9hQ8SwCAAAAiAEAAgABAL870hsqyHLf0FYK8TfYF0rXKeTdOsZyS74ZDGrN0QNgP8B6JOtzL/0M5Pz2lNHMK/SIBgCk23E/juL6uHodxlKSnc2TNtC1ys2w/N+zjaa5qscjcYPuHll446FdqjI+PL7D9obAv4DoXtIwgzF8i5/+NshxjNQAgAEAAYAB8UpZjjauuWOea0xUhvRznTGF2YM+2/fywT6bfRNOoi0J6RUhtDfsJABAAQAQACAAQAOjRZ+BY2PuGfRs13tTm/2XO+Y0ppXm4pz1SSrOV85ND+j4b/2ga5ztXS3pZSmlum89KAgBTXGz4+r9LAyhLe0kyy8/0I2l1S5/lZXOg9StJe0haqUa+niPp2baPCvt2PIAauiPsg21vR9gMgAAAAYCBGd4sH9KHCLQ2rUtDeh3OaZ+iKGZZekvYf8NPqEshgF0JABAAQAQACAAQABiI9z1pdtjvZvO/SUlXOuc3pZTm4542PVeW8y29POzTCPKibryPW9qtnQAPAYApBAAkrRn2DRhw2vUH2y8bHx+fy/LTtQHWjLIsVwzppSH9vnHkDd4clAGv/YmQNq7jZmdRFMOSVrf9DktX4Yfa63RLu0sa58kPQACAAMDgbP5bekfY17DONaVbLL1LOfPu1b7nxiV9lNkB6rIuDmknAgAEABABAAIABAAGIADwFnr55uvf0vtTSsvhnLb9tnxI7wn74uBaZNS9k5ovaoQA5rbYLxIAmEKzvS/HfUyrHgjpaEmb257J8tMT6bdZynmLsI8J+z482te6M+xv297K9nxJtfa2pLmWHhfS/4W9CH/UTjdb+mxIG4TEV/8ABAAIAAwIRVGMKOeXhX0F73FN6TbbH89lubAoCgzUXk+5ju3vNk4UwlOo24PD80N6EQEAAgCIAAABAAIAfbwZu2PYfLDT7LuhvZ+kFXFO2++Py1k6Muyb8RPqgV7+ckkvTSnNbKFfJADQDrksN2ikfjDf9OifYe83NjY2P6XE6tNDpJSGxsbGljf3LvXv8ebSKZK2CXtU0hCufuSlYkYaH5/tnJ8Z9olh38pmwcDrVktHR1k+wdJI3YMwAAQACAAMVM86Pj7T0ksYGDatG21/cGzhwrls/rfVR46EtHXYv6V/RD2mS0LapdmPKggAEABABAAIABAA6JFQ5SxL/xX2RdR0c/Ne2x+XtDzuaWu/Y8TShmH/nK/+UY/pduW8q5r8YI0AQBsBAEkzQ/oYKf5pfUHdk6WnL4Zc/9NoxFgYe193h/0n2+8dGxujGZz8ub98497W33IiwEDqrrDPCOktRVHMw/EABAAIAAwejUAfR4U2p0Vhf7goitk4p3WKohgNe6ewz8FLqGevubK3b2ZwSACAAAAiAEAAgABAD2zGjlraIeyzqefmNght7ytpDPe0FzaR9PSwf88eB+pR3WR7h6IoRggAdCAAENKmYZ+G0abhyH/7z7ZfZpsjmPuhSS/LOc55p5BOZ4HsWT0Y9oW297G0uTjevNUmcB1Lnw77vMYzCk/1fz38zfbeljaRNILLAQgAEAAYQE9ITwn7VNa95jYJLB3C10Jt94rzLL0i7GvxEupx/S5yfiIBAAIAiAAAAQACAD2++T+snJ8Y9vHM4Zr+wOUw22vhnrZ6+dmWdgr7D/gN9fh1AGdYegYBgIoDAEVRjIT0tsZR0Jitk5v/0q+V8w6S5rD89FVjNks5bxX2CWHfj5d7SveEdKSlbRnqTmHQYs+ztE1InwvpSo517VNJ94R0qKWnS5qPswEIABAAGNjN/80bfSkDnOY2/7+ey3JVnNPWe9CKtt8b9mV4CfWJfpFSEgEAAgCIAAABAAIAPTuDk9YI+yR6+ab3U44MaW2c07bfXhn2BXgJ9YHuD/uEkDYlAFBhAEBS2D6SDZ8OJ1ik05XzE1NKfJ3chxRFMZxzXjfsU/Bzz+jPzvklwUtEVR4fcs6FFt8V/zFL/8RjfaW/WnpVSAk3AxAAIAAwuEhaPezvhn0va9/kAwRLh+ayXD2lNIR7Wt78n2/pvWHfwKwA9dWmoP2toijmEAAgAIAIABAAIADQg7O3eWF/n1Nmm/7Q5biQjHPafva8lVO8UJ9pUdjfCmlVAgAVBABSSkNhPzfs6zBXR5vSP5QprcXgqe+btBlpfDyF/TtOAujqInCepHeUZZlyWQ4VRYE5K/a5pBFJYekTYf8t7NsZ/PbcsUh3Njb9P6qyfFpZlmO2h3EwAAEAAgADuxk7JGlN2z9kYNj01wPfl7RKSmTjWg6a5Fxa+nDjyFX8hPrxqOD9bM8lAEAAABEAIABAAKBXKMuybAR576OGmwjy2j+3TXCkvWfOcrE4yHszXkJ9qAdD+nzkXBAAmGIAQDkvb2k/TNXBY2rs48qyXJelZ3A2RxsnAfyssRmNz6evli61dGCU5Xo4cRqbxrJc3dI7wz457JvwYtfr4NqQfhnSBySN4VAAAgAEAGozMEyWvsBa2OTAwP6JpA15erSx+S/J9qFh34OXUB/rCtuvkzSXAAABAEQAgAAAAYAe8ECyvV/jAxtqePLTfE5Szk8oioKPKVv3WhHSe/jgF/W57gn7DUVRjBIAmEIAIOzVuAOko3fU/Eo5PymlxFeZgxUCGFbOm4f9E0IA06IbQvpeSDuPLVw4Dwd2bRi8lu09G0eVXcIpGNOuC20fbunVKsuVeQkCIABAAKBWa/Bylvbl2P+m9QtJG/DkaMtrq9j+Mic/oQHRWZK2TSmNEAAgAIAIABAAIADQxb//eEh7Na5Von4n3/z/laWnFkXBfkrrXpvf2Py/Gi+hgQj05rwdAYApBAAsvZJNnI5t/v9aOT81pTTK8jPQIYCfUUMdPbr11LBfb2kVSTR+3R8Kj3jx1QDb235/41QAvNrB40ttnx72hy1ty5F5AAQACADUsuecFfb/hH0b62JTOl7S43hqtPGcKUuH9CWO/UcDdnrWsbbHCAAQAEAEAAgAEADo0hxtlqU9wr6Rum3qustTJG1ZFMUI3Xlbz5r3h30tXkIDdLLfCZLWJQDQfgDgeIzUgcVKOl05P5HN/8EPAeSc1wv7FHzfEV1j+wmSZuO2nnyJmRvS6pZeHPYPwr4Fz1am20M6JKQdba8piZMvAAgAEACoZ68509Jbwr6SL7Kb0vkhPYPQaOuklOZb+gD9HBpALQrpPQQACAAgAgAEAAgAdGl2tgtHsTcp6Z/KeRu+/G/7OfNWenk0gLo77M9Jmk8AoMUAgKR1G4lojFStLo6yfHJKieOZ6zGYnVGW5cYhXYr3K9dNtl+Ky3re/0NhzyzLcjXbe1o6KexrGl8qssY092XSbWFfbfsYSa8bHx8fC2k0ypJ1BAAIANQ0ABDSTEu7cXxj02vpn0LaIdj8b5myLAtL/y/sO/ESGtRTtSRt/68rtAgAEABABAAIABAAmIZw5ail7dmQbfpjyityWW7Hfkpbz5d5Ib037JvwEhpQXWfptbZHCQC0EACw/Rm+JKlc19t+EUtPvUgpDSnn7cO+jBqo/N6nQyXNxGV9VQ/DOeeNw35L2EeF/cdGIABPL32E0Q1hnxXS4bbfnHNerygKTo0BAAIABABmhDQa0s5hX8Ca2dRRoWeE9CyeFK0jaY6lj4R9D15Cg/ycsPT7nPOaBAAIACACAAQACABMw1xslnJ+Zth/Ye+lifmY9Ffl/HxOUm5j3bSXC+ntnDKBaqBTbT9e0hABgCYCAI37/c7AOJUf2fy+YLOyrsOzeV684clGZ7X6Y0gb4LD+rQtJG9p+VdhfDOnEsC8N+94aevnesP8a9k9C+nxIr4+cuaMYAAgAEAB4rA2QLcP+O31gc1dGhbQDT4nWKYpiZtivaRyriJfQoOsO25+StAIBAAIAiAAAAQACAB3sr4YlPSXs3zU+/qBeJ9YlznnXlBLXv7Y+c51te1feG1Fd1n1LB1hangBAMwGAxffPXI9xqruLwtKXLI2z/NQ6dTdm+5Mc71SpbrT0Btw1AJtXZTk7ct4g7Gdaem1I+4d9fNjXDvBX/teGfbylfUPazfbTJK2RUpqLIwCAAAABgGUMcjYN+yR6wKZ0g/to+N9rm/+WXh32RfgI1UjnW9qeAAABAEQAgAAAAYAO9VdDWnwi5k/DXkSdNnGSsrRnlOXydOdtrZnP4MQ4VDPdbOnpBACaCQDYB9T0C8zO/Oj2T3NZrvWvO+WgvuScben/wr6f2qhmE9XSV1NKK+CugXopGo6yXDGkVSxtbOm5tj9q+8Swr+hjv15t+1hLeyvnnUPa2PYqOecVuMcMAAgAEABoYvN/1bCP42uhpkOibypTmscToo2Bof2ssM/Fa6h2Xw7ZB0vagQAAAQBEAIAAAAGADryzLQj7V+y5NKVFlt4iaT6deeuklFYP+zx8hGo4G/o1AYBJAgCS1g77ZAxTzV1yYf8lpGewuQONjc0ZZUprNu55okaq0Vm2n4y7BrpxHZI0ant22HNyznZZbhfSW2wfHPZvwr68ccXGPxunbNwei++rva+Dd6o92Ph/3B32bWHf2BgWXhb2KZaOCulDkfMzLa0U9lzbsySNsiYAAAEAAgAtrIPDOec1bX+vsa7R/02sKy3tPjY2NrsoCh4QrYVMhkN6ethnB3fSonrqrpD2C/sGAgAEABABAAIABAAq/BsXIR1Jf9XktTzSmySN0J23vO8w5MV7e2fiNVRT3RvSgZYuJACwrIba3rmxkYJhpq5bLL2J5Qceo/F7Udi3UiOV6E5Lu6WUaAzrHRJYPue8fkgvCOmVtt9maZ+Qvhb2MWH/IuzTltBZjXuwLmxCf2/88//6d09oHNn2A0v72N4rpDdKepak9Yqi4G4yACAAQACgqiHOjFyWq1g6gs3/pvRP5/y+oihm8mRoa3NtXdvH4iNUc11b8+ctAQBEAIAAAAGAKp9d9nhIX+U02KZ0a0gfD4lTvNog57xaLA6Nc8oEqrNua4gAwGNsoMy29HEeEhVJOrAoilksP/CfKOdhS/vS/FX2YDtAOS/AWbAsFixYMFfSWktos5C2D+mZzUjS5kv8u7yIAAABAAIA00KZUmHpM2HfRc83+Ze7zvnDKSU++2+DlNLCsI/ARwjVXgQAEAEAAgAEAKqa/0pjtj8c9k3U5aS6OaT9QxKdeVvPkfGw96nzxidCaJIAgKS1vfheSX6sqet0S6ux/MBjURTFDJXlaiH9lFqp5hqAsNfGWQAAQACAAMCA/W0/3bjWhn5vsntCc94rpbQCT4S23k1mW/p/fAiAECIAgAgAEAAgAFDZ5n9h+32Nk2Woy4l1e0ifD2klOvM2niFlOSekPfAaQmjCAEDY28biu4v5saZ4XI1yfmlZlhxJDhMtziO2d+TKjWrud7H9LEncqw4AAAQACAAMxt9V2p2vhZr2wD65LMd4GrTttZfyToIQIgCACAAQACAAUA0ppVFJLwn7aupxUt0f0gEhjdOVtxU0mWFpy7D/gZcQQssMAEiaHfbbw36IH2rKi9b+UZYLi4LTJ2HSRXp+SHtzrGsFDzf7C7ZHcRUAABAAIADQ55uxs0N6c9jX0OM18eW//Q1JK6eUeBi0Ppwetr1d2GczB0AIEQBABAAIABAAmDpFUQwr5xeHfQu12MQ+in382NgYmyhtUqa0ctjn4yWE0IQBANs57GP4kaakh8I+zfYTWX6g6ZdYe4Owfxn2A9TQlHSu7dk4CgAACAAQAOhXtHjz/2VhX0RvN6nusv11ce1au8PpoVyWa1s6Gi8hhAgAIAIABAAIAFTSX40o5y3DvoE6nFT3hH1MWZZBZ972nkIZ0jfxEkJo8gCAtBFHTE5ZN4X0TklsQkKrL7Kvov4qUM7r4SYAACAAQACgTzf/Ry29IOyz6Osm/1qosfm/Ok+Atv22gqV9w74bPyGECAAgAgAEAAgATH3z39J2Yf8h7Aepw0k3/3+gnNcvioLrXNsgpbSc7Y+EfTt+QghNHgDI+eX8QFPSg5aOD2klliBoYwC3IKQfUEdTfsC9DTcBAAABAAIA/UjOeaOwz6Cna0q/lLQK1T+FjTT7NWHfiJcQQgQAEAEAAgAEACrprR4f9q8ax9pThxPsoYR0oqXNiqIYpitvO2yyI6fGIYSaDgCEdAQ/0JR0S+T8IpYgaDsEUJYbhXQXtTQl/QAnAQAAAQACAP1GSmmVsE/mSqimdLrtzaj8KflttbCvxksIIQIAiAAAAQACAJX8DdcM+8dhL6L+Jrk+WTpHOT9F0ghdedt+25jrhBFCTQcAJI1YuoofaEo/7LejLFm4YCoBgJGQ9ueYqCnpcnEKBwAAEAAgANAnFEUxVJZlDvsEesDJj/0P+9chbRYSR4W2v/k/HvbR+Akh1IcBgC1t/62xwdZN1Xvzzr63B/4Gk+n2kF5HAIAAwLQ8m+wI+ydsxja1+X9eWZbrp5To5dt7d5zhslwY0pd5d0QItRIA2LDRxPEjtafbJD2BZQgqeKFd09JfqKm2dZMlTuIAAAACAAQA+mLzXzmvEfbhjXsw6eUm3/znnWsKSJpr+0PcFYoQ6ssAgL2apfdZ2rebqnUIQLrF0hHd/hs0oU9JehIBAAIA09BbJdsHsHY09fw4O5fl4+jI2yfnPMPSq3l3RAi1FACw9GZ+nCn9qEdYms0yBBU0jvMsvZdUedu629LeOAkAAAgAEADog74v2z4w7Dvp4Sb92vDPyvmZVPuUAifDkp4di7+exVcIob4LAPRQ33Vbjf1xkQnjEQAgADBjxowZM1JKy9v+dNj3sXZMqr/Zfr6kUSp+Cs+Kslwt7IvwE0Ko1QDAkfw4betaS9uLYyihIiw9Iew/Ultt6UHb/1cUxUycBAAABAAIAPTwoHdeSJ8M+2b6t0n1D0vPLoqCgeEUkLS67e83TlPAV/2n6yxdEPaZYR/T0MG2912Wwv5sSIct8c//JKTTw7447Dv4TREBAAIABAAIABAAmMLmv/TOsG9k3ZhUF1h6haR5VHv7FEUxO6SD8FPfzixutHSB7TPCPi7sY2x/Y6Jefome/juNXv4XIZ3deCe4mN8VNRUAkLQg7HP5cdr8Qe2vSxpnGYIKm8j5lj7HcK5tneayXBsnAQAAAQACAL2K7feGfSt926S62tJzi6IYodKntPk/x/bb2fTtC90S9u9C+mZI77e0u6VtLG1maUPb64a0ckgrWxqXtMKy5JxXjJzLf/3zDa1jaaOwnxD2lrbfaOkdtr/kxdds3MD1kAQACAAQACAAQACAAMCEc9t5lv477GtYMyfVlZZeJmkulT7l98fXhH0Dnur5qy7utnRG2AfZ/qik11na1tLmlja0tE5Iq4S0sqQ0US//SE9vq9HHr2ZpvcZ/ZyPbW1l6iaX3h3Sg7ZMsXcjfgQDA0k1GzluGfQU/TttfozyHr/+hSoqimBHSNmH/hRprS5fa3hEnAQAAAQACAD24ETvb0i413zxo6th/S1cq5+eNj42x+T/VgeHigdO1+KpndH8jAHSdpb+EdJik3SxtEfb8kOaGNDvKcjTnPFIURSefSSOSRm3P8uL/73xL60fOrwh7H0s/D/sfjdNKFrHRQQAACAAQACAAUOcAQBofn2VpZ/ZSmtJNtneWRC8/tX2CoSjLzcM+jT6sp3r528O+PuxLLB0Wi0O7j7c05sWn/c2yPbMsy5GU0lCHvDGjLMthSaON/99cS8vlnFeV9IKQ9g77l2Ff3Vhj7sZDNQwA2H4LR0+2d9R42IdIWshSBB14gM9qHOtzL7XWsu4K+724CAAAajSIJgDQB0iaY+lVjRdwerYJNv9DusI5vymlxFGhU/fd7LB/jK+6rnvCvizsUy0dYumVTmndfri6TNIC2y+0vV9Ix4d9XmOIyACRAEBd+y4CAFCtpwgA9E0AQDnv2Pjyn/ViYv0zpPdT3VMn57zQ0ucbvSTe6p4WhX1l2H8I+1Dbr885b5JSGu7xPaahlNK4pe3C/kjYP2mcBn9TY3+Tv+3AnwBgf4lNxrbv4NudZQg6+ALwrLCvo9ba0lckLYeLAACgJoNoAgA9TkpplqX/4uq1po5NvMo5vyWlNJ/qnjqNEycW4a2u6bKw/8/SXpZeZHvlfj5BUNIKlrYM+81hfy3s0xtfQPG3JgBQp76LAABUPf8jANAHAYCQnhz231gnJtW1IX0wOPa/infIUUsvCvtyfNW1L/0vt32spb1D2iXKcvV+9lRRFLMlPdH2W0P6atgnN8IABHsHMQCQUlox7GP5YdrSqTnnVViKoIPDlTmWTqDW2tJPba+FiwAAoCaDaAIAvT24GVHOzwj7j6TsJ938v9U5vz6lRJCzimdDWa7R+EoFb02vbg/7pLD3svRcSasURTFwx99KWt72FmHvHvYhti/lGUcAoCZ9FwEAqNZTBAB6PgAQ0taNtZ11bpIPJkP6QEgLqOxKei1ZOhpfdeFrf+m3IX2i0cuvkVIaHcB3xeUtbRLSS0I6IOwL+dsPWABA0kZhn8oP08bxfdIniqIYZimCDi/0b6Te2tJZIT0ZBwEAQE0G0QQAepiyLFduJOsZGE7+t9wnpTSHqp46RVHMsvTJsO/EW9M6JzjC9ovCXsP2cpLq8M46YjtZ2sTSW5kxEQCoQd9FAACq9RQBgJ4OANheL+xjwr6PNWLS646+FFJBVVfSXw1ZenPj3nb8NT260/YxznnnkNaKsly+NutQWS60/Tjbe1r6LSfGD0gAwPZzw76IH6ZlXVmWJV8XQ+ebTGl2SDdScy3rhrBfiIMAAKAmg2gCAD1KY/P/92z+T6q7bH9K0opU9NQpimIopB3CPh9vdVQPNTb9rwhpf0sbhjRHUm0/FJA0aqkI6bkh/bhxpR0bJgQABq3vIgAA1XqKAEBPBgCiLIcsrWP7qLAfYH2YUHeHfVAaH6eXr+o9MiU3jmbHX50Prlxl6cuR8+MtzS3Lcrgo6pdjkTTD9qileZKeaOn7DQ8SBujbAMDiFNGt/DCtNyYsQzAd2B62vT8115beKmkUFwEAQA0G0QQAenOYu1LYP2Xzf1LdbPuTksao5oqGN2U5FvZXGvdW4rHO6I6wT7X0CeW80SAe8T9VGneMPsnSNxofnhAEIAAwKH0XAQCoumckANCDAQCVpUM6gnWhqc3/rxdFMZdqrsh70qyQ9sFbHe/l/xzS3pI2xnWP6cMRS9uEfUAjWL4I3/RRAEDSzLA/xY/Sxo9ov4BHAEwHKaUZynk7jvtpq06/II6dAgCAegyiCQD03iB3tZC+0hgs0JtNfFf6/qrDOenTN6gZDukFYV+Nvzqi+8M+19IHJK2H45obHkp6lqUDw76YUBQBgAHouwgAQNV9IwGAHgsApJQWWPosX7421RcdUqY0TiVX+kzYOux/4K+O6IGwzwlpr5A24ePBpnr52SFtFfZnwj4XD/VPAGBB2Afzo7Ss623zMgTThqXVbJ9B7bWs75phMgAA1GMQTQCgl3o3e6wRtOaktcmGL9K3Q1qNKq703aG0/QP81RFdbmmfkJ4eEl/8tz48XNE5Py+kQ0O6BT8RAOjjvosAAFS92UcAoIcCAEVRzLK0V9h3sSZMsvkvHa2yXLcoiiEquRpSSiuGdAjhk47oVtv7WNoqpTQPt7Xcy88NaRvbhzSu+cJTvRwACGndsI/nR2lZh9ueTcnDdJFznm+J0zpalXSWpbVxEAAA1GAQTQCgd16K59h+F/c1NtWrHRfSylRwpf6bYenFDKwr172Wfmh7a0krMuSe0qbKcEilcn5m2CfiLQIAfdp3EQCAaj1FAKBnAgCNzf+3srnVVJD358p505QSocgKsbRT2JfhsUp1X9g/s/RsSSvgsim9bw5JSpZ2tHQiQZXeDgA8Keyz+VFaW9xs7yRpmHKH6SKlNOTFx3gySG5NV4a9EQ4CAIAaDKIJAPRGzzYaOe/B3XhNDGCko4OTmjoxkJll6XQ8VqlXL7P0KktzJbHxXxFjY2NDlkpLH2gMue/HbwQA+qjvIgAA1XqKAEBPBADK8fG5lvZsbP4/xHqwTD0Y0s/KslwzpURvVG0v77C/jf8q3fj/m+09LY3bxq/VeXU4pbQwpNeGfSm9fA8GACw9kzRby/pr2BtQ4jDd2N4w7F9Tgy0/8LahGQUAgBoMogkAdJmU0hxJL6r58LapIYzt42xzSlMn3hmknfFYJXoo7GvDPiznvA5f/Hd842uLsI8K+2a8RwCgT/ouAgBQ9XOQAECXAwAhzYzFfdQFrAOT6syU0kpUbrVIGmn08uzXVaObLR0SZcleXocpy3K9sL8X9g34rkcCAEVRDNnelR+kjeP/eRGC7jQB88P+MjXYmiTtnnPmxA4AABj0QTQBgC5SFMW/hjUX87XGpF9gnGRp66Io6M+qf18YaxzDiNemfqTtGZHz66IsF+Cs6SGlNB72O8I+Dw8SAOiDvosAAFTrKQIAXQ8A2H4+m//Nbf5L2oaq7YAHpWT7O3isgl7ePsf2e8bGxubjrGlbxxaE9Lawz+RagB4IAOScZ1t6Fz9Iy/pfSbMoaehSI/A/Yd9BHbZ0t+ynQhrFPQAAMOCDaAIAXaKx+b9N2Gew+T/JUaH27yw9tSgK7gntzLvCbpxAUYm+aWlLfNqVweFISM8O+ziOESUA0ON9FwEAqPr5RwCgiwEASZuEfQ7P/0n1B0vPEnPWTnhwyNJzOQ1pyron7B9b2l7SHJw1vaSU5lh6ctjfJQTQ5QBAlOXyIe3DD9KSrre0I6UMXXwheG7YF1GLLQUAvhbSTNwDAAADPogmANAFiqIYUs5PCvs0Nqsmv0pNOW/Gl/8dGxo67GMaQQv81p4WWfqY7cBRXfXyiHJey9IXa77JSgCgt/suAgBQ9byPAECXAgCSNg37l/RQk+qsxuY/H0Z2AEvDln6Cz6aku0P6fNirSCLI2901bSVLe4V0N77sVgBASmF/nx+kJf0+pM0pYejiMGT1sH9DLbb2wLM0G/cAAMCAD6IJAHTnxXa1kH7BwHCSu9Sla3LOO3CPesfeEYYtvT7s6/Fb28eEXmzpFSmluSklTNVliqKYoZxnh/SqsC/jdBUCAD3YdxEAgKp7SgIA0xwASCkN5bJcPeyj6eUn6eXtS0N6FZuqncPS0xo9KZ5rz6M3W3plsAfQM+Sc5yrnV1j6Bx9LdCEAYDts/4ofpOWXoIWUL3T5peBrPDRbeuBdaI78AQCAwR9EEwCY7iGNvWpIx9NvTXLsv3SBcn5BSomjQjs3MFw17B/ht7Z0X9gnhrQtTupNJD0upD+yOUMAoMf6LgIAUPWsjwDANAYAJA1JWtP2t5mxTqrLQtqVKu2oH2eFdBhea0v3hnSGct4upUTYvMcoimJE0lPD/kXYi/DrdAYApDXC/js/SEv3h3yYsoUeGPD9D0chtqx5OAcAAAZ8EE0AYHqHNLZ9GF9pTLr5f55zfklKiS8xOufF4ZBeEPZVeK4t/dj2Jjipd0kpDSnnJ8biY3E5RpQAQK/0XQQAoFpPEQCY1gBALsuxsA9oBAF57i9bl4e0OxXa8frfKuyr8Vsbm//28ZK24Jq5nvf4E8I+nBDAdF4BYK8X9u38IE3rupBeQ7lC1x+YOW8f9rXUZPOStCHOAQCAAR9EEwCYJiSF7c8QyJxUV0fOr0kpcRJTB7G9IOyD8FvrA0NLX5e0Li7qfYqiGFLO61s6Iuw78S8BgB7ouwgAQNWbIwQApikAUBTFnLD3o5efVNeH9OaQZlGhHfXjzLC/wMZoy1oU9rctbc7mf38gaWXz3jqtAYAN+TFa0oW2d6BUodvklNZt3INIXTYfANgG5wAAwIAPogkATAMppXmW3hP2rfRYE5+eZmnPKMvlqM6ODgxnKOfNw74Gz7V27L+lr+SyXIWjQvvK70PKeaWQvsBJAAQAeqDvIgAA1XqKAMC0BQAsvZfN/0l1q6WP5LJckerseO1vEfYZjXvs8V6zkr4T0ko4qL+QZEufIfAyHVcA2M/ix2hJp0taizKFbpNSGg77L9RkC8r5RTgHAAAGfBBNAKDDlGW5nKW3sfk/qe609FZJM6nMDg+w7SHbn2Vg2JLusnRAWZZi879vB+VzgsEhAYDu910EAKDqZxsBgA4HAEKaHdKbOVV1Ut1k+yNpfHz5oigozk56sixHGuFyTjdq5dh/6aiQCKf0IZJm5LIsnPMHmat0OgAg7c6P0bQeCvunRVFw5A30xrBP+gZ12VIq8D24BgAABnwQTQCggxRFMWJpj7DvobeaUDfYfruk2VTltAxQCks34ruWwilfTCmN4Z4+X/OkWSHtz+CQAEAX+y4CAFD1c40AQAcDAFq8+f+6sK/iGT+hbgv7g0VR0MtPR93nvE7YP8N3TeuOkA4LSbinv0kpreCcPxD2Dfi6cycAvJMfo6UjAr9KaUIPvRi8j7psKQDwMVwDAAADPogmANAhiqIYtfRCrmCaVLeE/XHbC6jI6cHSrviupXd6Nv8H6514PKT9wr4JfxMA6ELfRQAAqn6mEQDoUABA0kxLLwj7LJ7vk/ZKB7D5Pz1IGrb94rCvx3tNb/4fEtKauGcwSCmt2DgJ4Bb83YEAQNhf4Mdo4UsBmy+IoXeGffZzqMuWHnqH4RoAABjwQTQBgE71XdJ/hX0ux6xPqNtD+mJIK1ON00NRFLPCPh7vNf2MOLgsSzY0B23tkxz258O+HZ8TAJjmvosAAFT9PCMA0KEAQOS8Tdjn8GyfdPP/kFyW9PLTV/NF2AfgvSaP/bePDK7nHjhSSitY+jge70QAQDqQH6OF42+k3ShJ6BUkbUldtvTQOwrXAADAgA+iCQB0ZjDzpLB/G/YD9FTLHhiGdGB0+N5WWBrbW3OMbZPPB/tYSeuklDDOAJJzXjXsH4Z9P34nADCNfRcBAKi65yQA0IFeMqW0Stin81xvavN/jZTSENU4Tb28tI6li/BfUzo157wurhlMJI3bPgKfVx8A+Bo/RtP6p6QdKEfoFcbGxhZSly099H6AawAAYMAH0QQAqn0JHQrpCWH/ns3/CfVASF8LaS5VOH2klIYtfbnxNQw+nMif9i9sbyaJgfaAUhTFUEophXQ6J7UQAJjGvosAAFTrKQIAlQYAiqIYKsty3bB/E/aDPNeXqUWWDi3LciU2/6ex3nMeCul/8eakesjSRWVZrlYUBf4cUCTNCGkNAr0VBwAs/ZEfo2ldl3PeiHKEHnrZHA57EbXZtE7GNQAAMOC9AQGAal9C17F9FD3UxAPDsI8rUzIVOL3knNcJ+3d4cEI9GPZZIW2LY+pBWZbrhfQXvE8AYJr6LgIAUK2nCABUFgAoimJIOa9u6fth38czfcKg5LGSNqQCp5fx8fHZtv+MByeRdJFy3oFwSm3Wwc3D/hUfYBAA6IauSimNU4bQK1gatnQhtdm0LsU1AAAw4INoAgBV/ZZluZLt79E/Tah7wv6Rcl6frzG6Uu+7hX0dPpxQ19t+BW6pUV2U5XBILwz77/ifAMA0PIcJAEDVGx8EACoIADQ2/9cI+5Cw7+J5PqF+zuZ/d8g5b4r/JtU1Ie0RZclJczWhKIpRS/8V9rmc6kUAYLp1OSUIvYTtYdunUJsEAAAAABqDaAIAFZBSWhjS/hw9N+mX//+nnDcuimKY6pvmWi/LIuwDOTJ00mfC/yuKYiaOqd178jzbe4Z9A3VAAKDDfRcBAKjWUwQAKgkAOOflQ/ps2HfyLJ9Qv5C0GZXXtX7l/+HBCXVnSJ8NaQy31IuiKEaV88vDvpU6IAAwnceNXED5QY+9GAyFfTj1SQAAAACgMYgmADBFUkqFpb3Dvpneadn3MIZ0pqVN2fzv2nvA5mGfhhcn1LFmYFhbcs7J0le5Mo8AQIf7LgIAUPX6TgCgggBASHvRy0+qs2w/TRK9fBeQtCDsM/Hhsq+msHRsLsvVcEs9SSnNsb0vtTDFAAApipZ+sKMpPeixF4OhkL5CfRIAAAAAaAyiCQC0SVEUM1JK8yy9k4HhpJv/f8tluYkkjv3vzsBwqFHrHGm7DI/a/oPtjULCMDWlKIoZZVmu3rhDlJMyCAB0qu8iAABVz/kIAEwhACBpZkhv5sv/CfVg2GeH9GzbI1Rdd7D9Qk4qmniNKctyA66Zq3mdSAss/Z6rAKYWAODHaP4H+xFlBz32YkAAoDVdJmkWzgEAgAEeRBMAaJMypeUsvS3sG+mZJhgYSn/OZbk51dbVQci47SPw4zJ1tXN+MadTQGPAvlXYF1MXBAA61HcRAICq53wEANoMAEhaztJrwr6W5/eEm/9nhPQsqq17SBoN+6Cw78OTj6m7QnoZToGiKIaU8xYhXUhdEAAgAAB1fDEgANCarpK0Os4BAIABHkQTAGh3k0h6JZv/k+pM5bxtSomvhbpb52uGfT5+XMbA0P5clOUCnAJLPN/fxZCdAECHnscEAKDqOR8BgDYCACmlWZZ2CfsSnt0T6nw2/3ugL1ncy5+CHx9T94f0TUujOAVmzJgxQ9Ic23twYgYBAAIAUMcXAwIArelaSZvgHAAAGOBBNAGA9nqq57KhOqn+bvslkmZTaV2s8bKcEdKLw74fTz76qzZLJ0naGKfAUoN2aWHYx1MjBAA60HcRAICq53wEAFoMAKSURpXz9tynPqlukPRyqqwH+hL7BWH/A08+pk5VzpunlDj6Hx5B0kqWjiDQSwCAAADUrWEYCvuz1CcBAAAAgMYgmgBA64PWrcM+g3vlJtQVll4haR5V1v3+3zYB4MfWTc55Z47+h2XUzXZhX06dEACouO8iAADVeooAQMsBAEubhH1O43h7nt3L2Py3tEdKaS5V1l2Kohi1/bGw78WXj9LNYb/W9kycAv9RN8OStgr7POqEAAABAKjPi0HOQyG9m/okAAAAANAYRBMAaBJJw5IeH/avGRhOqOsk7SiJQUwPkMtypiU2MR+th2wfFGWJT2FZz/y5If1v2HdSLwQAKuy7CABAtZ4iANB0AKAoiqEyJYd9KkHeZfdHYV9l6Q1pfHxuURQUWff7kTXC/gnefJQesH1ILsuES2AZtTNi+0P08gQACABAnV4MuAKAAAAAAMCSg2gCAE2QUhqStFnYJ9IfTfJFtbQTldU75Jy3wpePIekSSyvjEJjk/XntxtCd0BcBgKr6LgIAUPVzigBAkwGAnPNaYZ/A5v+EusbSHkVREJDsnRrfJuyL8Oajgirn2N4Kh8BEFEUxNySu9SIAQAAAatM0EABoTVdKCpwDAAADPIgmANDcwHB129/kDrmJv/wP6cMhcVRoD2HpE3jzUbonpLeFNIJDoIka2jXsq6gbAgAV9V0EAKDqOR8BgCYCACGtFvY3wr6bZ/Uydbtz/mhKic/+e4SU0qil1/MO+ijdZeljBFWgGRpXAdxF3TQfALiOH4MAAPTtiwEBgNZ0Ka4BAIABH0QTAJj8hXFF299m8DLp5v+HQlpAVfVcjZ+MPx9V9ydaWhV3QFM1VJYLQ2INIABQ1TOZAABUPecjADBJACCklUM6MOxbeU4vU4uc88dTSitSVb2Dc14Y0lfx56N6+XPFSV7QbB1JsywdSu00GQCwdBY/BgEA6NsXAwIABAAAAACWHEQTAJiAoihmh/2JsBfRFy1TNze+/Gfzv9fquyzXD/syPLqUrrf0Kkl8MQRNk3PeOuzrqR8CABX0XQQAoOo5HwGACQIAkuZZel/Yt/OMnmDzX9q7LMuFVFRvYWmNkM7Eo496h98Nd0CzSBqy9JSwr6B+mgsA/JEfo2n9khKDHnsxGArpa9QmAQAAAIDGIJoAwDJIKc0P+5Nh30JPNMFR6vZBIc2hmnpwaGi/Nuyb8elS94V+hyu+oFVSSiMh7U8NEQCooO8iAABVz/kIACwjACBp1NK7Ofp5Qt0X0kEuS6eUKKgeQtKMsB8f9v34dKn39z9YmodDoBXKspxvaa+wH6COCABUqcspL+ipIaA0bOkMapMAAAAAQGMQTQDgsYepy9l+O9efTai7wz6kKIq5VFLvURTFcNgHhn0vXn1EV1raBXdAm+/Sq4R9E3VEAGCKfRcBAKjWUwQAHjMAkFKabenlXN8yyT3q9jfEtUg9iaRh2+/Cp//hWemlkoZwCLSxXj4u7FOpIwIABABgkIcWBAAIAAAAACw5iCYA8OgXwzkhvZmj0yfUnWF/o0xpjCrq0aFhSmXYJ+DVR/RA2D+UNI47oM2h4WhI+1FLBACm2HcRAICqn00EAP4jAJBSmuvFv8s/eC4vU/c2Nv/XoIp6dr0YoZf/j3d3+zhLK+EOaOv9WJod9kcbswxqigBAJbqa4wWhl2gEAC6kNpuU9DdcAwAAAz5YIADw6H7pudwPN6HuD+lw5bxqURR8fdG7ff/WYZ+LXx/RTZZ2xhkwhaHhUEhbhH0J9UQAYAp9FwEAqNZTBACWCgAURTGinJ8X9nmNq394Nj+2vsuX/z2/XszkKq+ldLOl3SXNxB3Q9jtyzluEfQ71NFEAwP4RP0bTul7SppQW9FDzMBz2Imqz6YfeT3ENAAAMeG9AAGDpDZ6nhH0+fdAEX1FLP1fOG7H53+PDDelVYV+LZx+p9eMlzccZMMW6Wj7sfagpAgBT6LsIAEC1niIA8EgAoCiKYeW8Zdh/4J7nCfVH2+tRPb2NpE3w6lL6qaW1cAZMhcb1MAdxTd4EAYCQvsKP0bRuCenllBb0CmVZrk9dtvTQOwrXAADAgA+iCQAsfhEclrRp2GfxtdCEm/8n5LJcN6U0TPX09MBwOOy9wn4Q3/rhsB+U9AqcARXU1pDt7cPmVD0CAO32XQQAoFpPEQB4JAAQ9tqN04/of5Z9HdJvQ3pccId6z2P79Xh2iT02++2SeAeFKvr5J4R9DXW17ADA5/kxmtbtIe1BWUEPPeC2oy5beugdjmsAAGDAB9G1DwCklEaU8+PDPpGB4cSb/ykl7lzsj54/wv4uvn2kzs+xNAtnQEX1tTDsg/m6lABAm30XAQCo1lMEAI6UlENaLaQTeQ4vU/eG/YuQHk/V9Ae2j8C3frgRzv+dpHVxBVTYj32L2lrWFQDSO/gxmtYiS/tRUtBDzcMbqcsWHnr2h3ENAAAM+ItP3QMAR+WyXN/ST8K+n/5nGZL+kMuSo0L7p+ffPOxT8a4fDvt+S//NF0NQ8dr5srCvor4IALThHQIAUK2nCAAcaWnLkL5PkHfZJyGFfbpz3oqK6Q8kzbV0Jt71w2HfHdKncAVUXGNbhX0f9fXYAYDd+TFaOlrnW5QU9MwwUPosddnSsPs9uAYAAAZ8EL1Lzdf7k8M+POxF9D4T3BMqPUfSCBXTNz3/szjW8JF+/gLnvHFRFBgDKiPnvFLjS1OujCEA0GrfRQAAqvUUAYCTwv5B2HfyDF6mLrT0vKIoRqmYPqnrstwg7Cvwrh8O+2pzcgVUv3bOCelk6osAQCVDxZTSGGUFPTIM/Bk12dIJAHviGgAAGPBBdN0DAHeEfTd9zzJ1VmPzn+PT+4SiKIYtvZoTLR7RVywtxBlQeZ3Z72fDiQBAG30XAQCoehOj7gEAevnJN0+fUxQFQd7+qusdw74R//ph2z/gXRSqxtJI2K+nxh4jABCLjxPkB2lef4qy3Jiygm6jxQ+2v1KTzUvS9jgHAAAGfBC9C2s+WsZdi+dJ2k4SXwv1V8+/nO2P42E/HPbNll4iaQhnQNWUZbkuX+cRAGij7yIAANV6igAAWrb+Yem/xsfH6eX7DEsfD/suPOyHJL0MR0AH3pln2F4/7D9TZ48OAGzA/Qgt6dKQdqSsoAcebE8I+0pqsqUAAC+nAAAw6INoAgDosXSZ7RdTIX04MLRT2N/Bw3447GNtr4kroINr6LepMwIALXqGAABU6ykCAOixgrzSlZZ248vpPu3npUM5zcsPh3RVSDNxBHQCSYXtz4X9IOvG0lcArGWJlHPzut3Suykp6IFh4K68FLSseTgHAAAGfBBNAAD9p64I6XVUR9/2/KvYPgUf+96wPyVpNq6ADtbb86k1AgAt9l0EAKBaTxEAQI+1+Z/zW1NK86mQ/kPS8mH/HC/74ZAOipy5vgI6uYbuGPYN1NuSJwBIq4R0Oj9I03ow7ANTSmwkQneHE9Le3IvVkm4Iey7OAQCAAR9EEwBA/3l62ZuCr4X6uaY3CPsmvOzLglMsoPPv2GNhX0S9EQBo4RlNAACq3rwgAICW3DD9p3N+E5v/fdxbLL5++0z87PtCel6UJVd5QefW0Jw3Cvsk6m3pAEAO6Wh+kBZ+OPsnklanpKBbSJof9o8b97lSl8098M62NAf3AADAgA+iCQCgf+mflv4npOWojL7t+WfY3g4v++Gwf2t7ZVwBHR7Sz7T9deqNAEALfRcBAKjWUwQA0NKzzHeklPiYqb97i2eHfSFhFv05JK7ygs6uoWU5J6T9w36ANaQRAGjcjfAVfpCW9JeQnkZJQRcfZhuEfRq12FJw5yjbfP0GAACDPogmAIAeDvsW23ullFagKvoXSUOWXo+ffW/YX5I0jCug4zVn78TdoQQAWui7CABAtZ4iAIAavY/tz0hanqrobxq9PEeSS1+IsixwBEzDOrpr2FezjjQCADnnubbfzw/Sku609GoGEMCDrK8ajS+HNBP3AADAgA+iCQCgm8P+cFEU3JXe/z3/cEhfxdO+0dLzcQRM0zq6XtgXUHcEAJr0CwEAqHrtJwCAbrH9SUkLqYj+x9L7w76n5p6+O+yX4AaYDiRtyLUbSwQAiqIYtvRKfpCWta9tvqiBbjzERi19tPElDLXY/APvfZJGcBAAAAz4IJoAQM2HK7b3YvN/YDYBhkP6Ib72+SmlcRwB0/S+nWwfQd0RAGiy7yIAAFWv/QQAah7ktf0pSZlq6H9SSrPD3h9f+4+2WS9gWiiKYmbYP+BEr0YAoNGwPj/s23kYtaRf2V6dkoLpxvZKYX+PGmz5CoDnSRrCQQAAMOCDaAIA9dV9lr6eUuJoxcGp55Gwz+UkL30bN8A0DutHbe/JmkIAoMnnNAEAqNZTBABq3cuHfZgkUQmDQc553PbheNvflJRwBExjf/busO8kANAIAFjaLuwreBi1pNuD5BJ0AdtPDvtsarAl3WZpc9wDAAA1eNEhAFDfzf/DclmumVIi8Dg49TzC4MIPW3oTboBpfeeWXsB9vQQAmnxOEwCAaj1FAKDOgcdjQlqdKhioel4v7BNq7u1Flj7Mqbwwzb38U+nllzwBQNo47JNZbFtemN8VZTlKScF0sXDhwhFLrwv7fmqwpYfdBZbWw0EAAFCDQTQBgHoOVQ7PZbkqm/+DhaRV8LcflLQuboBpHthvHvbvqT8CAE30XQQAoOrnDwGA+umBkI4LyVTAwNXzZmH/rub+viKkl+IGmOb36JlhX8Ke2L9OAChLhfRtFtyWdUpIcykpmMaH17jtb1F7Les42yvjIAAAqMEgmgBA3Y4KlY5IKXGk4gBiaWuGFrrQ0izcANP83r0w7MNYYwgANNF3EQCAaj1FAKCOx/7/MKRVcP9A9vI7hH15zT1+uqQNcQN0of6+ybt0IwCQUppne38W3ZZ1T+TMV8UwLRRFMUPShmFfRu21rINtj+EiAACowSCaAEC9dHyU5do4f0DrOWfq2f5WSJy6B91YTz8U9iICAAQAJvEJAQCo1lMEAOq2+f+bsJ+I8wcTS8+r+THkD4V9jKR5uAG6UH9vJwDQCAA0mta3h30Hi2/L1wC8h3KC6SDnPCTpNdRdWw+795ZlOQcXAQBADQbRbBjWRydK2hzXD/QmAEML+722h3EDdKH+Xh32tQQACABM0ncRAICqnz0EAOpy7L99iqWti6LgbvTBXSNe3vhb19Xn91o6ACdAN3DOT2ZPbMkAgPSSsK9gAW5ZfyqKgo1FmI6mYTjsX1NzLesuS7sWRcGduAAAUId+gQBAPfRLS0+SxMboIA8t7M/gdW8riT4eulF/24d9AQEAAgCT9F0EAKBaTxEAqIvOVs5bFEVBLz+gFEUxbOl1Nff5LSG9ATdAl3r5hQQAlg4AbBv2eSzALetm2y+kpKDTSFo97PupuZZ1se1n4CAAAKjJIJoAQA3eP8J+nTkWffCHFtK3au71K8PeACdAl96/1w77NAIABAAm6bsIAEC1niIAUA/lvAeb/wPfRyxn+2M19/o1UZZPwQ3QpXfpOZbOJgDQIOe8Uti/ZBFu/cgeS99PKc2irKCjDy37c9RbW/p1SBviIAAAqMkgmgBAPfS7kDbny+iBr+df1Py6vV+HtCpOgG5QFMXssI9p3F9LAACW9ZwmAADVeooAQF10WS7L9XH84CJpBU7z8iWSFuAG6Aa2Z9n+JgGAf7/czLR0ZNgPsgi3rHOUM00vdLJpcNh/pdba0qE5Z5oNAACoyyCaAEB99M2yLFfE9QNdz3U/fvzQkMZxAnRtcCh9Oex7CQDABM9pAgBQracIANRF94f0g5BWxvUD2kPYZdjfrbnPf48ToIs1OGr7owQAln65+XDYd7IIt6w7wv6IpNmUFnTogbVn2LdSay3rPkufKIpiBBcBAEBNBtEEAOrV57wT1w90PV9Q84HFR3POy+EE6FoNSh+s+YyMAMDkz2kCAFD1c4cAQH10a9gfk7QCzh/IWlbYP6p1L28fihOgW+SchyW9lgDAElh6ftjXsgC3pRNCWo/SgqrR4obhWE7naEvXhbQ7LgIAgBoNogkA1EuXh7QDzh88UkoK+5Ka+/uNKSWCvNC9NVXaPexbCADABH0XAQCo+rlDAKBeutLSzny4NJC1XPsAQEgfwgnQxffpIUvbEgBYgrIs1wz7Yhbf9k4BsPSGsbGxUcoLqkLSkKVXE8xpW+fbfjpOAgCAGg2iCQDUSw+F/TtJ6xZFQQEM1nvAhmFfXmNv32bpxTgBulyHzwz7BgIAMEHfRQAAqvUUAYDa9fKWzrK0aUgUwABhaS1L59ba3zk/HydAl9fUx4d0FwGApX+UE1l829ZvLK3N8A0qbBZS2IdTW+3XpKSVcBIAANRoEE0AoH56IOxv5bJkk2aAkLRx2FfU2NeXmdMtoMvknDcM+2oCADBB30UAAKrerCAAUE8da563gzbTX9vS+XX2taQn4gToch2ub+kCAgBL/ij2R1h029a9lt6gnDm2B6oY+g3H4ms5rqS22rsXN6SDcBIAANRsEE0AoJ66OaT3hDSfKhiYd4Etwr6qxp4+x/ZTcAJ0k5RSqvlJHAQAJu+7CABAtZ4iAFDno5o/WBTFTKpgMCAA4IclJZwAXa7DtUL6AwGAJX8U+9mNoyRZfNvTmWVKCykvqOABVdr+LjXVtm61/XqcBAAANRtEEwCory6xtENKaZhKGIh3gReEfX2N/XxKSJviBOiBdfUSAgAwgT8IAEC1niIAUGddJYkj0wdnfdiAK31NoAW6vaauFPbRBACWQNKKBACmpPtD2o3ygqkgacjSTmHfQU21rWtyzpvhJgAAqNmggQBAvb8cOjmllKkENgAGQD+ytCpOgB5YVwkAwET+IAAArP+oKj0Y9m9sE4AcjPVhs8ZVbXV9L73Q0ihOgC6vqQQAHgvbv2XRnZL+ND42tiIlBm0/nHKeZelkamkKks5JKdFoAABA3QYNBADqrQdsH2ybHogNgH7XkZIIs0DXsfRjAgAwQd9FAABY/1GlHxbaPqQsy1QUBQXR3+vD5jUPpp9JAAC6XodluTCkAwkA/OcLjv0BFtwp6Z6Q9k4pzaLMoK2HU867U0dTfMDZX8RJAABQw0EDAQB0l+238S7CBkCf61s5ZzYeoetY+h4BAJig7yIAAKz/qGrdaelDOef5VERfrw91DwCcTgAAuo2k5W3vQwDg0S84W4Z9DwvulPRX5fwUygzaaPbXsPRnamhqkvRi3AQAADUcNBAAQA+HfZFyfmZRFCNUBRsAfaoDU0rL4QToNgQACABM0ncRAADWf9QJXW57J9v08v27PtQ7AGAfjX+h2xAAWHYAYBXbf2KxnfIpAF+MslxAqUELD6W5YX8q7LuooSnp9rIsV8JRAABQw0EDAQD0r+NDfy5pQ6qCDYA+1adxAfQCBAAIAEzSdxEAANZ/1LErhnPOa1EVfbs+1DoAENJBIREAgK5CAGAZAYDIuQjpKyy0U9ZVll7MlzfQwnDheWH/PeyHqJ8ppQx/YZtjbwEAoI6DBgIA6JGrAML+vO1xKoMNAAIAAG2/oxMAgIn6LgIAwPqPOrl5862iKOZQGX25PhAAIAAAXYYAwLICAGU5HPauYT/IYjslPRT2iSGtJYmKg2VSFMWMKMuVQzqSuqukyXhf5EyTAQAAdRw07EL/TS+0ZAhA0u4ppZlUBxsABAAAWocAAAGASfouAgDA+o86qTtsv4+j1PtyfSAAQAAAugwBgGUEAGbMmDHD9pPCPpuFtpIfeu8yJdJ6sExyznMtvSfse6mZKTcYN4W0Ka4CAICaDhp2qXkfcG3Yt9ATLfUu8s+c89ZUBxsABAAAWocAAAGASfouAgDA+l+tbgz7ZkK9S+kK27uklEapkL5aHwgAEACALkMAYOIAwEphf49FthLd4pyfQ8nBMh5EQ7a3D/tSaqWS4/9PsL0KzoI263GulqZMKS3HLwMAfTRo2KXmm90/s71f2HfTFy2lU2yvRoWwAUAAAKA1CAAQAJik7yIAAKz/1erYkA4J+w7696VmnafknB9fFMUQVdI36wMBAAIA0P05PwGACX6cmWF/gOFZdUO3KEuGbvBYtbYw7BOpkcoebB/NObNhC/+qr0LSmpY2C+mZIe1k6Y2W3h6LN4j+UweG/d0ldGTYBz3GP/fpsN9laQ/bOzX+21tKWlNSKWmYXx8AujRoqHsA4CjlvEHYP6cvWkr3hv3llNKKVAkbAAQAAJqHAAABgEn6LgIAwPpfrY60vWXYx3EKwNK9vKVDJZkq6Zv1gQAAAQDo/r4AAYBJXnS2Dfs8FtlKtCikzxdFMYvSg/+osw+HfT81UoluDfulJGLrR1EUcyRtaGln2/8b9tfCPibsX4V9Wthnhf33sC9rHCl36xS99mAjkf7Pxn/z72H/pfH/+k3Yx1k62NL7LL1Q0hZjY2MFfykAmIZBQ90DAN9PKY3a3rHxbKY/+rduUM5vKYpiJpXCBgABAICm19VjCADABP4gAACs/xUHACTlnPMTvPhqL3r4f+s22++2zd5Cf6wPBAAIAECXkbTQ9lcIACyD8fHx5cP+MYm76oZuYb/VNl+Gwowoy+GQdgr7KmqjMv3G9sa4ayAX7CFLI5ZmhT1X0lMt/bftL4R9UtgXh31N4664O8K+rwfWrvvCvjPsm8K+LuzLw/6jpa/b/u+c89OV84q2Z4U0KongCgBUMWiofQBgxowZM2zPtvTRsG+nP3pED4V9nu0dbLPmsAHQ8wEASRgBemFdvYAAAEzgDwIAwPrfgQBAURTDlvYI+wF6+KVDADnnpxYF35f0wfpQ9wDAwQQAoAfW1Aj7RwQAJsD2W8O+hQW2Ml1g+4WSRinB+pJSGomctwn7XGqius1W25/iq7bBoCiKIZflPNsR9gZhb2PpgyEdN2BDljtsHx/Sp20/39JGtleNnFcoioKwGAC0M2ggAPDvtWROSEc2Tm2hV/q3fmVpo5QSIQA2AHpZB0taASdAl9/bZ4f9DwIAMEHfRQAAWP87EABo/BYrhP3FxscV9PD/1pm5LNekWnq+ljcK6ZYaBwB+TgAAeqAOVwn7eAIAE5Bz3rjmLzyd0EmSNmfoVk+KohhSzhuGfSxJ1kr1D9svxGH9TZnSAkuPC/vlsfjLzR/VbA26MuwTQ9rX0ittP17SmCTCAADQ7CCaAMASSFqdK80e83f6QpkSm6u9PazYuXFtUe03AAC69m5SluvW/MQ+AgCT910EAKDq9Z8AwBLrf9gbhX0ygd6ldG9IX5M0TsX0LpbWtnR+jd83zzQfwEL363B9SxcQAJiAoihmut53nnVC91v6Thof57yeGiJpzPaXG0eDUw/V6bc555VxWB++4Oa8wNLTLf23pW+EfWrNByn/0u1hnxb2EWG/J6SnpZQW4BgAmGQQTQDgP1/67Jc2rmOhX/q3brb0Wiqmh4cV9lZhX80GAEBX392f0rjKiwAALKvvIgAA1XqKAMBS67+kUUsvCfsS+velrxm29PaU0nJUTY/28gQACABAL9ThRpauIAAw+UvP63vgLuVB06Lw/2fvvKMsLcrtfTpNZJivQ321nxcYcs6KgiAZA9mA6AWzKFevgiL+zBnBhAFF4XK9JsxiAgRBEVFRREWCIDnnJDnD74/+LjDTp3u6p093n7D3WvufWQvXss+uqvd766kqPlcUxRwPxY4q5HtCOjTg3x4DjR1PwOFFUfhqoRZRURRzJG0X0gcCTgz4Z/XcjNeaUZ4KCPgn0olIhyLtIGm2k2RZVp1GtAGAkd8yyyF9JuAhryeLP00mN+6beeNxg4BrOjifp4S0tpNgzfD3+0s7HCAzALD0ussAgNXoeccAwBIAoKQFwKd8kGoxPx5wAdIL3Qtt2o3HjgYAqr0PP9NrzXSd9sxO7gNNBACYF5I3LKfg5E1Ib/F7KB3TxOuW9KKA+5z9hvvmyHk7p6yp898F9EXOqwHvCfhbwM3VePCm/8Q+8u6vaO8/hfRGJJD6JPlZGcuyDADUAQBSSl1I61Zvv3nNecqPBvyiLMsVi8IXkzVh7dTpAMAfQtrYSbBmeCPugOpWLgMA1mh1lwEAq9HzjgGAOjcAlWWZkU5xLT+ilj81pDUlefA0mQwA8ATSLCfBmimllLo1vKY+YQBgfAXIMV5Yp+bKnpAOAOZ6WLb1hNOHtK+vn506AEA5v0BSf1EU3gRtEhVF0ZVzXg5pVWAP4ATffjElvh3pO8AuIa2WUvLNMpbV2Y1oAwCjNWFgh4AL3DhczPcFfDGX5aBHT3NJ0poBV3X0xhJs7yRYM9y8P7y6vdEAgDVa3WUAwGpspgwAjPoEkIaB3mtdvy/x/QP/k3Me8OhpshoCVq6eOO3YbJZluYmTYM3g93QPcKABgPH+wXLetrqC2Itr430RsLckb9q0oVJKsyQ9v7ri3Hmfyvev4AtI25Czx9LMZr5LOa+AtAvSR5HODHjEGZ2Wp2X+gnRw9URAv9NoWR3ZiDYAMIqKouhDOijgDq8Zi/mGkN4kyUByE6koitkBl3Qy4Iu0m5NgzfCa+qMOh8YMACw9IwYArMZmygDAqABA9fd5Q/V8pGv4p/wA0luLovB76801lhVwXIfDKTs7CdZMCegLOMIAwPj/YAo4yYvqlPk8pBfLzwG0lVJKfdXm/1kBjznn03L91XlIh0ha1QmcgQI355WR9kP6YcDV1W/ibE7/OLgM6Uhy3jMNDRkEsKzOakQbABhDkgYDjvH6NMLnSNo2pdTtUdRU4/lfHZzJR5BeUxSFM2nNiCQNBPymw9cGAwBLn6cNAFiNzZQBgDEBAKTlkY70IZMRvoKcn+cR1FRjOQd8v6NzKb3ZSbBmSkizQzrRAMA4VZblLKT/CnjYi+qU+RJJXqzbRNUp6G0C/u7N/+mnXwN+i7SfpOWcxmlpkK2A9K6A0wJucQabwg8HXBnwi5B2l7TQSbWsjmhEGwBYejNm5YBLvU6MgMd+WaaUPYqaajx39OYj8IGc8zwnwZqRpiFsFvAPAwAGAJYyTxsAsBqbKQMAYwIAkroi5w1DOtX1+4ha/hRJa3sUNU2fdCFweId/mx/pJFgzWKPNC7jRAMA4VRRFLaQtAs73ojqlvkzS9uTskw6tPMGUZXdZlhsGXO53ZmfMj1fvzR+nnDevnmJwOBukak3oSUNDQno70nnVMzHOe/P5sYBbA/4Q0ssZ/gjxGmNZ7fuRYwBgPBs70q4h+XmzJcEx6XBJXiOaZQNS+k6HAwBHSfKbttbMjD/YtfqeNwBgjVV3GQCwGpspAwBjAgBVz7UnpL2qAw+u4Z/y/UhfKlMaLIrCg2mGJWk54JAO/zb/tbNozeC39Oqdfih3QgBArVarpZQWIH3G1+xMua9CemX45HKrLvDzIueXVdefO8/N8h4WfCVgHb9vOzkVRdGlnJfTMHH9kWpj2RlrLV8AvCakFST5jTjLar9GtAGAcdZrwAeqW4O8Njzl+5Bem1Ka5dHUFE2L/+1wAOA0YJGTYM3Q+HtbBZQbALDGqrsMAFiNzZQBgKUCAFVvapakDwbc7fp9Md+J9M5clvM9mmZWKaXZSO/s8DxePuRnSa2Zq+V37fQ1YcIAQPWH2z3gCi+oU+7rAt6Zcza111qFej/S/gFXOcNN6QuBdwBre+Nz4pLUI2nTauP/Qr+f3PI+PuDl5Bx+X9ey2qoRbQBgvN81sBrwU8PNI25QOl/S9l4bmuLb4sMdnsfrkdZzEqwZ+O7pDfic1wQDAOOouwwAWI1e+w0AjAMAqDZYBwOO87OrdcfmLpJ6PKJmfI3Yt8OzeAPSc50Ea4bW00MMACwDACCpRDrOGz/T4puAz6ahIb/b3OQqiqKWcybgowHXOLtN7XsDTgl4fU4pGbAZ99xPRa7+wRslbbXJc0PAsSH9R0gmxC2rPZoMBgDGX791S9rJT5yN8EMBPyFnvyE6802LA5xHtvUzXtYMfPso4HsefwYAxlF3GQCwGr32GwAYJwBQ/b02CbjM8/UIn57LcnWPqBkfz6/o8B7qnSHt5yRYMyGkXxgAWAYAoPrj/UfALV5Mp22z8lspJXc9mlhlWa4ScGzAnc5sS1GIP5K0jRM8ulJKy0vaJ+CEDm9utLMfC7gW6TuSNnfqLavlG9EGACa2yTM3pAM7vNFaz/cAh0rylY0zOZ5zfombFjpQkm+jsKa7Yb9ZwF+8FhgAGEfdZQDAavT8YwBgAgBArVarKed9Ah70nL2YHwk4yiNqxjcgdw64qaOf5JU+6yRY0y1JRcAl/pZeRgBgaGhoICR/DE2fHw74jaRnknO3Tyw3VWHeHWW5WcAZ1e/kvLZeQXw10mGSVgup2yeMhpXLsldluWlIPw243Veqdcx4uAbpa5I2Us7dKSUPBstqvUa0AYCJ13Pzkb7uG85G+BZJ+5Qp+dmkmWtcPKfjcygdF366y5pGFUVRQ9rTYJgBgHHWXQYArEb3GQ0ATBAAoCwXhnREdcuha/infAfwmijLLo+smRGwbYdvQj4ecKIk325tTfd39LY+wD4JAKAqSF7hhXXafQXS/rksB1NKXrxntinQJWn5kF4bcJWz2Ra+LKQDQ1ptcGCgY5uMKaW+gFVCOjLgPueio9/c/TDS6mEoxrJarRFtAGDZPhCHQjrH8/8IXwOs75E1Y+O5p9MhTKRbclnOdRqsafseGhychfR2z/8GAMY5TxsAsBqbKQMAEwYAqo3W1QN+YaB35DiNnHeU1OPRNSPjef2A33Z4Bv8aOW/iNFjTPPbeU92sbgBgEhugc7zxOSO+Helz5Lyuh/IMTSBl2RU5rwccFnCjM9l2b97+WjnvHWU51IGL4yDD1/2f6Y8mu/KpSC8wrWtZLdWINgCwrH+7nJ/v2q6uj4+y9AbQzNRmPSFd3+kZzDlv6DRY0zbuck4xfCuM538DAOOpuwwAWI1e+w0ALAMAUBRFD9KuAf/y3L2YHw34ZcDaHl3TL0mLAo7r+ANGsI/TYE3juJsV8K3qplsDAJMsSt7lhXSGNimlXyLtVhRFn4f19KkoilnASwNO9ZX/be2bQvqqct4hpTSv3XOdUupWzhsFfCHgev/+9hK+LuAwSesVRWFq3LKavxFtAGAZRc7zkD4acL/n/sX8YEgfkTTPI2x6BXQDf3DjQu90GqxpG3fSmsD5nvsNAIyz7jIAYDU2UwYAlgkAqHpb84H3Bfzb8/divi/gcGDQI2x6VZbl8gFHdfrT1sAnJM1yIqzpkKQ1Av7sub8xAMBa4Q+jmfJjAZcAH5S0gof2NBThZblSSIcFXOn8dcxtABeF9NlclqsURdG2z25UT7qc7Q0Pewzfi3SapJdKmuMVwbKauhFtAGAZVRRFVy7LVZF+7Hl/hK8Nn9yYiRqtO+Dbblzo506DNR1KKXUp592qb0HP/QYAxlN3GQCwGr32GwBYRgCgVqvVgBLpp53+hFId3xrS66IsfZBwGlUURXcM3yDc6fn7gfevrOkS8JKAqz3uGgAAIM0JeGfA4/6DzogfrzZlTkfaDsmLeIMlqTY0NNQnaceA33mDtCN9f8CFIe2P1CupLUCAkLrKslwh4IsBN/t3tscJnt0a0iEBfZK8SFhWczaiDQBMbvOnO6TnBVzgeX/EGnAm8OzwawDT+S3ShfQR548rUkqLnAhrGhqGvbhRbwBgYnWXAQCr0b0aAwCTAABqtVqtTGnVkNznGulrkDbwKJvm2kJ6c8AdHZ69C4CtnAZrytfQsuwK+FDAg57zGwAAVIXJBgFn+A/aBNf5SF9GWj3Kcq6He0MabnMC1gK+HPCAM+Z3syrY5gVI/a0KAhRFUctlOT+kvby5YU/CZyBtTs7zvVpYVtM1og0ANKZR84aAmzzfL2Hpx5Hzqu0CRLbA90gX0r7OHnf47VBrOpTLch7ShR5zBgAmUHcZALAamykDAJMGAKpafmc/BVDXfwWGPNKmT8DLq9vUOv2W3ddGWfpZUWtq19CcVw840XN9AwEASbMD3h1wj/+oM38yB+m8kA5QzmullHo97CeulNIs5bwB8PaAfzpX9hK+LeArwHaDg4OzWy3fZVmWSB8IuNG/pT3pZ2ikd0iinZ/IsKwWbEQbAGiAiqKYFdIRAY96zh/RvPlEgIHjaVBRFDXl/CznkEcCvu63Q62pVs55I8/zBgAmWHcZALAamykDAI0BAGC5gE/6Jte6tfwXoyz7PdqmR0hb+wAWT4T0jcjZ8Ik1teMNtg+42HN9AwGAqjjZKKQz/BRA0/hupJND2g/JE+s4VZ2wWRTS24DTXSTaS/E/kT5Mzuu2zCKY8/pIx/hNS7uRQAzwlZzzuiklLySW1RyNaAMAjfpbluWigD94rq97Gnsvj7Zp2whYO6TrnTv+DKztRFhT3KT/mMeaAYAJ1l0GAKxGr/sGABoAAFRz+pohnWiQcoRvCulNkmZ7xE3LfsO6AX927rgsYC0nwpqy9bMs54Z0sK//nwIAQFJfSAcE3Ok/bJMt6HBiSC+XtMDTwOgqimJOSC8O+F2HF9r2xHx/dRX6f0rqb+J890naNeDU6gSVfzu7sU/QwGlRlpt4NbEsAwDtBABU3zk7+ymAuj4/ynI9j7hp2JCElSo4udMzd2PAq50Iawob9AsD/uGxZgDAAIABAAMA7QEApJR6kfbwadARfjzg3IDtPOKmXimlIuBXzh2PhvTKKEvfIGpN1fq5UkgneKxNAQBQq9VqZUoppLP9h23KRf22gFPI+SVlWS7wm521WuRci5y7JS0I6RUBvw+4xXmxl3GM/Rs4AXgOUk9RFM3SxKqVZbkc0hurDx5Tz/ZUPgnwT+Blyrm7WcaAZRkAMADQgG+ceUjv901ndRo48CNJAx51U17PDQDHOHM8FvBFSfOdCmsqBLwg4FaPNQMABgAMABgAaA8AoJrb5wDvC/i35/QRtfzPgFWj9DQ/lSqKogvpaz6QxRMh/YCc/WS1NSV7IAGbBtzh+X2KAICqSNnbVyw0/Y/+L6Q3Ia2uslzQae82F0XRnXNegLRuDF/vd4VzYTe4mDlCOW8kaV4TfDguqhrGD/i3saftWmjpo7ksc0qp2yWoZRkAaHUAoGocRsA33LSpexPSZwBvyE6hUkqzkQ5y3ngi4DxgS6fCmoJx1hfw3wEPe5wZADAAYADAAED7AABVL3hOSN+rYELP7Uv0MMl5eY+8qRXwjoC7nTmeKFNa2YmwpgAA6EP6vMfYFAMAtVqthnSy/7jNf3qiAgEOQ9olcl4tcm7rjZrIeVZIayHthnQo0tXOgT2FNwJcChwMrCepb4Y+GtcL+KF/D3sG/G+ko3POq6eUXIValgGAlgcAqm+crUL6q28CGOFrQnp1lKXfEJ3acf2igHudN+5D2j/KcpZTYTW0aZjzxgF/8xgzAGAAwACAAYD2AwCqzaFVAy70vD7CDyD5iaWpBwC297Ny1fc6/D8nwpqCfs2gD/pOEwAQOe8YcLP/wC3j6wKORzoY2Dql1FbUX+S8Ukh7Bnwi4OSA60182tP4LvpvgLdIGpyuzBdF0SNpi4DjfVLRnkE/zPDV0Bu4DLUsAwDtAAAURdETOe/nJ6Pq+i8hbS7JN79MXUNj64B/OWs8EfBTpHAqrIbO79LBHb6RawDAAIABAAMAbQ0AVJuwL/f10HV9YUjP8OibOklK3px80menlPqdCqvB8/veHlvTBAAo5+WRvug/cMv53oALkI5Dek9I20fOfa044CPn5ULaJeDTAb+uFlhvhNoz5VsDvhfSDkVRTOlppaIoepB2Cvh9wEP+29tN4FPIeTOXopZlAKDVAYBarVaLsiyAI1xX1n1D9OcBCz0Cp6yhsUHA75w1ngi4E9hWUpeTYTWoKb8o4KceWwYADAAYADAA0N4AQMD8gEPdL6tbyx8nA5ZTvV781lnjiYDbkPZ2IqwG7ofMCTjVY2uaAICUUhewRcDf/UduzecBAu4JuCHgAuCTynmXsiyHgO6Qupqh2VIURU1SV0jdSD2SViHnvYAvBvyjuoXiAV/TajeJHwm4EunzklbT8DhqdOOqB9ipyv+j/pvbTfQh+ZeQXhBu1FuWAYAWBwCqjdj+aq31HL/EzS8hHexN2SnboFTAd5yzJ9+r/VxIvU6GNek1syxrSLv7Wl4DAAYADAAYAGh/AEBSF9KaASd4fq/zzBJ8vL+/3896Td3Y/oJz9mSP/Jv9/f1znAqrQXP71q7lpxEAqDZne5HeHnC3/9Bt9CYQnB3SkcDLAtYHVg+JyHmhpLlTOIh7Jc1HGggpAlZTzpshvSakbwZc6d/HbiFfifS+kBYVRdGQq3JTSrMk7Vs9O+C/sd2MvjikF4XU59LUsgwAtDIAUKvVarkstwzpOs/tI28UQ9q5UfWNNWJsf9C3TzyVtbIsV3UqrEmPq5yHQvqax5QBAAMABgAMALQ/APB/AnYMON+Hxkb4ZqQ3hDTLI3FKcrevM/akLw9pN6fCasC+4Vyk7/sw5DQDANWktkbAL9ykaFvfz/A7lMeH9Dng3QEvQ9oZ2CakDUPaIKTVJZVPd855YVmWcyUNPv3fkVar/psNQtq0usr8RQH7Ax8Bjgk4KeDCgPv9G9gtfnLpFKQ9Q2JSH4dlWSC9rsM/EO1WeVcOXj0wMOCPScsyANDSAAAwB3hXwL89ty/mxwP+ppw38kicgtwNbwgYPHlqrH/QqbAm2TDsYvjE0PUeUwYADAAYADAA0DkAQFEUfUhvC7jd8/wIn4P0XEkGehtfd6zjfD3pB5E+LWk5J8Oa5DfybtXz3x5X0w0A1Gq1mnLevbpK3n/wzrnq+ZaAS2L4DfLTq2uVvrmEjwr4XMDXlvj3X1T/zekBfwq41iea7TZvkt8U0v+S8/OjLCd8i0ZKaV5Ib/Y1N3aLvfW1X1EUhgAsywBAywIAVQMnkL5t0nxkMyekb4S0okdjw5sbmwb81Rl7CiyUtJqTYU1iTPUhHeOxZADAAIABAAMAnQUAVLX8UNWXdi0/0seXZZk8Ghu+XvT58NZiPg9pSyfDmsQ8Poh0dMDDHk8zBABUm1OH+0od27btMd7MhYuRvliW5eoTmF/nIL064DLPsXaL+Rqk/Q0BWJYBgFYGAIqi6EJ6TsDZntdH+I6Ad/lER8MbHPMDjne+nvZWrfRhJ8OaxJjasJqvPJ4MABgAMABgAKDDAIDqb71qwKWe60f4EaTDPBobnreegOOcr6f64Ugf9TejtaxCep5P/88wAFBNbv34jUzbtu2l+YGAi0Lav7+/fy45j7X53yvpZdUtGd78t1vx9ourkd7Q39/fVxSFq1bLMgDQcgBAtXnUB7ypugHL8/vivkHSjv39/V0elQ1tcnyqqhmdseF64k+SNnAyrAmvlWVZq04MeSwZADAAYADAAECHAgBVbbVnSL59ts7tjSG9VJIHZeOy1oX0X87WYt/uVyCt45xZy9CLGQCOCHjMY2mGAYAnF1O4239027btpZO2AX9A2gNpQFLXEpv/syTt6+cx7DZ5DmD/nNIcl66WZQCgFQGAp/3NPx3wkOf1Eb/Fv0Ja26OyoZsCewbc7Hw9BdAifUySbxWyJjaWct7F1/AaADAAYADAAIABgCjLOSEdHHC/5/wR/hfSc4qiMNDbuDVjQ2dtxDfjFyT1OB3WBDb/u5C2CbjTY6hZAABYWBEZfo/Btm17fL4bOBppO0lzqs3/eZL2cbPKbiNfGNKLYgnQxbIsAwCtBABIKkL6jef0uv6hpH6PzIZlbSVfczjCZ3kDyprgOBpA+mn43WcDAAYADAAYAOh4AKD6m68S0o+rAzme+5/yowE/U86reGQ2bI9sJeA0Z2ux7/c7JK3qdFjjVUppPtKxHj9NBAAURdGlnJ8Z8Ef/4W3btifkSwI+CGwi6RUBl/vaf7vdqPKQXugS1rIMALQqAFCr1WpI2wZc4zl9hB8E3l0URZ9HZ8PGuGGTJTIW0kdDWuB0WOPoTfVUQPW1HjsGAAwAGAAwAGAAoFobupXzDgHnet4feTgppEPCQG9DJGkhcLhztcQ3PHy5KArf6GWNr/eS8wsD7vHYaSIAoJrgZgOvD7jef3zbtu0J+b6AvwRc6pMqdpv6ryFt5TLWsgwAtCoAIGkO0kH+EK3rK5Fe5NHZsI2BDztTI3yFct60KAoHxBq7YSitFtJP/E1lAMAAgAEAAwAGAJ6ulNLskA4MuN1z/wjfCLxcUq9H6KRz1oP0Wt+SPcLXIW3rhFhLU1EUcwJO8phpQgCgVqvVyrIcCDgq4EH/ALZt27ZtP+1quVMlrZdSckVrWQYAWg4AKIqippxXCPi25/QRfizgtJA2luRBOknlsnyWM1UnY9I3QvJNE9ZY83QP0r7h90INABgAMABgAMAAQP2//QKkbxsSqw9blmW5skfo5AXs4Ce96vYEfyRpeSfEGgOgqQGvMKjVxABA9UNFwO/9A9i2bdu2vcS1Xz/OOa+WUup2aWtZBgBaCQB4WuNw44DTq01vz+2L+1hJK/iU9iSbhlI30uXOU93x/1InxKonSbWQNgz4u8eKAQADAAYADAAYABhjvUgh+SmA+nXWGYA3aCefsUUBxzlTI3wn0juiLA30WnWVy3KdgLM9VpocAKjVajVg64Bb/CPYtm3btv00P4x0VC5LeYPIsgwAtCIAUP0G+4bfl67nh5Deo5zneKROamOgK6RjnKe6PiukRU6JVQec6UM6wmPEAIABAAMABgAMACz1N8j5+QHXeQ0Y4QeBD6WU5nmkTgoAmB1wqJ8BqOs/kvNmRVF0OSnWEvvJyyMd6icXWwQAqD7A3u+JzrZt27btJfxvpI8o5x6XuJZlAKAVAQBJ86qPU3/rjPRNwPM9UicxxsuyFjnv5nzV9QMBn5U010mxlthQ2y7gbo8RAwAGAAwAGAAwADCOWn4u8H6vG3V9rXLeqygK92smt3a8NOBq52mEH2G4lveJIOtJFUXRjfTCgEs9RloIAFBZKqQf+Yewbdu2bXsJ3wHs7TLXsgwAtCIAUDUOCfiN5/P6p7RTSni0LruA1QMudpbq+jKkXZwS62nz8cKAX3psGAAwAGAAwACAAYBxbjZ15ZxXBX7odWCEHwV+D2zm0TqpWn5RwO+cp7q+Edhdkm8BsP5vvKwA/MjPLLYYABBl2Q08N+Ac/xi2bdu2bS/hiyRt7lLXsgwAtCIAUKvVasp5S6TbPJ/XOdkhHV0UhZ8CWPYNzUHg685S/cZ0wIkhreOkWNW6+CFfF2oAwACAAQADAAYAJqKUUjewQ8C5XgtGPt0Y8DXAQO+y1/I9AUcGPOQ81V9fhgYH+50UK8qyJ6Q3Vze9eWy0EgBQ0Rs1pD2q6xse949i27Zt23blxwJOyzmv4/e/LMsAQCsCACmlXkmv8sbTKM+9wHsBQwDLoOoaxFe6aTjmXHB4WZb9ReEbRDu4ud4b0t4BV3lMGAAwAGAAwACAAYBl3Ld4Y8DNXg/q1lofSCnN86hd5nztFHCTszRKvuC7kuY7KR0+TqStA+71mGhRAKBqXvQp5wMD7vCPYtu2bdv203wf8BVJJsstywBAywEAVRM3h/RVE+t1fTGwZ0qp1yN3mZqGzww42zka1bcivVY5dzstHQnJdCnnjQNO91gwAGAAwACAAQADAJNYT2aHdGTAI14TRvhOSS/yqF02VU8U+WbssYBx6c0pJQPjnfu9uwLSGR4LLQ4A1Gq1WkqpAL7kdxxs27Zt217CtwHvAEz+WpYBgJYDAGq1Wg3pGTH84epvnZG/169zWa7vm14mrpzzIPA152hsyETSJk5LBzYMcx5A+kLAgx4HBgAMABgAMABgAGBSv0lZrhJwpteEuv4HsL5H7jKvIZ92hkb14wHnI72gKIoep6WzlFJawPD48EGKdgAAKuopAv7oH8a2bdu27TqnRDeX5A0iyzIA0HIAgKS+yHnvgGs9n4/wQ8AxwAKP3ompKIrukPYLuNU5GtO/TCl5A7OTNv+hB3iLx4YBAAMABgAMABgAaGA9v6ufAqjrRwO+m1Ia9OhdpprlWc7QmH444GRgA6elo75ze6vnV/xERjsBAFXh/OyA6/zj2HZbTTS3+O9g2/Yk/Vh1hWufS2HLMgDQagBArVarRVnOCekzVRPD8/rI51729+hdhlzlvEnAX5yhMf0A0meLopjtxHSGJG3e4ZtnBgAMABgAMABgAKDBKlOaj/Q+3yxT/6p2Se8timKWR/AEAQBpTsCVztDYwHjAl4ABJ6ZjaqsdAy6uboHwGGgnAKC/v7+bnHcN6Qb/wLbd8r4b6YCQBkP6TEiXu+lt2/akLB0iyQ18yzIA0HIAQPWtMz/gBM/ndX1vLsutiqLwe+0TA0tqSJ93M3qpviekT+SUFjo17auiKLqQ1g+41Jk3AGAAwACAAQADAI1USqkGrBDwTfc26/o6YF98aGNiAAB0Ax9yfsbxHIB0WC7LeU5N+0pSV0jPCPibM9+mAEC1oM5D+s+A6/0j2Xbr0p8hHRpSUTVjesh5y4BvBFzjv49t28vo2yS9xO9/WZYBgFYEAGq1Wi3nvGnA5Z7PRzZ1kP4gaV2P4gk3DncOuNEZWqqvDul1Ic11atq0aZjzagE/D3jEeTcAYADAAIABAAMAU1R3bR5wlg8u1vWfkZ6dUjLQO04VRVFTzs/ws0Xj8v1IbyyKotfJadP1L+dFwI+d9TYHACraYyHwwYB/+4ey7da7xjWkY0JasQ7gUyDtFdIvAu7z38q27Yk+BYB0mqT1XBpblgGAVgQAgFnAmwLu8Jw+sqkTcBQgj+QJfTvPDzjT+RmXL0LaXZIb0+23YbYopC93+GasAQADAAYADAAYAJj6DdtepNcF3Ow1ou632HfLlIY8kifwfSilgG85P+Py9Uh7GgJoP6WU+kM60hnvEACgamQk4OgYfvfXP5htt4YfDvi5cl57zOKmLNdAOiikc3xCw7btiV7jC3wspbScS2TLMgDQagBArVarKeeE9BXXQPVvekF6W0rJp7QnBpYc5OyM2xdI2tqpaavNsrJqGPoAiQEAAwAGAAwAGACYjj2LBcCXXMvX9QPABz2SJ5SnXqTX+qDc+A4FBZyL9GJDAG21+T+AdKhB3g4DAKpGRgrpZP9Ytt0ilv6Zy3L1oii6xhrbRVHUVJZzkTYM6dNu1ti2PdFmU8D2LpMtywBAKwIARVF0xfBTAH/0fF73N7ws57zt0upJa7GmyQrOzoR8nqQtnJy2gF/6gA+4aW4AwACAAQADAAYApnn9GQo4z+tEXd9k2HLCedoo4PfOzrj8aMAFSC/086Ctr6Io+pDeE3Cns92BAECtVqvlslwr4M+m6my7yQk86ZIypbWKopgI5VgLqUvSRkg/DLjd72jZtj1OnxzSqpJvirYsAwCtBQDUarValGUN2K0CmjynL/k7wt+A1T2ix1lT59wV0rednQn5/Mh5e0mznKAWzb00H+kgfz8aADAAYADAAIABgBnas9gqpOu8Vozw4wFn5Zw3MNA7PvX39/eF9PHqZl1naJy1vKRdBgcHfRNACyqlVCvLskA6sMPXPAMARVF0K+fNAn7rSdC2m3bz/+xcllullCbTwJmL9LqQTvONALZtj8MPIr0TycSvZRkAaDkAoPrOmY30/oCHPKfX9f/4uZfxN1CU844Bdzs3E/LfkXaVNNspai2R8xDSO515AwAGAAwAGAAwADBTkjQbONDXVtd/CiDg68p5BY/qcY/9HQIucnYm5OuRdvZzAK2nsiwHkQ4LuNU57nAAoGqO9SBtGXCabwKw7SZsnOX8vJRSb0PGes5rBLwr4Gyf5rBte2nFfpTlOi6dLcsAQCsCANXG7WDALz2f1/VdSG8oiqLPI3scG6ISSM7SxP1XpF0kdTtFLdMgXxTDDcNbnF8DAAYADAAYADAAMMMQwApI3zTQW9e3hnSwpAUe2ePKUj/wkxh+5975Gb8vQtrTEEBL9UD6q81/z5sGABbfGJS0U0iX+Mez7abxFcArJM1pcNEzG3gm8Dk3dmzbXkoxc7TLZ8syANCqAECtVqsBzwq42HN63etDz0Pa0SN7XPXzLKQ3hd9CXxZfENIeTlFLbIzlkI70jXEGAAwAGAAwAGAAoEn2K7olbRHwF68ZdX2JpF1SSr65cTzfhdJrY/h5XGdnIjcTw7lI+/j2uJbY/B9AOtS3eBkAGC0gs5TzTiH5Y8+2m4DkRNpH0twpLHwWBuwUcKpv/7BtexTfENLOLqMtywBAqwIAZVn2Ib0+4EHP6SP8SMDPJK3u0T0umGTDgDOcm2Xy5SG9yilqXg0NDQ0Axwbc67waADAAYADAAIABgGaRpL6QXhdwk9eNupuzZ5Zlucije1xZWg7pj87NhP1owLVIb0wpzXGSmjbfKwP/E3CPM2sAYCwIoCuX5fYhXeXrwW175jb/Jb1QUtc0NDK7BgcG5iK9rCJq7/ff37btJT4ojy9TGnI5bVkGAFoRACiKoiZpIfBJQwB1/RDSEbksy6IoPMjHUH9/fx/Se30LwKSenfhUWZZlSslPAjTRxgqwScAf3QMyAGAAwACAAQADAE36u3XF8C2mvtK63q1e0g8lzfcIH1eWXudnAJa9PwgcAWQnqXk0NDjYE9IzqwOeruUNAIwLAuhVzruH9E9PiLY9A9f+D5/875rusS9pAOlTAecFPOzfwrbtyreF9BZJfvPLcsPAAMAPWvW3A9YPOKk6weC5fXHfjvQW5Tzbo3ypOdo84BxnZpl9H9LXyXkzcjYEMNN5znn5CgQ/3w1DAwAGAAwAGAAwANDMktQf0m+9dtT1g0jvSCnN9SgfWwMDA8uFdKEzMyl/L2BTSX1O1Izv485H2j3gr86lAYCJhmcOOb8kJH8I2vb0+WKkV0/ltf/jKKj7kLYM6aiA6zz+bduufEL4imjLMgDQwgBArVarIe0R0mWe00fdaNjGo3yptfKcgCN8m8Sk/ceQdimKYpZTNf0qiqKWcwZ4X8AVzqMBAAMABgAMABgAaJFafjuvW6PcAjA8Z+xZFEWPR/oYGcq5C+nNPvg26ScBzgL2lrScUzVj36WB9E7PiQYAJgUBKOcXBZztTUDbnuIrtqWLqs3/plg4Q0oM3wTyE98EYk/CNyNdGNLvA45bis9g+OYZFy7N6TsD3irJ731ZBgAMALTy9808pA9483ZU/zqlJI/0pTafNwu4xnmZtC9Cencrb0S0cMNwg4CfBtzhHBoAMABgAMAAgAGAllm/cp6N9I6Ae72GjPAjAacibeKRPrqKoqgp5zV8Yrohz4VeDnykLMsV/ZTctGa4m5w3DvhatZ5539YAwKSaZLNyzusH/Ms/qm1PkaWLlfM2M3nyf7QFJSQp5/0CLvVvZS/F1wI/Az6LtC/S5gHrIq0R0qKQNJaBRUirI62FtBnSi4EPA9/C13M1S2HzZ6TVXG5bBgAMALT05i0UwK88r9e/PjTgc0VRGPYae/O0N6SvOC8NOa12V8BxwIZO1rTNgXtVT74Z8jYAYADAAIABAAMALbd5W5alkL7mNWSUpwDgy5KSR/uYtdDcgPc7Lw3x3Ui/L8tyHSdrWvZqe3LOOyP9LeAB588AQMMW11yWawecVdFk/oFtu1FNL+nSMqW1U0pdzToH5LLsirIUOX804PKAh/zbdXSj9v6Am0I6H/gf4OVlWS4K6AV6gG5JXZOhP6trSbuAbqAHqVfDkMCLgMMCzg24MeAeNy+n9/dHOliSr5SzDAAYAGhplSmthnSR5/W6vi2kAyT5avaxIYCo6hBnpjH15TVIbwHKoii6nbCGb5bMlrQ+8NUO31A1AGAAwACAAQADAC1+805KqRbSMwJ+535QXd+PdHCZ0jyP+FHr+P/L0J+dl4b5jpAORCol9TplDV67ynJ2Lss1gaOqJxicOQMADf9o7FLOmwWc7Gt2bLth1/7/NZfllimlVpkH+sj5uTFM2l7r37DjTgT+M+B4pE8Az5O0YAYLn67IeVvg3cDPqltqTD5Ojy+T5OuhLQMABgBavenTC/xHwE2e1+v6fKQXpJTcvBl9A6EW0uedlQbPMfAjpOdL8j2ijZvvFiG9JeAfzpgBAAMABgC8fhsAaJend5D29pNMo/pGct7FI37M+mhOwIcC7nNeGuaHkE4CXgwMunXYkJx2AyuGtB/SOYaeDABM9eZfD8PPAXy7OgHqH9q2l3UzVTpJOW/Tio1VSQtCemXAL2P4XXD/pu1McMLJSB8Dtp3JTf8x8jgQ0k4hvSfg1x3+MT9dzfn/chluGQAwANAGDeCBgE/7u6auHw04XjmvWxRFl0d+3fqjBmwScJnzMiW3AXwS6dmSZjtty5zRfqRdge/5BjcDAAYADABYBgDaDQCQNC+kj3mNG9VnRVku8qgfAyLJeeOQ/hh+Q73Rvj7gyyFtWRRFn5O2bBoaHJwf0u4Bxwbc7lwZAJjOYmmNgM/5ugnbXiY/AHxHOW/YytdbSupBWgPpv0I63wRa2y1gNwOHI+2FtFYrXAMsqUvSukj7VsWRQYAp/JCUtNDluGUAwABAG/ye64Z0suuY+teHhvRFmhD+axblnOchvT/gYeel4b4v4G9In5K0rtM2oZq4L6RnBXylAlQ8vxkAMABgAMAyANB2AECtVqtFWZYBp3k9qetHAo6Qa/lRVRRFT0gH+3mkKcvf3wI+Rc6bFkXhm+XGn8tZIW0bcEzApd6DNQAwM4QU9AOf8Q9t2xM+OfsFILfL25aS5ijnDUL6RLW4+3dubd+FdAzSMyUtbMWcSupFKoGtQzrWv+mU+M6QXuOy3DIAYACgDeqYHqTdAq7y3F7XdyO9yiN/1OZMV0ibBfzFWZlCEAXOC2k/Scs7dUvp00iLQvpywBV+HssAgAEAAwCWAYB2BwBqtVpNOT8Xyadj6/uWgLd45I+unBJIf3ZWphQqPxfp/0nqd+KW2p9YGfhiVcsbMjcAMLMqy3KOcn5NwHWmym17qVdZ3oZ0ANDThs3PWkg9wMbAT6traTwntNY1v9ciHSVpXUk97fBOk6SuGIYBnhXSD53LhvvUMiUX75YBAAMAbbFeAO8OuNdz+yhviMIGHv31NTAwMIvhZ4icn6mvV69B+jiwvk+zLQYxDSrnzUP6QrVZ6nrXAIABAAMAlgGAjgEAUkp9kl7nWmxU/wvYLcqyxzNA/Z62pF282TottfydIX1SOa8T0vKSujs9f5J6QhpQzpuF9M0K2nEtbwCgqUI6G3hxwJ89Udr2KAuc9E+kfSTN6YA5YQGwT8ApAXf792963x7Sz0N6XjvnMqW0XPU0wO/8PlzDfG1IL/fnomUAwABAmzR+5iB9z3N7XT8WcDKwgmeA+gLWrmpfN2um6V1R4PCA7YGVJHXclaJVH2a9gH2QfuSnrwwAGAAwAGAZAOhUAKCqxVLAl3z7zSiWfhXS+pK6PAvUXWu6A05wVqbtkOR1AUci7SppjU4EASLnWUhrAS8N6bsBdzobBgCauWHWC2xdTZRuetj2U34Y6XTlvFtKaU4nLWTAmkj/L+DvzkFT+qGQ/gK8U+1w3H/8H/sbIX0x4EZnoCEbQv/tK7wsAwAGANpFOee1A873/F7/KYCAT0ZZes4ffW54lTdhp715eHPADwMOQnrOwMDA3Dbvu3SXZZmBHQLeb7DVAIABAAMAlgEAAwBPSTlvHNLvvDdRvz8d8NUA36BULztSDWnHgFudlel9ogL4ZcDbkbZOKS3ogKzlGL5x4oMVQH6Xc2AAoJU2/NYFvhnwoANg2zwBfAdpk6IoOvKapaIo+oDnBHyuatA5F83hO4Evk/MWUZZzOi2XKaUCae+A031zzaR9YcA2/ly0DAAYAGiThnBvSPsE3OT5fdSbX14laZZngrrNnIXV6Q1nZfp9X8A5Ad8B3kjOm7bTzWtFUcyRtBXDjcITqvrLJxwNABgAMABgGQAwALD4etkTOb+sOl3sNaYO0Avs71lgVIBkAOlo52RGfH/AuUjHAgeG9NzIuW32UlJKcyRtgfTeGH46+dKAR/y7GwBo1ckykD5gYsru8KuVHgjpMCB3fAEldSEtRNoB6URvuM54Nm+PnF8jaaAoio69+gvoRVob6bO+ZmlSfgTp4E674cQyAGAAoI3XB6mI4bXB9Ur9E9fnBjzDM0F95bJcM6T7nJUZvZ3otoDLAn4V0rskbdqijcK5uSy3Qnp3wG8Drgy4x7+xAQADAAYALAMABgDG+H3Lci7wcd+QM6qvibJ0LV+/9uoGtvWNcDPqR6se7VUBp4Z0kKRnS5rXgvshCyVtF9JHA84MuKK6Vc83lBgAaPnJsjY4ODibnHcN+JObZ3YHXql0XsBLyHm2y6cRIEBfSPuGdG5F9zkz0+cHA85E2iTKstuJfPKKrx7gFQEXuwhbZp8OrOJEWQYADAC0y9oQZblKSMdVDQjP8yMhgJOQVvRsMFJFUdSqU9o+0dEcWX202gC4Gek7SP8JbBywYkhD5LycpJ4ZykpXznk2OS8EEtJKyvk55HwQw6f876i+LR+t/r/4NzUAYADAAIBlAMAAwDg0MDCwIOAkrzGj1kd/AFbzbFA3O7Mkvb2qw5yX5qjlHw64CfhBSPsBzw5YFFKK4Vq+d6a++8qhod6QlkfKASsjbRPSQQE/i+GnZx92T8EAQLtvrqwHfLe6ks+hsDvhbdTv41NRS1WZUg7psIAL/GTItPi2gKNDWtnpG3W92rJ6K86U+DLAJcDOkrqcJMsAgAGANmoOP6+6Ztsbb/VvFPp0O12x3uA5YoWAM5yTpvblIR1f3QT1moBdGK4FN0JaTVKWNNiI2kbSnOp/K0JaC9gYaTuklyC9A+lo4FfVSScfnjAAYBkAMABgAMAAQAOUc960uj3Ha039A0JHA4OeEerWbjnghwZ6m/qWgOtDOqm6ue8NATsHbB3SRiGtLWlIUn8jnq4riqJX0gCSYvgm2WcEbBOwO9IbQjoipNOr29DdOzAA0HlKKQ0hfcKLrt3uG6zkfEiUpU9DjX9umK2cnxvSEQHXeJGcMt8MfNSNpaXmsZbLcgOkbwfc69xMuOA5FqnPSbIMABgAaBcVRdGnnN/mG4tG9V0B+3hGqNs0nBXSqwJudk5axg8FXB7w54ATgG8EHB3wvoD3BByA9CqkfZ7ukF6MtPeS/175zdV/+4mqyf7dgFMC/lKdCHJT2TYAYADAAIABAAMAUyRgFvCmgFu81tT1TSG9NcpyvmeFuvX8TgFXOyctBbVcE3BWwKkBxwQcGfDRqh4/CGnfEfU6vBjYuU4d/7rqv3sP8KGArwZ8q/rfPifgWt8iaxsAeJrKlJYL6aUhneYPXbsNfVbAK1NKCz3al+HjqywHlPMeIR3v2wAafjrvTnJ+g6TkpI1rs6dLOa8W0uc6vCGwbBCUFE6RZQDAAEA7KaW0oDr94Xm+/pWM5wDP8axQp+mcc0Y6yrVtWzUVbwm4aQlfHXB9nX+/KeAe/91sAwAGAAwAGAAwADCjm7hDSF/2XsSovjCk7SX5mdCR/cFepA85I23jRyo4u14tf2mdf/cTELYBgGXY5OtDWg/pGJ+utNvED1RvST4zZui9mTYqrLpDWhTS/gH/dLYasvl/v3J+fUppthM2MQiAnAdC+rgbtxMsenwS1DIAYACgPZvE6yBd4nm+rh8O+EGU5UqeGUbWE5I2rU57Oyu2bRsAMABgAMAAgAGAmejvSBsG/M7rTV0/Vj1bNeSZoS5A0o/kHrVt2wYAJjBx1pB6gZcEXBF+a9luXWrsAuCVQ4OD8/3udUPnh25JKwd8sno25FHnbRlO5Ek3KedXlSnNcrKWuSnQG9J7A+5zpsbtUyT1OD2WAQADAO2kwcHBbnJ+QUi+PnT0k9GfAgrPDiNq2y7gFdV1786KbdsGAAwAGAAwAGAAYGbqsT2qp3687tTpIQL/K8mHh+r3qXfwd6Bt2wYAlm0SXR3pawE3+M0Mu4V8M9KPJK3pUTzlc8SzQjou4DrnbkKb/1eR8xtSSnOdokk3BrpCOsTPAYzbNwDrODmWAQADAG33m5fl8jF8BeRdnuvr+vaA1wB9niEWV1EUs6urZ50T27YNABgAMABgAMAAwMzNJe/3AY/RgV7glUVR+EDHEgKWBw4JuN85sW3bAMDEJ9H+kF4f0hm+DcBugStOzwbeUpbloEfv9CgNDS0Mab+AC53Bcfk2pHemlOY7PQ1ap3IuQjrcT9eMy3cHHODUWAYADAC0oyStEfDjqib0nD/S/4ycN/cMUTc7Kwb8zRmxbdsAgAEAAwAGAAwAzFB/MaWhkH7udWdUX6icn+sZok4tn/OaIZ3gA6y2bRsAWLaGSB/SJsCnQrrbwbGb0HeF9CXlvKWkOR6107wBK60V8BvncFzE7oclJaemcSqKoks5r4b0LYNq43o/7ieSDKBYBgAMALTjetAjaYeASz3fj+qTJPkpgPqbDbsF3OqM2LZtAMAAgAEAAwAGAGaovwibB1zitWfUg2/HhbSGZ4kR34HdSDv5cJpt2wYAJgcCLCTnnQPOcnjsJhrE5wM7IQ0URdHtkTojAMBWId3gPC7F0s8lLXRipgYCyGW5QUi/NfG7VP8D2MypsQwAGABoR6WUZgFv8xWQY8CI0oc8S9T51s15AdKnnRHbtg0AGAAwAGAAwADAzCjn3MfwLaMPev2p6/sCPi5pec8UI/atZgMH+0k427YNAExCZUpdSCXwroCLfNrSniE/FNIl5Hxw5Dwgqcujc4bmhLKchXRAwOPO5ah+PODsADkxU7rp0xVluVnA+c7cmL4D6a1FUXjetAwAGABoSwE9SN91bTKqrw9pH0m9ni0WqyNqklYO+E7AI86JbdsGAAwAGAAwAGAAYHpVFEVNUn/Apw0BjOp7kV5dpuRafuR3YG/A//pgkG3bBgAaQ1atF9JXA65ymOxp9HUBx5DzM4qicLEz88VVEcPv7Tqbo/ti5byVN1ynLZM7BvzbuRvzNor/zkNDC5wWywCAAYB2VZlShOQ33Uf32UhbuDapu+mwRcCZbhzatm0AwACAAQADAAYAZiwDawecEPCo16G6vjKkLTxb1N2vGgzpbGfEtm0DAI0h82YDLw34UfjNRHtq/e+AnyG9wu9XN1FhlfMqHf5htjTfCrxV0lynZZoAAKkL6fDqfTRnsL5Pj5w3cFosAwAGANq48dMD7BFwtef8un4U6TvKeUXPGHXnkL0CrnVObNs2AGAAwACAAQADADM2t+wWcKnXoVF9qnNSJzdlWYucnx9wuTNi27YBgMY02LqAFYDXASeH39y0G+sHkc4I2B9pFY+4phv/ezmjo2e3ahi5uT69mawhrRlwujM4+vXPSLs6LZYBAAMA7Sxg+YAPBdzjeb+u7w7pAyHNc1pG1BJzkN7mZyRs2zYAYADAAIABAAMAM1aPzUZ6V8ADXovq+pGATxdFMcuzxojvwLkBB/p2UNu2DQA0dmGehbQocn4Dkk9M2I0YoBcg7Ye0qiQXNM35YfZVZ3X0q/+RtvT1ujNS7PcivSzgBudw1JOf70opzXFaLAMABgDa+vsk59VC+pmvDx3VtyG9wEmp+207P+CHzohtGwAwAGAAwACAAQADADNWjy0ETvFaNKpvRHqtk1L3O3AwpK9UoISzYtsGAKyGFWpl2YM0gPQepAsD7vPpCXucfjzg/pAuB96NNEdSj0dVcyql1BdwnXNb1/cBb5LU7aTMjAYHB2cjvT/gXuexrr8PyEmxDAAYAGjzWqUL2CbgPH+PjH4rTJnSSk7LSAGLgN8YILE72tJNHd48NwBgAMAAgAEAAwAzqLIs10S6xGvyqH30c0Pa0f3HxVUURa0sS0I6NuAhZ8XuYN8V0t0GAKypoa2kRUgfCDizAgE86OzRJyM4O6SPqyzXKIrChUuzj++ct/C4HrVR9tuiKOY6JTO+Bq0W8Gtv+tTN6DkhremUWAYADAB0yEbu6zt8g2IsP4b0k3CjuV7jsBtpq4CzXUvYHepbkT4UcLMBAMsAgAEAAwAGAGaor9ML7BNwi9flUf0LSWv4BtI680lZrhXDT1Y7J3Yn+n6kQ5H+ZQDAmurFep0KBDgj4E4PPvvpJ6UDTkN6OzlvUhRFr0dMyzTT3xXwsDM8wrcg7eCENElOpbd43anre5G2luQPRMsAgAGATtjInR3S/3juHxPE/YikBU7LiO/YWUh7hXSRIQC7w/ww0tGSdgq43gCAZQDAAIABAAMAM5iJgZA+GXCP1+dR1+zPKOflnJa69fwGAZc6J3YHHv46STlvbADAmq7JtlfSRkhvDPhxwN0eiJ3daAR+gvRGSet7hLTkxuo3fCVq3YXlK0jznZAm+VAsyyEkvxlXP6sH+JkVywCAAYAOqlvWqE5yew2o76uQXlYUhdeFJZRSmov0yg4/BW13ni+U9AJJGxsAMABgAMAAgAEAAwBNUMuvHdJJAY95ja7rO0J6tZMy6ryyd4fXM3Zn7r1tz/DBbAMA1rSCALNCCuB5wA9Dut8DsrOuGQ3pWOW8C9IKknzivwVVFMWcgD86zyN8LdJ2PlXddOvO7s5mnSIIvg7MckIsAwAGADqiaQg9AXt4E3fMN0T/hLSR01K3lpiL9DbfAmB3yi19SJ+SNFfShgYADAAYADAAYADAAEAT1GI9kfPzAy73Oj2qr0wpLXJaRiqX5Vykt3b43GJ3Vs/385KWMwBgAGAmF+4u5Twn57wR0hHVVSx3uanShhv+cFdIVwJfA54Z0qyUkjdIW/mDrCyfGXCx872YH0U6tCxLX5/bhB+KwAnO6MiGlaR5TohlAMAAQMdAANLckA7yTWRj1u0/QpLTUree6AU+FPCAs2K3NQwknfp/m94GAAwAGAAwAGAAwABAE/Uiu0N6R8C9Xq/r1/JIJ6SUktOyuIqiqElaENKHO3zdsjsD7D8VWFdSzQCAAYBmaqisGNLrA34VcGX4bfFW90MBVwQcj/TGKMsVnPK2+iDbJ+BG53wxX4S0o9PRfEop1ZTz8/xe3EiXZbmGE2IZADAA0GHfHCsBx1a1qteC+qcFPlIUhW/pql8DD4T0VTcO7Tb2LcB2T5szDQAYADAAYADAAIABgGbayJ2L9AOv16P6HuAwYKHTUrc/2I90WMC/nRW7TX2Ncn7F/z3tZwDAAEDTaWhoaHlgD6TPBpzuCbnlfGfAb5A+FdJukpZ3qtvyI//jAX6+4yk/CBwpyQV2kwoJpJOd1RGbPC9xOiwDAAYAOhAC2Bo4xzePjeq7lfNuTsooNUXOK4d0lL9T7Tb0w0iHLDFfGgAwAGAAwACAAQADAE2lnPM6ARd43R7VVyO9MqXkJx9HgwByPsRAuN2GvjfgcEnF0/rhBgCspp2M55DzBiG9LKQvh3SubwVoap8PfAlpX6T1JM12itu2aT434Jtumi9O1yHt6XQ0dW5nIf1nwH3O62IAwHudDssAgAGATlNRFL1Ir/H1oWNeG3gmsIHTUjc/3eS8akhfcYbstrL0S6RFBgAMABgAMABgAMAAQJNnpDekVwbc7PV71G/Cs3LOmxVF4Sd46+87LUQ63BCA3Wbf8KdLWufpWTcAYACgNRb2shwg5/WRXgV836ctmsY3Ad+Q9HJgPUn9RVF0O7Ftv5G6ZsBvnP/F3sk8TdJyTkfTfyQ+I+AvzuxihdC3nAzLAIABgA6tZ+ZVp7i9HozynBdwTEppwGkZta7IIf23oVi7XZ4zC2knST0GAAwAGAAwAGAAwABAsyuX5fJIh/qw4Kh+BPgx0O+0jJqhXN1AbQjAbgeQ93blvMOSe3MGAAwAtIyKoqjlnHuA2QHLRc4vDunYkC4PuMOT9ZQTRA9Wf+frgO9KelGZ0hAwuyzL7qIoHNLO+Rh7bsA/PC6e9P3AfzoZza/BwcHZwCcCHnVun/R5SzZ6LcsAgAGADspKCvi7N3BH9V1I704pzXNaRq2LZ4f0jepbyZmxW9U3Iu03NDg44qpgAwAGAAwAGAAwAGAAoFn3CaIsVwv4qXs8o/pR4NCUUq8TM1IppVpZloNIhwXc7bzYLewHkN6SUhpxMNcAgAGAdpisF0raFelLAacHXFRtVD/mwT9p3xnwr4BTkD6LtGeUpcnBDhfSKwJu8vh40tdK8um4Vskv7B5wuXP7pK+XtJKTYRkAMADQiZLUjbRDSJd5PRjVVwEvBtw4HH2jYiCkr3b4Jpjdwm+FIn06pVSMMk8aADAAYADAAIABAAMAzdzj2S7gXAO9o/rBnPMeRVH44Mfoe0v9FQTgG6ftlhzjIX01pOVH2ccxAGC1VRNvCGmbkP6repPx5IDLfB3QBCaMYYDi1wH/DRwAbK9RJhCrYz/w9w+/o/50+wr1FlLOeVHAac7tk74VaQcnwzIAYACgY/NSlvNDOijgdq8Jo/rPynldp2XMzYoVQzrSjUO7xfxYwE8krTpGj8UAgAEAAwAGAAwAGABoWhVF0Yf05oD7va7Xv9UX6e+Snu20jAkBDJDzIb5h2m61Wz4CjkdafbRsGwAwANDOE/d8YE1gp5DehHR4wIkBl/p2gKfeA6qeUDgR6bMhvRbYLqR1JM13iqw6hXVPwHs8dp62kMDuTkZrZRj4bMADzi9PBNwd0pudDMsAgAGAThY5L0L6nqHhMXN1bFEUc5yWMTcsFlUQ+r3OjN0i/hOwwVi5NgBgAMAAgAEAAwAGAFpgD2D5gG97XR/VDwV8F1jFaRkzRwtD+liHzz92K4G80p+U81ZFUXQbADAA0OkTeE/OeSHSooD1JT0f6d0hfTfg7A6iBO8K+FvA95AOVM7bI20Q0qKc88KUUpfTYo2lnPNC4AteZJ/0dQErOBktttEDewXc4vzyRMD9SB93KiwDAAYAOllFUXTlnDcLuMDrwqi+D3i707LUTYvM8I0SBs7t5n8GKuedlpZpAwAGAAwAGAAwAGAAoEX6PGsjXeL1fVTfg/T+lJIP/I1V9wzvHx1oCMBuAV8dOe+aUuobc240AGAAoBM1MDDQhdQb0pyAeQELclk+G+mNIX2/nU6GAj+Q9HqkLQIWAPNDmiOptygKb/hbEyuEpBWB73uRrSx9PaTlnIyWy3EZcKEzzBPVadevOBWWAQADAJ2ulFJ3SPv6KYCxmwzAnimlbidmzDqjN3LeL6Qb/B6t3aRXAV+nnPcYGhzsNQBgAMAAgAEAAwAGANpBQ0ND3eS8a0iu5Uf3Lcr55SmlXiemvoqiqA0NDc1FelnA+YZ67Sb1HZJ2jbLsWVqmDQAYALBGDoo92+wDd2f/qlYDP8TW9vvpiwE2b5Tkwrk1G1Vfd4af9IlOhNVm49sAgDWZb4HPV2/peX2o7z/mnDcxSDy2Ukp9yvlFIZ3rpyXsZtr8D+lacn5zSmneeLJsAMAAwDjqLgMAVqP7TgYADAAsW3bKcmFIHwm422v+qL4Q8Lw1vrlot4AznRm7yXxbSO+fQH/DAIBlLTEoDABY1ujFz6YB53mx5YmAOwO2cipadq5/rTP8pH8jaaFTYbVRI9oAgDWZ9WHFkAw7ju4Hkb4mKZyWsVUURQ/SdgGnVG+vOj/2TN9e9v/Zu9M4u6o63eM1JJWZrKRq7fU8fwaRGRlEQBBsJwRsxYELiLY4IqA0tNqieB1AwbZbUZwVWlScwAm8t52vIJOiIspoCwgy0yAhBEIgIeN9kUMkSc11TlWdc37fz+d500SxU89aZ9de/7P3PS7luJzzsJ9gxgAAAwDDuO5iAAD1vu/EAAADAKO/lre3Cvv7DGAOmvNzzvNoy7D6tEfYl4a9gt6QSZD7QvpASDOH3WEGABgAwEaLggEAYOBf7p/He5D+/g24kHagFc1JOW9Fh9fld5K2phVooc8qBgAw+v5UVVdIB4R9A58PAz9y0PYJtmfQmMGllLptPz3s83kdAJngw//FLuXokRz+d3QwAMAAwLCuuxgAQH07xQAAAwBjv7f/gpD+xLXXgHnU0rtTSj20ZVjXQntY+nLYD9EdMoH5W0jvD2n+CPdDBgCADRYFAwDAwL/cv4j3H627ifb1KEW0onlvyId9B132mrCvs703rUALfVYxAIAxKaXMsvQubvIMfgOilPIc2jLsw4zNLX02pKV0h0zA7y1La9/8H/HQDgMADAAM47qLAQDU+zOTAQAGAMYk59xj+1/CfozrgAFzS0gH05Zh9amrlBK2Twr7frpDJuQpxNLJIaVRnHUyAABssCgYAAD6v/nTEfZBfOjW3p9pnyxpOs1o6hsLP6DLXhP2X0I6kEaghW5EMwCAMUkpdVRVVdn+Go97HLRrN+aceRXAMJVS5tReQXQDvSLjlFUh3e9S3lJV1aie2MEAAAMAw7juYgAA9f49nQEABgDGfn/fnmr7bJ4CMOh9zV9L2jPn3EVjhv79UFKP194Xvz7slXSIjFMWhnRiSKN6YgcDAAwAYONFwQAA0P/Nn6m2j+aD12vCXhLSm2hF0/9CeBJd9pqw77L9ShqBFroRzQAA6vU58fSwf8PTjwY+XLT9Ldu9tGVEvdq99m7aR+gQaWBWhn2dpdfknGeOtq8MADAAMIzrLgYAUN9OMQDAAECdVDlHSNdwTTBgVtj+Rilli5RSJ40Znpzz5pb+L9fyZBxyu+3XjvGskwEAYINFwQAA0P/Nn+m2T+TDt/YBLL2UVjR9p19Ol9dOk1p6K41AC92IZgAA9fyseGXYC/msGDAP2j5hLAeMbblPVdXmIZ0S9gI6RBr0rb4/Wjo4pTRljHsgAwAMAAx13cUAAOrbKQYAGACo33V8t+1XhH0X1wYD5mFL73cpXMuPQFVVsvSxsO+kQ6Qhg7zSdZb+SaP85v+TzjoZAAA2WBQMAAD9XzgzAPD3XBPSP9CKpt/vd6PLDACgJW9EMwCAukkpTQ3p43xWDHrQeL2lF6eUumnMiK6tZ4b9xrCvpUekzrnY0nPGevhf6ykDAAwADHXdxQAA6tspBgAYAKjnfR97k7A/xLe1B83dll5GW0a8V6WwX2/pSl4JQOr6ZA7pUpfy4hjlK7w2uPfNAACwwaJgAADo78KmqmaE9EE+iL0m7AujlO1pRdPfrNom7HvpMwMAaLm1zQAA6tupUjYL+yI+Lwa+SRH2T0Pi2mjkN6Wn2n6WpW+H/RhdImP+DLC/Y3vnenWUAQAGAIZx3cUAAOp9qMYAAAMA9b7e2iKk8zikHTRX5Zw3py0jvk6aVkp5ekif4LVxpB6v2Av756Wqdso5T63TWScDAMAGi4IBAKD/X8LmhvQNPoy9JuwfStqMVjT9fr+lpevpsxeHfQKNQAvdiGYAAHXV19fXJen5Yd9c+8Y710L9PKbQ9hck9dKYEd847Mw5z7V9Qti3cnOajPJJHAstnVpKyZI669hPBgAYABjquosBANT73hMDAAwA1P1aS9I+tacucS0/0CPH7W/nvj6u5UcopdQZ0jSV8tKwrwp7GX0io7iWXxzSmWHPSinV7VqeAQAGALDxomAAAOj/l7C5IX2LD2WvCfu8Ugo3gpq/0w7pF/TZa8L+OI1AC92IZgAAdZdznm7p2LDv5zNjwCy19DZeBTCmG9TbWTqfnpERflPoD5aOSClNbUAnGQBgAGCo6y4GAFDv39MZAGAAoDH3/O2jwn6Qa4cB83BIJ0uaTVtGvX9tEdJnwr6LJwKQYWZ52NdFKa+LquppwFknAwDABouCAQCg/4sYBgD+nrPq8U5NTHinc0jfo88MAKDlbkQzAIBG3TSMsL/Eo9qHeIdoKc+jLaOXc+61fWzYF4f9KJ0ig+Qh298NaZ9G9ZEBAAYAhnHdxQAA6v17OgMADAA0REppmqUvcv0w5L72ypxzD40Z9bX8HK+9J/EjngZAhsgjYX8n7OdKmtqIPjIAwAAANl4UDAAA/d/0nh/2/+PD2WvCPoNGtMSNBQYAGABAa96IZgAADSNp15Cu5PGhgz6+8BeStqUtY+rZFEs7hfSBkG6hb6Sf/HfYbyulRIO7yAAAAwBDXXcxAIB6/57OAAADAI28779N2L/hOmLQJwtdolJ2r+djyNv0Pvq2lk4M+0Z6RfrJ7Zb+NaSnNHjPYwAA2GBRMAAA9L82KktX8wHNAEALXYz3hv0N+swAAFruRjQDAGiYlFJX7feFh/nsGDCP2v5MznkejRnjflZVs7126OTckJbSLRL20rDPs/QPIc1odAcZAGAAYBjXXQwAoL6dYgCAAYDG9qsr7JfxuqVB83hIXw+Ja/kxqnKeYelZlr7A6yfIk3KppANzzg2/lmcAgAEAbLwoGAAA+l8blaVr+ZBmAKBVSJpl+1T6zAAAWu5GNAMAaPTnR7ftj4S9ks+PAbPA0ttzX98MGlOX6/A5tg+ufWNtCU8EaNtv5N0X0lGWZuacO8dpv2MAgAGAoa67GABAvQ9oGQBgAKDR11UzY+03sx/h+mKQ95KXcrykLhozNjnnTpUyXdL+If2aa/m2zYqw77Z0qqVNc85d47TfMQAAbLAoGAAA+lsba78t/Us+sBkAaJlOlzIrJAYAGABA692IZgAA49Gz2WH/onYox+dI//lLSC+RNIXG1IfWDuQeF/YlYT9Ex9rn4N/SjyXtOwGdYwCAAYChPg8ZAEB9O8UAAAMA4/P5tnnY3wz7ca41Bswi28+jLfWTUpoZ0rEhXVbb5xgEaI/8LaRzXMpzU0pTx/mskwEAYINFwQAA0P8vYXND+hYf2gwAtEynS5kX0pn0mQEAtNyNaAYA0HA55y6V8rzg6UhD5cJSyg40pv43rS29K+yLeB1FS+fBkH5k6Sjb8yeoawwAMAAw1HUXAwCo970nBgAYABifM4BS9gnpjxzCDpjVYf/K9va0pX5SSp2qqs1DOi6kH4e9iK61bJaEfZHtt0jaZILOOhkAADZYFAwAAP3/EsYAAAMArdbpHNL36DMDAGi5G9EMAGC8DsZm2D4u7AV8jgz8qEPbZ6WUptOYuvev29KOlo7z2qd0LaVvLZXfhXSMS9kqpdQ9gT1jAIABgKGuuxgAQL1/T2cAgAGAcZFSmqJSjuBVAIPmsbDPiKris7D+/et2Kdu4lDeGfQFPo2ixJ3hJfwr73bafJmnCruUZAGAAABsvCgYAgP5/CWMAgAGAVus0AwAMAKA1b0QzAIBxU0qpLJ3FDZtBsziko2lLY0iaZmlr22+ydB19a/rcbfs9IT1NUs8k6BcDAAwADHXdxQAA6v17OgMADACMm5zzjJD+k+uPQbMg7OMkTaMx9ZdS6ra0tUt5U0i/rb0rnt41a6RFIZ2mUvaQNHMSnHUyAABssCgYAAD6/yWMAYC/51sT9ege1LXTVUjn0WevCfs0GoEWuhHNAADG84ZNh6Qdwr6cx4cOmlsk7Z9z7qI1jSFpiqVs+6haHx8Keznda4osC/t2Sx+r3aTrkTRZesUAAAMAQ113MQCAev+ezgAAAwDjfRZQee3BK9fyA+eOsA+wzbV8o36nrKopJec+S0dYuqj2agCu5ZvjVRnLQvqfkM4oVbV9SNNSSp2TZH9jAADYYFEwAAD0/0sYAwB/z39J2pRWNH2nNwvpcvrspSF9gEaghW5EMwCAifhMObDND8mGfgyifaFK2Ym2NJ6kWSHtb+mMsP/Eo20n7Zp4KOyrbH9E0raTtEsMADAAMNR1FwMAqPc1FQMADACM92ddl6X9QrqV65NB85uQdqQx47QXlvJC22eEfW3ts5YBlcmXR8O+0tJHJO00ka/tGuSskwEAYINFwQAA0P+Fx5yQvsCHu9eEfaGl7WlF0+/3W1r6b/rshZbeSiPQQjeiGQDARHXvQ3xLY8gbJKfb7qUt43oNv6elk8L+adh/4+bhpPiW0L1h/5+QTrC0vaRJ+206BgAYABjGZx8DAKhvpxgAYABgInpXVbNCOiHsB7lWGfTx5l+VNIvGjNt1WE9IO9e6+cOw/4ceToo8EPbFlk6R9LRJfu+bAQBgg0XBAADQ39ooZXpI7+dD3mvCvjKkvWlF09+s2o5f7hgAQEtey73E0l/aNvanacGEda+y9L227t/QuUylvDjnPIXGjOvNwym2twrpMNufrz0VgGv68c/dtr9p6X9J2mIyfktoQ1VVbWfp1228Z51WVRVDS4N/9l3Vxv24wDZPtmnMtfwVbdyr06uq6qMJE3Lf8ym2z7R9A9fsA+Za26+gLRNyPf8US4eG/Snb19deIcX19XgO8Uq3hf0V26+PUnaKqpr01/K2t7L98za+P3Y+uwc2vNBkAADo/0Jjuu0T+cD3mrBvs3QQrWjyTpeyJ11mAAAteS2XLD29bWM/hRZM2LVSl6TN27p/w4hKKTln3h86cT3ttb2rpdfa/kbY93Et1NAst32NpVMtPUeSmqkvOefplp7WxvvVFgwsDXndtXMbf6btYHsGLaj751SytBP7DsZbSqlLUljalWv2AbOr7c1oy4Ttj522k6WdJR1i+8uWuJZvfK4P6SRLzwipktTdLJ2xPc329m18f2xbdg5s+MsLAwBA/zd/plo6lg99rwl7saU30Iqm3+/fSJdrAy32wTQCAID2kFLqqKqq2/bMUlUh6XDb59UeZ7kk7BVcH406K2q/K9xg+/RSVbtbmitpWs65k/YBAABgrHLOXbZnqpQi6TBL3w/7zrAXcy0/pqwM+5Gw7wj767YPsl1FKT20DmgBDAAAAwv7H7kQWJcTJTGV3cz7vf0peuw1Yd8U0gtpBAAA7Sul1FlV1eaWXhfSl8O+IuzbawMBXC8NnsfDvrf2mrCzLL1C0hxaBQAAgPGScy6x9jUBXw37yrBvDfvhsFdxvT74E7vCvqv2d3aO7cMlzadRQAtiAAAYWNgv5CbgunzFdkUrmrrP/48ee03Y19jenUYAAIAnSNo8pJdZel/YXwv74rBvC3s1105eXXtawh/CPt/SaSG9LqpqG5oDAACACb6Of+LVdC+29K6wzwr7otq1/DKu5b2mdr5xQ9g/tf1J24eWUjZPKfGqOqCVMQAADLo+nlX7JhAXCvYvQ+I9Mk0s7AfpsdeE/TtJW9MIAADQH0mzY+37mF8S9vFhfynsy2vfKGqnR/vfEfZPwj7Z0uGWniXJzfQeUAAAALTdtfxMSU8L6SWWjrP9+dpw78I2u/95V9g/CeljYR9pe7+oqqemlKbSEqBNMAAADLI+7D3C/jMHpl4T0t2W9qIVTXvxuwM9XpdLJfE0CwAAMJxrqC5LfZa2D3sfSUeEdHLY3w37qhYaClgW0k22z7P0QUuHhrS77S0lzaAJAAAAaMJr+SmS5oe0jaV9LB1u+0O2v2HpdyE90iLX8itrZxg/CenDlg4Le0/bWzrnOXzTH2hTDAAAAwtp27Av4MDUa8JeZfsIvvHTtF0+ng6vy08lddIKAAAwUjnn7qiqaSHNtp3C7rX0XEvHhPRJS5fWHje6MOxFtQGBJWEvDfvx2jfrx/NG4PLav3tJ7X/Lg2EvCPsPIX05pBMk7atSwtI827MlTcs5c5MQAAAALSOl1JFz7rI9zfYsS3NDKpb2tnRkSJ+29H/Cvrf2+qsnX8s/VruuXjnO9zCX115j8MS1/KKw7w/7Fkvfsn2S7cPCdtjJ9hzXruVTSvzQgXbHAAAwsJCeGvYPOTBdG9tnSppFM5ruArc77J/R4bWDLGF/j1YAAIBGyjlvJukZUcqBIb3R9omWTg/77NojSC+vPUHg6rCvqX1j57Z+cnft0H5RLfcN8Oduqv13XR32b8O+MKRzLH3a9rtDeoOk/UopO+Wc5/ITAgAAADaWUurMOVeSdrN9YEivs/12rx0Q+Frty4KXPena++qwbwj71n6u0e/c4Fp+Ue3R/Bv+uVtqvxNcHfbvar8vXGzp85b+LaQ3Wtpf0m6SpvBTAjAsDAAAg6yPquoN6QwOTdflr6UU04zmopw3q11I0mH7MUv/RisAAMBEyjnPLqVsJWlbSdtFKXuFdNCGsf0qS8dbeoelt9t+Y79/Tnp27b9rW0m9/A0DAAAAjZFSmiZpmyeuv23vFdKL+7mWP8TS22rX8u+w9I6QDuvnz+0vafvaf1/mbxhAXTAAAAws59wT9skcmv49kl5KM5pLlHJY7fFQdNheHNKxtAIAAAAAAAAAALQkBgCAwYX95to7djg8XfsagC/RiuaRUuoJ+6vj/L7ZyZwFUcoLaAYAAAAAAAAAAGhJDAAAQ6wR+xVh387B6brcIqmHZjQHSbuF/Xt6uy73VDk/lWYAAAAAAAAAAICWxAAAMLiQ9uQAdaN3qL+eZkx+krptHxP2Anq7Ln+mGQAAAAAAAAAAoGUxAAAMsUaqaouwf8bB6bqsCvuHOefZtGPS7+8K+1t0dr2cTzMAAAAAAAAAAEDLYgAAGFzOeUbY53Bwul7+6lJeSDsmt7Cfz+srNsq/0wwAAAAAAAAAANCyGAAAhhb2f4S9lMPTdXk87E+mlKbSjslJ0mzb/1Z7YgOdrcXSkbQDAAAAAAAAAAC0LAYAgKGFdGTY93OAul6uDGnvlBIFmWQkdVh6mqW76en6r6+wtAMNAQAAAAAAAAAALYsBAGBoknYP+yYOUNfLckunlKqaRUMmXV87LH2ejm707f+/WppBQwAAAAAAAAAAQMtiAAAYmqTZYf+WQ9SNco2l3VNKnbRkUvX1qWEvop8bDADY59nuoSEAAAAAAAAAAKBlMQAADE9IZ4e9koPU9bIipNNcykwaMqn29U/SzX4HAP637Sk0BAAAAAAAAAAAtCwGAIBhrhX76LCXcZC6URZaehoNmRwk7Rb2X+hlv9lPEk+rAAAAAAAAAAAArYsBAGB4qqraIewlHKL2+83qc6Kq+Gb1BOvr65sT9tfCXk4vN8pNlnagJQAAAAAAAAAAoKUxAAAMX4utlXrmsSjliJRSFy2ZGJKm2j427AX0sZ9I3wlJNAUAAAAAAAAAALQ0BgCAEa2X73CY2m9Wh321pN1oyfhLKXWqlN3CvoQuDjgAcIpznkVbAAAAAAAAAABAS2MAABjRejmSw9QBs9T25yQlmjK+JM219Imwl9HDfnO/7UNTSp20BQAAAAAAAAAAtDQGAIDhUynbhr2IA9UBc4dKeWVKqZu2jFMnpQ7bL+fR/4Pmcts8nQIAAAAAAAAAALQ+BgCA4QtpfkgXcKA68KsAbP/e9u4h8W3rcZBzVth3071BX0/xJUmb0BYAAAAAAAAAANDyGAAARrBeqmpaSCdyqDpkfh6lPIXGNFZIDvuX9G3QLAz7rbQFAAAAAAAAAAC0BQYAgOFLKXVaOjDsBzlYHSLSZ3POc2lNY0jqDekzYT9G3wbN9ZL2oTEAAAAAAAAAAKAtMAAAjHDN2NuHfTEHq0NmsaXjU0pTaU195ZxnWDo+7Pvo2RCP/5d+nHOeRWsAAAAAAAAAAEBbYAAAGOGaseeG/SkOV4f17vVbLR3JEED95Jx7JL0q7Fvp2JB5LKQP0RoAAAAAAAAAANA2GAAARkZSp+1Dwr6TA9ZhDQHcaemNfb29PbRnbHLO3SrlsLDvrf3d0rHBc19U1bNpDgAAAAAAAAAAaBsMAAAjJ2nrsH/BAeuw898hHRTSFNozOjnnaSrl4LAfpU/DjHQJzQEAAAAAAAAAAG2FAQBg5FJKU2yfHvYyDlpHNATA+hyFnPNMS6/hqRMji6Q30x4AAAAAAAAAANBWGAAARrl27IPDvpuD1hHl+rCPSClNpUHDk3OeYem1Yf+Fx/6PKA+XqtqUBgEAAAAAAAAAgLbCAAAwOlVVlZB+w6HsiLI67FstHZdznkuLBidptqV3hn0HPRtZbJ9ru4cWAQAAAAAAAACAtsIAADA6KaXOkD4Y9nIOXEc8BPCgpQ+WquqV1EmbNu6W7Zm2zwx7CZ0ZcVbaPkRSF20CAAAAAAAAAABthQEAYPRyzpuHfT8HrqP+lvY5Ie2cUuqmTes61aNSdrJ9Ph0Zda8us70lbQIAAAAAAAAAAG2HAQBgbMI+h0PXMeVylXKwpLZ/JUBI8yy9Juxfhb2Cbozy2//SKZJmszsBAAAAAAAAAIC2wwAAMDYq5cCwH+fgdUyvBLgj7A+H9JR27FDOuaOUslPYnw77Ljoxptwc0n7sTAAAAAAAAAAAoC0xAACMjUpRSL/n4HXMeTikH1jaW1JbvRIgpIPD/mPYj9GDMedsVdV8diYAAAAAAAAAANCWGAAAxryGpoZ9TNgrOXwdc1aEvSCkk3POlUuZklJquc5I6rTUI+mZls4NewE/+7rk7pD+KaXUyc4EAAAAAAAAAADaRkqpO0qZZ3trS+8I+/4WOgA6NqStJc2XNIWfNsZDSNuFfREHsHV9LcBtlt5TStleUk+rdCXnPNPSXpZOD/teftZ1y6qw/0vSHHYkAAAAAAAAAADQ0lJKnVVf32xLO4Z9gKWjQ/pc2L8O+8EWOwS6P+zf2P687X+29I+WdpY0lyagUSTNsv0BHuFe9yy1fYmlf5a0Y0ppahN3ZI7tvSz977Bv42db9zxk6Sh2IwAAAAAAAAAA0LKiFNs+MOx3hn1W2BeG/dewl7fJgdDysO8I++Kwv2LphJBeFKX00Q7Um0vZN+yrOIhtSB4N+4KQPhDS7pKmN0MnUkodVV9fr6VDvXbo6so22n/HO3+QxN4OAAAAAAAAAABaS5QyNUp5Udin1Q6+bw77YQ6HvCbsxbW/j0ttf1LSi1NKM2gN6rL2qmqmpTM44G1oloR9TdhnSTpsMg8C5JwV0lvD/lltEGkFP7/Gxfa72IUAAAAAAAAAAEBTi1LWHvjbM6KUPUI6pXY4tjDsZbX3aHM41H+W1f6ebrT0OUsH2O6VNDWl1Em7MBqSXhD2LayvcXm6x6Kwrw/pw1HKM8OeKalHUtc4/8w7o5TukKaFpJCOsXR+7Wkri2vvpudn1sjDf+luS/PYgQAAAAAAAAAAQFOSNMW2w35WSB+pPXacbx2PPXfbPk2l7BvSppJ6aBtGytKZYa9kPY37QMANtj9n+zBLu1ra0qXMzzn3pJTq9vNNKXVJmm0pbO9o6QUhHRvSebVXFfDzGN+ssPQ2Sd3sPgAAAAAAAAAAoKlImmFpT9tvDvu7tW+XcgBU/ywI+weW/sWl7C0p0T6MYJ3uGvY9rKMJy2qv/fu/KKQvWjoh7NfWnvKxp0vZRdLmWqsvpTRlg59fl6RU++cKaZeQ9oi1T3c4xNIxtj8S0vm2bwz7Mf7OJ/Tb/5dbeio7DwAAAAAAAAAAaBqS5oT0IkunhX1F2I9w8DMuWRr2H8P+iu1DJVW0EcMR9n+wfibdKz/+Wts/Lw37B2F/J+xvhv3psD/+pHwy7LNr//w7tT//u7BvCvtBHuk/qbLI0lE8rQUAAAAAAAAAADQFSX0hHR72eWHfXDvE4tBnAr5RHPadYf/E9rGS+mgnBmNpu7BvZe0Q0tD8zNK27DgAAAAAAAAAAGDSktRtaZ6l91j6U9iLeJ/4pMmqsBdbulbSW3JfX59LmVLP94ujZdbxdNsn8W1xQhqWBywdJ6mbHQcAAAAAAAAAAEw6kmZY2sbSv1i6g8OdpsgdIb3XpeysqprJIACezPYOYV/GOiGk7lkZ9nmSNmGnAQAAAAAAAAAAk4qkKZKeYekES1eGvZzDnabKirCvsfT+kPZKKU2l1ait7alhHxP2A6wTQur77f+QXs4uAwAAAAAAAAAAJhVJO1h6X9iXh72UQ52mzvKwfx/SB0LamXajo6Ojw6VsYen7tUER1gkh9cmPJc1khwEAAAAAAAAAAJNCznmupDeEfXHYSzjMaaksCfvXlt4mKdP29pZS6pJ0aNh3sTYIGXssLbS0H7sLAAAAAAAAAACYcFVVTS2l7Bn2+WE/FPYqDnRaMqvDXmzpIksvC2lqSokF0KYkTbP0nzwFgJAxZ6WlEyT1sLMAAAAAAAAAAIAJk3PusbSl7X8P+zEOcdoqq0L6ikrZzaXMYjW07R6wedi3sB4IGf1gle1v2y7sKAAAAAAAAAAAYELUHv+9qaU3WbqMb/y38RCAfaOld6mUrXLO3ayO9hPSa8NezHogZBSRbnEp/5hS6mI3AQAAAAAAAAAA4y6qamqUsn/Y54S9gAMcEvZDtn9s+9UppWmskvZiaY7tr7IOCBlxFod9alTVJuwkAAAAAAAAAABg3KWUZtg+Kewbw17J4Q3ZIHfYPiXnXLFa2kfOudPSvmFfzxogZPiP/g/pUts7sIsAAAAAAAAAAIBxk1LqkNQtaQdL3w77EQ5uyCB5NOwLQ3q2pO6cM4uoDeScZ1g6gVcBEDLs/M3SKyTx6H8AAAAAAAAAADA+cs6dpaoqS28N+xYObMgIssDSqS5lS1ZS2+wX88L+UtiP039CBs1y2x9k1wAAAAAAAAAAAOMqpGdaOjPsBzmwIaOK9H9t75VSmsKKaos94xlhXx72KvpPSP+x9LPe3t457BgAAAAAAAAAAGBcpJSmWvpftYM8DmzImN5zbfsKlXJEznk2q6v1WTok7EV0n5B+c5Pt50rqZLcAAAAAAAAAAAANl3Oea+nEsG8NezWHNaQOWRX2XSF9PKTNWGWtTdK0KOUj9J6QjbIo7ONtT2enAAAAAAAAAAAADWW7Q9Jmtr8Y9iMc1JAG5DHbPy5VtQPffm1tUUqEdDFDRISsy/KQzrDdxw4BAAAAAAAAAAAaKqXUZWn3sC/ikIaMQ26pPQKbb8G2sLB3CfsqhgAI8cqwfxRVtRU7AwAAAAAAAAAAaKic8yyVcpClP3FIQ8Yxd9h+s6R5rMLWlFLqdikHh/1X+k7aPFeHtA+7AgAAAAAAAAAAaChJxdLbw76Fb+mSCcg9YX84pE1Zja0p5zzT9rvDXkjfSZtmsaRD2Q0AAAAAAAAAAEBDSeq1fUrYf+Pwn0xgHgrp8yVnhgBalO0c0n+GvZy+kzbLMpdySm9v7zR2AgAAAAAAAAAA0DAh9YV0btiPcEBDJkEeC/uXvb29SVInK7T1VDlvGvbvGTYibZRVIX3JVeWcM5sAAAAAAAAAAABojJAU0o84nCGTMBdb2j3nPJWV2nqqnDcL+/KwV9F10uJ5POyvS9qMlQ8AAAAAAAAAABoipdRte8ewzwl7JQc0ZFJ+Y9a+QtJ+OeceVm1ryTl3q5T9Q/ojQwCkhbM87J+HtBerHgAAAAAAAAAANERKqcvSPmH/MOylHNCQSZyVYV8u6QU55yms3taSc+5xKQeHfQNdJy2a61zKvqx2AAAAAAAAAADQECmlTpWye9gX1R5LzAENaYYhgCtLKc9iBbeeqKpZlt4U9j10nbRY7rF0QEqpm5UOAAAAAAAAAADqLqXUUapq27B/F/YKDmdIk70O4KYq5+1yzp2s5tYiabql14a9mK6TFsldlg6aP38+h/8AAAAAAAAAAKAxSik7hv3fHMyQJs4NKmVfXgfQmiS9KuyH6Dlp4qwO6R5L/yRpKqsaAAAAAAAAAAA0REhbh31h2Ks5oCFN/iSA35ZS9kkpdbGyW4vtGbY/GPYDdJ006eH/HS7l2JzzLFY0AAAAAAAAAABoiJC2C/vrYT/KAQ1pgSy3/V8qZaeUEq8DaL39qi+kfwt7AV0nTRXpPpfy1pzzbFYyAAAAAAAAAABoiJC2DOkbYS/hgIa0UJaG/V+lqp7KKm/JfSvH2icBLKTrpEkO/5eqlDflnGeyggEAAAAAAAAAQEOENDekL9QOSzmgIS33JICwLwqJVwG0INtzLL0h7MV0nUzmWFqgtd/8n8bKBQAAAAAAAAAADSFphu2PcjhD2uCbt2eElFj1LbuXHR723+g6mYRZGfb1lg5IKTGIBAAAAAAAAAAAGiPnPNP2MWE/zgENaYM8HNLJkuax+luPpJ7akwD+HPYq+k4mSVaFfY2ll6eUprBSAQAAAAAAAABAQ6SUptQOy+7kgIa0Ue6xfaykWewCrUfSdEsvD+kPDAGQSZKLw34Rh/8AAAAAAAAAAKChwn5h2NeHvZoDGtJmudn2QZI4kGtBOecelbJv2BfVHr1O58lE5ech7cKqBAAAAAAAAAAADSOpI6Qdw76AwzHSplkd9h9LKTuxI7SmlFJnqaqtQ/oeQ05kIvYY2+da2i4kFiQAAAAAAAAAAGgclVJsf5MDGtL2kX5pex67QuuyPdP2Z8NeyCAAGafhor+FdKqk+axAAAAAAAAAAADQUCmlKZLezyENIWtj+2M551nsDq1LUrL0tpBu4KknpMG5Luy3SGJPAQAAAAAAAAAAjadSDgv7AQ5pCFmXhZaOSilNYYdoXTnnmSrlFbYvZgiANCi/CumAlNJUVhwAAAAAAAAAAGi4kPYK+w88BpuQjR7Zfb2lF7JLtLaUUrftncP+Kr0ndcxyS1+zvbttFhoAAAAAAAAAAGislFJHzrk37G+GvYLDGkI2ysqwv2d7y5wzm0aLs1RJenfYi+g+qcMTRD5UqqrknDtZXQAAAAAAAAAAoOGqqppl6eSwH+WwhpCBY+mjVVXNTSmxcbS4lFK3pP3DvoS9kYwiy0L6pe3nsZoAAAAAAAAAAMC4iaqaEtKLw76RAxtChsz9ll5VSmHzaJ898ikhfTTse+g/GWb+J+wzcs6bsYIAAAAAAAAAAMC4UlVtFvaFHNgQMuxcK4mDvTaSUuqx9Iawf8trUsggWR7272wfbXsOKwcAAAAAAAAAAIw72//BgRYhI34VwGdSStPYQdpqr+y2vaelz4W9kHVANsgjtr+gUp4pib0BAAAAAAAAAACMr5RSR1TVXhxkETKq3GP70Jwzm0kbkdRpKVk6LKTrw17FWiBh36pSXmx7Xkqpk5UCAAAAAAAAAADGXVVVsnRR2Ks5vCFkVPl1KWU7dpP2lFKaafvEsO+qPfqdNdFeWRH2bSF9IqT5rAgAAAAAAAAAADBhJM20/b6wH+IQh5BR59Gw/z2kuewq7Snn3KVS9g37uzxNpa1yb9jftn0gj/sHAAAAAAAAAAATztILw/4zhziEjDm3h/1SSd3sLO0rpAj7PWFfHfZK1kXLZnnYl4X9Wkm8/wMAAAAAAAAAAEw821XYX6o9vpgDHULGGNvft12xu7Q3SbMtPdP2qWEvYm20XP5i6b2WdrVN4QEAAAAAAAAAwMRLKXVZOijsBRzmEFK3PGbpcElsMnhiEGBfS+eGvYT10fRZHNInbD+9lDIzpUTJAQAAAAAAAADA5CBps7Av4kCHkLrnVklz2WVQ22s7LHVI2jWk74d9X9irWCdNk6Vh3xHS5yVVsfZnSbEBAAAAAAAAAMDkIumdHOwQ0qBXAUjvSylNYafBk6WUpod0WG0Q4GZevzKpszzsa8P+tKXdJbGeAQAAAAAAAADA5BRVtWXYf+WAh5CG5RZJe7HboD+SZll6ie1PhH112CtZM5Pq4P8KSx8M6dmSptNYAAAAAAAAAAAwqVn6BAdOhDQ0j4f9JUmz2HEwEEmzLT0z7H+pDQKwdiYuyyxdYuntIe3BEzwAAAAAAAAAAEBTkLRH2Ddy2DPpssrSbZYuCPuskL5Yy6ct/aulN4X0zyF9dt0/s79i6ZKwb+Lvb1LmppAOZNfBUCz1WNrK0ust/SrsZayfccvqkL5p6WWWNq2qalpKiVICAAAAAAAAAIDJT9I0rz04Xs6hz/gf8Ie9JOz7agf254T0AUsvr6pql6qqplrqtNQZG0RSh6SOqKqOJ//fba/983ZnVVUzq6p6uqXDbJ8Y9hPvGL837Edq/35+DuOfsyzNZ/fBUFJKHSqlw1JnVNXuIX0kpOvCfiDsFayluj7if0FIV9s+Kee86RP7LAAAAAAAAAAAQFOx9Pyw/8QB0Ljm/rB/E/Z3LZ1s6aUah5OmlFJn1dfXZ+lFYb837G+HfXnYC/iZjGtuD+kfJXWxA2GkazjnXCy9Juyzw74i7MWsqVHnwbCvDunMkP4pqmpTWgYAAAAAAAAAAJqWpE0sfaz2bnIOgxr//vdrat/+PlLSjpJmTuTPP6XUE1W1ve2jbJ9Ze984jxkfn3wxpHnsQhjD/j3D9q6W3mbpG7X95VHW1pBZFvbvbX/F9rGS9qZNAAAAAAAAAACgJVjay/YNHAg1MNLDts+1dHTt73u+pM7J1IOUUmdVVcn2XmEfWXsywCJ+fo19CoTtfXjEOMYq59xZqqqEvbelwy19NKSLw17KOnvSI/6la0P6nKUjbO9RSulNKfEUDgAAAAAAAAAA0BokzbL04bBXcjjUoG+ZSj9QKc+xnXPOU5ukF1NCypb2tfStsB/hZ9mY2P6c7U52I9RLSqlL0pyQNgtpb9vvD/vSsJe04RpbbelSSx9UKc8L6alRSuLQHwAAAAAAAAAAtCRL21i6iYPYumZF2HeHdK5L2bt3/vypua+vKfshqcNSp6RdLZ0d9p21///4Odcvj1Q5b8FuhIatYbsz7K6wuyQ9M6T3WvpZ2DeH/T9hL27yV8AsD/uhsO8N+6aQfm77fZYOkDTTUpdL6cw5UwgAAAAAAAAAANDabJ/IAWxd80BI54a0f0qpp9X6Iuk5ls4J++6wV/HzrtsrIv6D3QjjLec8X9Lzbb8r7M+H/aOwLwv7utoan4xP/lhS+992Q9iXhP3jsM+wfbzWHvjP5ycLAAAAAAAAAADakqQ5Yf+ZA9i65PGwL7N9fM55k1buTUibhPS6sH/Spo8Ub8RrAK6VtCW7EiZSznmGqmqrkJ5t+9VhvyPsj9v+atg/r71G4Kqwbw97YQOHgBbW/h3X1P6dvwj77LBPD/udIb0qpBdK2kLSLH5yAAAAAAAAAAAAHR0dtUNcHuc+xvdLh3RXSB+xtIuknnbojqQptrcL6d2WbqcHY38NgKX3sithssk595RS+kLaLqRdbD/T0n4hHRT2qyy92fapTySk00L6TtjnDRXbH13vP2sfHfarLR1kaT9Le4e0s+3tJfVJmsZPBAAAAAAAAAAAoB8ppelh/yzs1Ry+jinXqJT9Q5rTjj2KqppZqmqvkC6lC2McJLF/mnPuY3dCM5k3b163pNlPJKpqk5CqkMpQkTTnyf9ZSd38jQIAAAAAAAAAAIyCpReFfRcHr6POwyF9rcrZOefOdu5Sb29vh6ReSx8O+94GPha81XN3SK9OKXWyQwEAAAAAAAAAAAAYlpzztLA/V3tvPQevI8vKsG+19G5JiTat16vZlt4Q9u95tcSossL2Z6qq2oQ2AQAAAAAAAAAAABgWSbuEfTkHriPOqrD/qFIOyTnPpEkbSylNCek5Yf+Uvowqf7C9J00CAAAAAAAAAAAAMCxhvynshRy2jjh/tvT8lBLvqR6qY9JOts+nMyPOUktvyTn30CIAAAAAAAAAAAAAg5Ik218LezWHrSOI9GuVsk9KqYsWDatnnZJ2sP0D+jOy2P6+7UKLAAAAAAAAAAAAAAwopdRh+9lh38xB6/C/kR32D0PaJvf1UaIRkNQhqYR0etgP06VhDgBID1jaNedMiQAAAAAAAAAAAAD0r6qqHkvHccg67CwO+8shbUN7Ri/nPN/SRxkCGNEQwDtVSiftAQAAAAAAAAAAANAv2722v88B67CyzPZnJW1Oc8buSUMAj9OtYeWasLtpDgAAAAAAAAAAAIB+qZQdwn6Aw9Vh5eeSTGvqp1o7BPBJhgCGleVRVbvSGgAAAAAAAAAAAAD9kvQWDlaHEenykLanMfWVc+5QKVvaPo+eDauHH6A1AAAAAAAAAAAAAPpl+0IOVgfNaktXWtopJArTAJI6bO8W9i/DXknnBs0fcs5TaQ0AAAAAAAAAAACA9UhKYT/EoeqgucOlHJJS4t3rDWZ7/7CvC3s1vRswd6mUZ9AWAAAAAAAAAAAAAOuxfUjYKzhUHTAP2z5V0ia0pfFSSlNUytEMpQzeybD/lbYAAAAAAAAAAAAAWE/YXwh7FYeq/WZl2D+2vQVNGT8559lhn0X/Bu3lOSklXgMAAAAAAAAAAAAAYC1J88K+kgPVASLdZZtHrU+AkDa19Gd6OGB+FVW1NU0BAAAAAAAAAAAA0NHR0dEhaf+w7+Qwtd8st320pE6aMv5yzp0q5bCwl9DFfnNXSIfTFAAAAAAAAAAAAAAdHR0dHbbfF/YjHKb2m1+EPZuWTJyQ5of02bBX0MeNsszSSZK6aQoAAAAAAAAAAADQ5iRNs/TV2vvEOVBdP3dbeqmkLpoysSztFfYf6WS/+bqkipYAAAAAAAAAAAAAbU7S1mFfxCHqRlkR0idcSqIlk6Kn0y2dxJMq+s2ltnemJQAAAAAAAAAAAECbs/38sP/EIepGuS6k56WUOmnJ5FCqasewr6CbG+XOsPenIQAAAAAAAAAAAEAbSyl1hn1M2Is4RF0vS0P66Pz586fRkskj59wZ0jFhP0RH18tqS2/p7e2dQksAAAAAAAAAAACANpVznmH7YxygbpRrLe1FQyYfSSnsK+noRvmUpbk0BAAAAAAAAAAAAGhTljYP+3scnq6XZSGdnlKaSkMmaW/tt9PTjXKB7U1pBwAAAAAAAAAAANCmQto17N9yePqkSHerlKfRjslLUoR9G31dLzeGvQ3tAAAAAAAAAAAAANpU2M8J+w4OT9cbADgnpdRFOyYvSd2WPkVf18vjYe9COwAAAAAAAAAAAIA2lHPuDPvQsFdzeLouK0tV7U07JjdJHSE9PaQH6ezfY+koSZ00BAAAAAAAAAAAAGgzJefplt7Dwel6B6jXWZpDOyY/28X2ufT2Sf21PyaJp1cAAAAAAAAAAAAA7SZKmRvSFzg4Xe/x/x8IqYd2TH4556mW3hr2Mrq7bgDgp5a6aQcAAAAAAAAAAADQZmyXsC/k4HRdFob9XB6h3lQdfl7YN9HddU+wuJkBAAAAAAAAAAAAAKANWdrU0rUcnK779vQPLG1GM5pHKcW2v01/12V52FNoBgAAAAAAAAAAANBmwt4q7CUcmnpN2KvCfo+kaTSjeeScOy29K+xH6PDaSHoqzQAAAAAAAAAAAADajO09OTBdl/stHUIrmk9IB4V9Cx1eNwDwAloBAAAAAAAAAAAAtBlLr+HAdF2usLQnrWg+krYO+3I6XHuVhfRGWgEAAAAAAAAAAAC0mZDez4HpunxXUkUrmo+kHkvfDnslPfaakD5EKwAAAAAAAAAAAIA2E9KnODD1mrCXWfp3Sd20ojnZPiXsR+my11g6m0YAAAAAAAAAAAAAbcb21zkw9Zqw7wnpNTSiqbv80rAX0GWvsfRdGgEAAAAAAAAAAAC0GUu8N31tbgrpBTSieZVStg77TrrsNWFfTSMAAAAAAAAAAACANsMAwLpc5VJ2pBHNK6XUE/Zf6fLagRYaAQAAAAAAAAAAALSZsO/hsNRrwr5U0iY0orlZuoAue03Yt9BnAAAAAAAAAAAAoM2E/TiHpV7FO9Nbg+0v02evCfsOSdvTCAAAAAAAAAAAAKCNMADgNWEvs/Rx2tACfZZOoM9eE/adknamEQAAAAAAAAAAAECbSClNYQDAa8JeEtLbaUTzC+lI+swAAAAAAAAAAAAAANB2qqraIuzlHJZ6cUivpxHNT9I/0GcGAAAAAAAAAAAAAIC2I2nPsFdwWMoAQAt1mgGAtbnX9vNpBAAAAAAAAAAAANAmGABgAKAFO80AwNosCOmVNAIAAAAAAAAAAABoEwwArMsiSQfQiJbo9LPos9eE/UBIr6YRAAAAAAAAAAAAQJtgAODvh6WSnk4jml9fX1+izwwAAAAAAAAAAAAAAG2HAQAGAFqw01vQZwYAAAAAAAAAAAAAgLbDAMC6PBTSQTSiJTr9D/SZAQAAAAAAAAAAAACg7TAAsC6LQ3o9jWiJTjMAwAAAAAAAAPz/9u40atO7MAv4O5NthizcWZ7nvq5/hYSEXThArcQixrIjm7KkQEuOQempBcEuCIoFLaWFCh6ggAiiZWm1lIpALIg9ICAUioGE1gaBkDaFhC0hKWSdzOKHzEkZs01mfd95f79zri9JPuS8z3X/v1z/534AAABg/XEBwAWAQ7DTLgDcmO+M5EyNAAAAAAAAgHUiyf1Hu8VY2u+P5NkasfY1eYw+d8doL03yUI0AAAAAAACAdSLJnV0A6I7RXtPkn2vE2jfa5+pzd4z2z5PcTyMAAAAAAABgHRnt9cbSbhntG7ThEOhz8nJ9dgEAAAAAAAAA1iUXALpjtNtHe442rH1N3qHPLgAAAAAAAADAujSSbxlLu2O0n0xyokas8T63n9Pl7hjtl5IcphEAAAAAAACwjjT5lLG0O0Z7nm9Mr21JjhntRbp84wUAjQAAAAAAAIB1pu3/NJZ2x2gvGsnjNWLtSvLg0V6qy90x2s9oBAAAAAAAAKwzo/0NY2l3jPby0T5PI9auJmeN9ru63B1NfkcjAAAAAAAAYJ0ZyWsNpt0x2q2jfe00TUdoxRrtcvuq0V6ry93R9q0aAQAAAAAAAOvMmOefMZjuTHLOWC5P0Yq156QTTjh6tL+nxzd1+ee1AgAAAAAAANaZJk81mN6U80byEK1Ye8Y8/7XRnqfDN10AeI5WAAAAAAAAwDrT9kcMpjfliibPmqZpo2asLaP9idFeosM7fwJgnh+mFQAAAAAAALDOjPZuo73MaHrTb6e/Zp7nO2vG2pHkqNH+ymiv1+Ebk2RoBgAAAAAAAKwzTf7KaC8wmt50AeCTbe+hGWuow+2po/2A/t70+v9rRnK4ZgAAAAAAAMA6M5ITR/tuw+lN2ZrkCSeeeKKfAVgDFovFhtE+cbTf0N2dl1iSc5scph0AAAAAAACwzrQ9ru0bDae7vAXgTUk2acfqN8/zcU1erbe7vAHgPSNxgQUAAAAAAADWm3mej2zyfMPpLrmwrd9QXwOanNb28zq7ywWAX6oLAAAAAAAAALD+TNO0ocmTRnu18XSXtwD8Q+1Y3cZyuWHM85mjvVZn/zJJnrBcLjdoCAAAAAAAAKxDTc4Y7Z8bT3fJp6dp2qwdq7q3RzT5oK7ukuuaPHCaJgUBAAAAAACA9Wgk9x7tR4ynu+SKJI/TjtWryX1Ge4Ou7vL6/z9pcpp2AAAAAAAAwDo1lsvFSP6DAXWXbGvy/iTHacjqk+TIkbxTT292AeA3R7LQEAAAAAAAAFinkhzZ9qWj3WJE3SVfa3Kmhqw+I3noaL+poze7APCvxnJ5tIYAAAAAAADAOtb2rNF+24i6S7a2fWeSWUNWjyR3Gu3bXFi5Wa5p8pNJNmoJAAAAAAAArGNt/9Zov2BEvVm+1eSZ0zQdpiWrw0geOdov6ebNclHbh2kIAAAAAAAArHNJ7jraDxtRb5btoz1nJHdLoigHv6djtL812m26ebN8uO29tAQAAAAAAABYGcnrRnu9IfVmua7t89seoSUHtZ9HNvmZ0V6lkze/qNLkDYvF4lhNAQAAAAAAAFbanj3a7xhTbzFfGfP8V7Xk4EiyMpIHjPZ8XbzFfG8kL9AUAAAAAAAAYGVlZWUlyQNHe6Ex9VaSvGuapqM05cBrcniTN+vhrebLbR+jKQAAAAAAAMDKysrKymKx2DSSTxtTbzVXtn2Ophx4bZ802u/p4K3mo21/SFMAAAAAAACAm4zkl0e7zaB6y7+zPtovJPmbi8Vio7bsf9M0bVgul/cZ7Xn6d6vZ0uTNSTZoDAAAAAAAAHCTJGeMdotR9Vazte0H5uXyXtM0GVz3s3m5PKXJOaPdqnu3msvaPl1bAAAAAAAAgF1M07RptF8zqt5mrm3yxszzQmP2n5GcOJJ/M9qrdO428+WxXJ6iMQAAAAAAAMDNNPm3RtXbzRUjeelIjtKYfW8sl5tH8tOjvVTXbifJb2kMAAAAAAAAcIsyzw83rO7eq9eTPFFj9q3FYrEh8/yo0X5Fx3Yj8+z1/wAAAAAAAMAtazva/qFxdbdySZInJDlcc/beYrE4bJ7nHx3tJaPdrl+3++3/K8Y8b9YcAAAAAAAA4BYlObrJLxtYdzt/1uRpSY7Unj03TdPGeZ4fNto/1andvgDwjpFs1B4AAAAAAADgFk3TtKHJ40f7XSPrbufckTx+LJebNGiPOrcxyV9v8onRbtOn3coNY56fOpbLDRoEAAAAAAAA3Kq29277ESPrbmfraM9v8uN+DuCO2Tn+/8ho//tor9el3f72/xdHcpoGAQAAAAAAALdpsVgc3fY1htY9+DmAeT5Tg3a7Zxty42v/zzX+3+ELAG8d83yCFgEAAAAAAAC3aZqmlZE8cbRfNbbe4Xx7JC9MsmmaJmW6FUmOmOf5IaO9ZLTb9eYO5fImT/b6fwAAAAAAAGC3JJlH+z7j7B7liravmZfLUxeLxWHa9JemadrQeV42ee5or9SVPcp7256sTQAAAAAAAMBua/KC0V5hcN2jXNvkvzZ5eOf5cG1aWVksFofP8/ygJm8Z7Xd1ZI/y/ZH8wjRNLpYAAAAAAAAAu2+e51NGcr7Rda9yftvnTNN01HruUuf5sCZntv3EaK/Xiz3OeU0e7HQCAAAAAAAA7pBpmg4byRtGu83wule5tMm/TvJD67FHSY5v8kujvVgX9io3NHlXks1OJwAAAAAAAOAOWy6X9x/tNcbXvc51o/1827OaHD+SDYdyb5JsaLJpJI8b7cdGe7UO7P1FkiSPdioBAAAAAAAAe6zJ+4yv+/QiwAdGe3qSow/FviTZ1Pb0Jv9+tFf5zPdRko9M07TJiQQAAAAAAADssSZP9haAfZ6L2v5ik0PmIkCSo0byoNG+aLRf8hnv8wsAZzmNAAAAAAAAgL3SZNHkQ0bY/fI2gHObvD7JY5McsRb7kWRTk7892leO9lOj3eKz3ef54yTHOY0AAAAAAACAvZLk8CbPGO33DbH7JVtG+9Umb09y+jRNR62Vbox5Pr3JW3Z+4/9an+V++/b/c5pscBoBAAAAAAAAey3JyW3fO9rtBtn9lhtGe9loPzWSF4wb/+abF4vFxlXSgY2d503zPN+1yfNG+8nRfsc3/vd7PjGSk5M4iAAAAAAAAIB9o8lPjvZbBtkDkyaXt313kjNH+6C2d0lydA7QN8GTbExybJO7NnlA26c0eddor/T5HLBcNdqzkxzuBAIAAAAAAAD2mXme7zqSD3oLwAHPttFe2vac0b68yTNH8pDO892Xy+Vx0zTtkzcETNO0cZ7n45Oc2vZvNPn7bV852v82kot3/n/4PA5sfr/JvZ0+AAAAAAAAwD41TdNhI/kF3wA/6LlytOeP9kOj/Y3Rvr7J80dy5kge2Xl+QJLTdubkJEevrKysJDk2yd1+4N/dfyQPH8kzmvzcaF8z2neM9vdG+7md3z739z6I3/5v8pLFYnGU0wcAAAAAAADY50aybPJxbwFYdblitF8b7Zd3Xg747M58ZrQfHe2HR/uxH/jnnx3teTv/+6/vvFSw1d9xVeVTTe7l1AEAAAAAAAD2mzHPf2e01xpoRfZbLm/7U0k2OnEAAAAAAACA/arJ7xhpRfZTkg9N07TJSQMAAAAAAADsd03OGO0lxlqRfZ6rR/IIpwwAAAAAAABwQIzkmJG8arQ3GGxF9l2avKvzvMEpAwAAAAAAABwQSTaM5MGjPddoK7LPcvFITh/LpUMGAAAAAAAAOHAWJ520qck/He33DLcie52tTV66XC6PdroAAAAAAAAAB1ySebTv9lMAInuVbSN5/0hOc6oAAAAAAAAAB03bx472IiOuyJ6/+j/J06dpOsyJAgAAAAAAABw00zQdMeb5X3gLgMge5eq2r05ynNMEAAAAAAAAOOjGcnlC208bc0XuWJr873mevfofAAAAAAAAWD2aPHokf2HUFdntbB3z/HenadrgBAEAAAAAAABWjbZHt33FaK8x7Ircbm5o+/a2Dg8AAAAAAABg9Wl7atv3j3abgVfkNl/9/4l5ubz7NE0ODgAAAAAAAGD1maZpY5NHj/YCI6/IrebCkTwlyRFODQAAAAAAAGDVSrJ5JC8Y7WWGXpGb5comvziSY5wWAAAAAAAAwKo3kjs1edtotxp8RW7K1pG8e7lYnOCUAAAAAAAAANaMaZruNJLPGX1Fbsq5Y7m8r9MBAAAAAAAAWHPGPD9qtBcbfkV6ZdvHOxUAAAAAAACANantprbPH+03DcCyjnNVk5c5EQAAAAAAAIA1bZ7nE9q+arTfNwTLOsyWJm9cLpcnOQ0AAAAAAACANW2apg1NOpL/NNotBmFZR9k2kv/S5fLui8Vig9MAAAAAAAAAOCQsFouM5L2j3WYYlnWQraP9H23v5+kHAAAAAAAADjlJHjja84zDsg5ywUge4akHAAAAAAAADlkjefxov2IglkM432rydE87AAAAAAAAcEgbyZEjeYZLAHIIj//PnqbpcE87AAAAAAAAcMgbyZGjfe5oLzMYyyGUq5u8ZLlcHuspBwAAAAAAANaNaZqObPKC0V5iOJY1nu2j/U7n+cWLxcL4DwAAAAAAAKw/P3AJ4DtGZFnDuazz/JLFYnFnTzUAAAAAAACwbu28BPCi0V5vSJY1+e3/eX6F8R8AAAAAAABgZWVlXi4XTX7XmCxrMH8wlsuTPMUAAAAAAAAAKysrSTaOeb7nSN452muNyrIGsnW0/2sk9/cEAwAAAAAAAPx/FovF8U1eM9q/MDDLKs5Vbd+UpJ5aAAAAAAAAgFuxWCxO3HkJ4BpDs6zCXN32zUnu6mkFAAAAAAAAuB2LxeKEkbxqtJcbnGUV5dq2rzT+AwAAAAAAANwBSY5v8kKXAGSV5LrO879MMnk6AQAAAAAAAO6AaZpWktxpJM8a7YWj3W6EloOQ7aP9xmj/ceb5zp5MAAAAAAAAgL0wkh8b7R+MdptBWg5gbhjt5zPPT5mm6XBPIgAAAAAAAMA+kOSBo/3gaK81TMsByJbRntP2oZ4+AAAAAAAAgH1suVye0uT1o73cQC37MVc1eUuSe3jqAAAAAAAAAPaDaZo2zPN8UtufG+3FhmrZD/lWk5csl8t64gAAAAAAAAD2s7abxzw/ZiTnj3ab0Vr2QbaP9k9G8rTM852mafKgAQAAAAAAABwoSU4a7W+P9rsGbNmbV/6P5D1JTvVUAQAAAAAAABwkI9k8kp8d7f8Z7Q3GbLkD2TrarzT51WmaNnmaAAAAAAAAAA6yJJuTPHIk7xntVYZt2Y1cM9pzmjyprfEfAAAAAAAAYLWYpmljk7uN5IUjucLALbeRK0b7itHeI8lhnh4AAAAAAACAVWgsl5szzw8dycdHu83YLT+QbaP9Yub5ESM5xtMCAAAAAAAAsAYkOa7JPxntBaPdYvxe19ky2gubvKztsZ4OAAAAAAAAgDVmmqYjOs+nj/bto/2mIXxd5tujfWfbhyc5ylMBAAAAAAAAsIYtFosTmpw9kg+P9hqj+Lr51v8nM88/leQkTwEAAAAAAADAIWIsl4d1nu85kp8fyQU7fw/eUH5o5qtNXjySB0zTdLj2AwAAAAAAAByCRrI5y+U9R/K60V472u0G80Mi20f7vSZvyzz/cOZ58zRNCg8AAAAAAACwHjQ5bSRvHe3Fo73OiL4mc/1ov97kN5PcV6sBAAAAAAAA1qkkR47kR0f7ptH+Xz8NsGZyw2i/1PZtTR6Z5EhtBgAAAAAAAGAlyea2jx7t60b7FQP7qs7Fo319k8ckubP2AgAAAAAAAHAzTY4bycNG+4qRXOCNAKsqXx3ty5s8Isnx2goAAAAAAADAbUqyYSTHZLm8V5N/1OSi0W43wB+UbBvJn7V9WZP7Nzk6yQYtBQAAAAAAAOAOG8vlkWOenzqS/zzaPx3t1Yb5/Zbto71mtBc3eV+Sp2sgAAAAAAAAAPvUNE1HJHlgk5eP9qOjvXS0W432+yzfGO3HRvLKtqcnOVLrAAAAAAAAANivkpw6kmeO5NUj+ehoL/czAXuUK0f78ba/3vZZSe6pXQAAAAAAAAAccGO5PHrM831H8tiR/NpIPjfa6w37t5225zX5tSZPbnu/5XJ57DRNGzQKAAAAAAAAgINuLJfHjuQuTc5o+6uj/cPR3uDNAN0+2uubnN/k15M8rsnJSY6dpmmj5gAAAAAAAACw6iW5S5Kz2/72aP94tF8f7RU7LwYcimP/1tF+b7SXjOSP2r6j7bMXi8Up2gAAAAAAAADAIWGxWJyY5MdG8rwmbxvt74/2C6O9dA3/bMCWnZcaPj/aD4/k7U1eNJJHJTnRpw4AAAAAAADAIS3J4Z3n0eQhTX5iJC8e7RtG+7uj/cxoLx7ttlU29l832gtH+9mRvLfJvxvtP2vy400e3Hmek3ilPwAAAAAAAADrV5INSY5tcteRPGi0Dxvt05r89EheMW58Y8AHmvzRSL66H98YcGWTL47k/JF8aLT/se2vNPkHo/17Tc5o+8Njnk9eLhaTTw4AAAAAAAAAbsc0TSsnnXTSEZ3nY8Y8n9B2bnJyk1NHcp/R3rftGU3OanJ2258d7WtH8qbbS5MXNzl7Z85K8ojR3rfJvZqc0uTkkaTJCUmOOfHEEw/ziQAAAAAAAADc6P8BE+mt7nTI6zYAAAAldEVYdGRhdGU6Y3JlYXRlADIwMjEtMDEtMzFUMDY6NDg6MDYrMDA6MDBRn5HuAAAAJXRFWHRkYXRlOm1vZGlmeQAyMDIxLTAxLTMxVDA2OjQ4OjA2KzAwOjAwIMIpUgAAAABJRU5ErkJggg==;" vertex="1" parent="zxlBYHo0lnK8-v2Jy7Ye-19">
          <mxGeometry x="904" y="563.13" width="53" height="24.2" as="geometry" />
        </mxCell>
        <mxCell id="zxlBYHo0lnK8-v2Jy7Ye-4" value="" style="image;aspect=fixed;perimeter=ellipsePerimeter;html=1;align=center;shadow=0;dashed=0;fontColor=#4277BB;labelBackgroundColor=default;fontSize=12;spacingTop=3;image=img/lib/ibm/vpc/LoadBalancer.svg;" vertex="1" parent="zxlBYHo0lnK8-v2Jy7Ye-19">
          <mxGeometry x="633.5" y="219" width="60" height="60" as="geometry" />
        </mxCell>
        <mxCell id="zxlBYHo0lnK8-v2Jy7Ye-5" value="API-Gateway" style="image;sketch=0;aspect=fixed;html=1;points=[];align=center;fontSize=12;image=img/lib/mscae/Application_Gateway.svg;" vertex="1" parent="zxlBYHo0lnK8-v2Jy7Ye-19">
          <mxGeometry x="638.5" y="329" width="50" height="50" as="geometry" />
        </mxCell>
        <mxCell id="zxlBYHo0lnK8-v2Jy7Ye-8" value="" style="image;sketch=0;aspect=fixed;html=1;points=[];align=center;fontSize=12;image=img/lib/mscae/Key_Vaults.svg;imageBackground=none;imageBorder=none;" vertex="1" parent="zxlBYHo0lnK8-v2Jy7Ye-19">
          <mxGeometry x="495.79999999999995" y="379" width="19.2" height="20" as="geometry" />
        </mxCell>
        <mxCell id="zxlBYHo0lnK8-v2Jy7Ye-9" value="Microservice Architecture" style="text;html=1;align=center;verticalAlign=middle;whiteSpace=wrap;rounded=0;fontSize=18;fontFamily=Comic Sans MS;" vertex="1" parent="zxlBYHo0lnK8-v2Jy7Ye-19">
          <mxGeometry x="410" y="207.5" width="136" height="83" as="geometry" />
        </mxCell>
        <mxCell id="zxlBYHo0lnK8-v2Jy7Ye-17" value="" style="group;rotation=0;" vertex="1" connectable="0" parent="zxlBYHo0lnK8-v2Jy7Ye-19">
          <mxGeometry x="799" y="628" width="122" height="56" as="geometry" />
        </mxCell>
        <mxCell id="zxlBYHo0lnK8-v2Jy7Ye-10" value="Tây Java" style="text;html=1;align=left;verticalAlign=middle;whiteSpace=wrap;rounded=0;fontSize=28;fontColor=#CC0000;fontStyle=1;fontFamily=Times New Roman;container=0;rotation=0;textOpacity=30;" vertex="1" parent="zxlBYHo0lnK8-v2Jy7Ye-17">
          <mxGeometry x="1" y="4" width="114" height="32" as="geometry" />
        </mxCell>
        <mxCell id="zxlBYHo0lnK8-v2Jy7Ye-11" value="Lập trình Java Từ A~Z" style="text;html=1;align=center;verticalAlign=middle;whiteSpace=wrap;rounded=0;fontSize=11;fontColor=#003366;container=0;rotation=0;textOpacity=30;" vertex="1" parent="zxlBYHo0lnK8-v2Jy7Ye-17">
          <mxGeometry x="8" y="31" width="115" height="21" as="geometry" />
        </mxCell>
        <mxCell id="zxlBYHo0lnK8-v2Jy7Ye-14" value="" style="rounded=0;whiteSpace=wrap;html=1;fillColor=none;container=0;strokeColor=#CCCCCC;shadow=0;rotation=0;" vertex="1" parent="zxlBYHo0lnK8-v2Jy7Ye-17">
          <mxGeometry width="122" height="56" as="geometry" />
        </mxCell>
      </root>
    </mxGraphModel>
  </diagram>
</mxfile>
